<svg id="svg6995" height="512" viewBox="0 0 16.933333 16.933334" width="512" xmlns="http://www.w3.org/2000/svg" xmlns:svg="http://www.w3.org/2000/svg"><g id="layer1" transform="translate(0 -280.067)"><path id="path9571" d="m14.552081 280.5958c-.10794-.006-.20533.066-.24547.1664l-.47749 1.19373c.60302.13213 1.0832.61211 1.21595 1.21491l1.19269-.47749c.10041-.0401.1719-.13746.1664-.24546-.0254-.49909-.28673-.92545-.60668-1.2454-.39651-.37359-.75845-.57721-1.2454-.60669zm-6.4187303 1.68001c-.58138 0-1.05884.47698-1.05885 1.05833 0 .58137.47748 1.05884 1.05885 1.05885.58135.00001 1.05833-.47749 1.05833-1.05885s-.47697-1.05833-1.05833-1.05833zm5.3603903.17208c-.59078 0-1.05833.46755-1.05833 1.05833 0 .59077.46755 1.05833 1.05833 1.05833s1.05834-.46756 1.05834-1.05833c0-.59078-.46756-1.05833-1.05834-1.05833zm-7.4662103.0124c-.58136-.00001-1.05832.47698-1.05833 1.05833.00001.58136.47695 1.05885 1.05833 1.05885.58135.00002 1.05886-.4775 1.05885-1.05885 0-.58136-.47749-1.05833-1.05885-1.05833zm4.1470403.36225c-.5813803 0-1.0583303.47698-1.0583403 1.05833.00001.58137.47696 1.05884 1.0583403 1.05885.58136 0 1.05885-.47749 1.05885-1.05885-.00001-.58136-.47749-1.05833-1.05885-1.05833zm-6.0621703.53123c-.58136-.00001-1.05884.4775-1.05885 1.05885 0 .29069.11963.55527.31161.74724.19198.19198.45655.3111.74724.3111.58136 0 1.05833-.47698 1.05834-1.05834-.00001-.58136-.47697-1.05886-1.05834-1.05885zm-.74724 1.80609c-.19198-.19197-.45656-.3111-.74724-.31109-.58137-.00001-1.05831.47698-1.05833 1.05833 0 .58138.47695 1.05885 1.05833 1.05885.58136.00001 1.05885-.47749 1.05885-1.05885 0-.29068-.11963-.55526-.31161-.74724zm8.5410803-1.125c-.58137 0-1.05885.47748-1.05885 1.05885 0 .58136.47748 1.05834 1.05885 1.05834s1.05885-.47698 1.05885-1.05834c0-.58137-.47748-1.05885-1.05885-1.05885zm1.21233 1.73116c-.58136 0-1.05831.47749-1.05833 1.05885.00001.58136.47696 1.05834 1.05833 1.05834s1.05886-.47698 1.05885-1.05834c.00001-.58136-.47748-1.05885-1.05885-1.05885zm-11.3936203.99839c-.58135-.00002-1.05832004.47699-1.05833004 1.05834 0 .58136.47695004 1.05887 1.05833004 1.05885.58137.00002 1.05887-.4775 1.05885-1.05885.00001-.58137-.47746-1.05836-1.05885-1.05834zm11.9408803 1.04335c-.58137-.00001-1.05834.47698-1.05834 1.05833-.00001.58137.47696 1.05886 1.05834 1.05885.58136.00001 1.05885-.4775 1.05885-1.05885.00001-.58137-.47748-1.05834-1.05885-1.05833zm-12.1248503 1.06143c-.58136004-.00001-1.05834004.47752-1.05833004 1.05885 0 .58138.47695 1.05837 1.05833004 1.05834.58136.00003 1.05884-.47699 1.05885-1.05834-.00001-.58136-.47746-1.05888-1.05885-1.05885zm11.9408803 1.04335c-.58137-.00001-1.05834.4775-1.05834 1.05885-.00001.58137.47697 1.05834 1.05834 1.05833.58136.00001 1.05885-.47698 1.05885-1.05833.00001-.58137-.47748-1.05886-1.05885-1.05885zm-11.3936203.99839c-.58137 0-1.05832.47697-1.05834 1.05833.00002.58136.47696 1.05885 1.05834 1.05885.58135.00001 1.05885-.47749 1.05885-1.05885 0-.58138-.47748-1.05833-1.05885-1.05833zm10.5006503.91726c-.58136-.00001-1.05833.4775-1.05833 1.05885-.00001.29003.11884.55382.31005.74569-.19185-.19107-.45578-.31006-.74569-.31006-.58136-.00001-1.05885.4775-1.05885 1.05885-.00001.58136.47749 1.05834 1.05885 1.05833.58137.00001 1.05832-.47698 1.05834-1.05833 0-.29002-.11885-.55382-.31006-.74569.19185.19108.45578.30954.74569.30954.58137.00001 1.05884-.47697 1.05885-1.05833.00001-.58137-.47747-1.05886-1.05885-1.05885zm-9.2883203.8139c-.58137 0-1.05834.47696-1.05834 1.05833s.47697 1.05885 1.05834 1.05885c.58136 0 1.05885-.47748 1.05885-1.05885s-.47749-1.05833-1.05885-1.05833zm1.73167 1.21233c-.58136 0-1.05885.4775-1.05885 1.05885 0 .58136.4775 1.05833 1.05885 1.05833.58139-.00001 1.05832-.47696 1.05834-1.05833-.00001-.58135-.47697-1.05885-1.05834-1.05885zm4.14704.36225c-.58135-.00002-1.05886.47751-1.05885 1.05885-.00001.58137.47749 1.05833 1.05885 1.05833.58137 0 1.0583203-.47697 1.0583303-1.05833-.00001-.58135-.4769603-1.05886-1.0583303-1.05885zm-2.1053.18448c-.58136 0-1.05885.47752-1.05885 1.05886 0 .58135.47749 1.05833 1.05885 1.05833.58138-.00001 1.05831-.47696 1.05833-1.05833-.00001-.58134-.47696-1.05886-1.05833-1.05886z" font-variant-ligatures="normal" font-variant-position="normal" font-variant-caps="normal" font-variant-numeric="normal" font-variant-alternates="normal" font-feature-settings="normal" text-indent="0" text-align="start" text-decoration-line="none" text-decoration-style="solid" text-decoration-color="rgb(0,0,0)" text-transform="none" text-orientation="mixed" white-space="normal" shape-padding="0" isolation="auto" mix-blend-mode="normal" solid-color="rgb(0,0,0)" solid-opacity="1" vector-effect="none"/></g></svg>