<?xml version="1.0" encoding="utf-8"?>
<!-- Generator: Adobe Illustrator 27.0.0, SVG Export Plug-In . SVG Version: 6.00 Build 0)  -->
<svg version="1.1" id="OBJECTS" xmlns="http://www.w3.org/2000/svg" xmlns:xlink="http://www.w3.org/1999/xlink" x="0px" y="0px"
	 viewBox="0 0 519.9 177.7" style="enable-background:new 0 0 519.9 177.7;" xml:space="preserve">
<style type="text/css">
	.st0{fill:url(#SVGID_1_);}
	.st1{fill:url(#SVGID_00000035529763683007207290000011371892598614178697_);}
	.st2{fill:url(#SVGID_00000097479215963655844070000000665142550477455805_);}
	.st3{fill:url(#SVGID_00000034089831210034590100000009359041488413536670_);}
	.st4{fill:url(#SVGID_00000038403976362020748500000018136554794661146808_);}
	.st5{fill:url(#SVGID_00000156554464209250029680000006650971524047411886_);}
	.st6{fill:url(#SVGID_00000127725922019223781530000009041458489661749121_);}
	.st7{fill:url(#SVGID_00000059268918136175494430000001739452443783109531_);}
	.st8{fill:url(#SVGID_00000057116231126138054610000002408633076828880785_);}
	.st9{fill:url(#SVGID_00000078736333773420933390000001755140465433553046_);}
	.st10{fill:url(#SVGID_00000109005142599770283200000013740172421174883762_);}
	.st11{fill:url(#SVGID_00000176764379700259192820000004447423772615881630_);}
	.st12{fill:url(#SVGID_00000021820526530594331800000006014161209438788799_);}
	.st13{fill:url(#SVGID_00000119813410060285815750000003145454955876966335_);}
	.st14{fill:url(#SVGID_00000093861191561694067380000002841608243505246344_);}
	.st15{fill:url(#SVGID_00000097461868451277020670000015337851033934221475_);}
	.st16{fill:url(#SVGID_00000018201209307172378610000008884440124697549483_);}
	.st17{fill:url(#SVGID_00000068637261369505643800000014149582460909676176_);}
	.st18{fill:url(#SVGID_00000045604174237385406020000006163496510738626475_);}
	.st19{fill:url(#SVGID_00000119822704061042594680000008617235266561330346_);}
	.st20{fill:url(#SVGID_00000119111461094578814580000007671540940919673512_);}
	.st21{fill:url(#SVGID_00000062872162276130281760000015029772182061245854_);}
	.st22{fill:url(#SVGID_00000065784976627327399560000015953667427139522721_);}
	.st23{fill:url(#SVGID_00000060027880155486017870000017497389793463294608_);}
	.st24{opacity:0.4;fill:url(#SVGID_00000181077725693309795480000012750910603323289745_);}
	.st25{opacity:0.4;fill:url(#SVGID_00000023974532748717072260000005081183323414858895_);}
	.st26{opacity:0.4;fill:url(#SVGID_00000056399506432189643360000017117544973815105960_);}
	.st27{opacity:0.4;fill:url(#SVGID_00000072977610213125825340000004140786264472265898_);}
	.st28{opacity:0.4;fill:url(#SVGID_00000052069995303033299330000012705387231887629243_);}
	.st29{opacity:0.4;fill:url(#SVGID_00000067196908474036612890000017559107389260887709_);}
</style>
<g>
	<linearGradient id="SVGID_1_" gradientUnits="userSpaceOnUse" x1="24.4193" y1="148.7851" x2="522.5099" y2="93.5913">
		<stop  offset="0" style="stop-color:#BFA150"/>
		<stop  offset="0.32" style="stop-color:#E9C562"/>
		<stop  offset="0.5477" style="stop-color:#F0D794"/>
		<stop  offset="1" style="stop-color:#E9C562"/>
	</linearGradient>
	<path class="st0" d="M514.8,80.7c-1.8-6.2-5-11.9-8.5-17.4c2.2-0.1,4.3-0.7,6.5-0.8c-4.7-5.2-11-10.2-15.6-15.4
		c-1.5,2.6-3.1,5.1-4.6,7.8c5.1,13,10.2,26,14.3,39.4c0.7,2.2,1.3,4.4,1.1,6.7c-0.2,2.3-1.3,4.6-3.4,5.5
		c-11.8,5.4-19.5-8.3-22.2-12.9c-0.4,2-0.9,4-1.7,5.9c-0.9,1.8-2.2,3.5-4.1,4.4c-1.8,0.9-4.2,0.8-5.8-0.5c-1.6-1.3-2.3-4-2.1-7.1
		c-1.1,3.9-4.2,7.3-8,8.7c-3.8,1.4-8.3,0.9-11.8-1.3c-2.9-1.9-5-5-7.3-7.6c-2.4-2.6-5.5-4.9-9-4.7c-4.8,0.3-8.1,5-9.4,9.6
		c-2,7-1.5,14.4,1.7,20.9c-8.7,0.2-16.9,4.4-23.8,9.7c-6.9,5.3-12.9,11.8-19.5,17.4c-1.7,1.4-3.4,2.8-5.5,3.4
		c-2.1,0.7-4.5,0.5-6.2-0.9c-2.5-2.2-2.1-6.3-1.1-9.5c1.8-6.1,4.5-11.7,8-16.9c2.9,1.4,6.3,1.8,9.4,1c5.6-1.4,10.1-6.2,12-11.6
		c1.9-5.5,1.6-11.6-0.1-17.1c-1.6-5.6-4.5-10.7-7.6-15.6c2-0.1,3.9-0.7,5.9-0.8c-4.2-4.7-9.8-9.2-14-13.8c-1.3,2.4-2.8,4.6-4.2,7
		c4.6,11.7,9.2,23.3,12.8,35.3c0.6,1.9,1.2,4,1,6c-0.2,2-1.2,4.1-3,5c-6.2,2.9-10.4-4.8-12.3-9.4c-4.9-12.2-8.2-25.1-9.7-38.3
		c-3.7,0.2-6.2,4.1-6.3,7.8c-0.1,3.7,1.5,7.1,2.8,10.5c1.6,4.3,2.9,8.7,3.7,13.3c0.6,3.1,0.9,6.4,0.4,9.5c-0.6,3.1-2.3,6.2-5,7.8
		c-4.8,2.8-11.4,0.2-14.4-4.4c-3.1-4.6-3.3-10.6-2.5-16.1c0.8-5.5,2.6-10.8,3.1-16.3c0.2-2.3,0-5.1-2.1-6.2
		c-1.5-0.9-3.6-0.3-4.9,0.9c-1.3,1.2-2,2.9-2.6,4.6c-3.4,10-2.9,20.9-5,31.2c-0.8,4.1-2.5,8.7-6.4,10.2c-6.5,2.5-10-6.1-10.8-11.2
		c-0.5-3.6-0.2-7.2,0.3-10.7c0.2-1-1.3-1.5-1.7-0.5c-2.7,5.9-3.3,12.7-1.5,18.9c0.6,2.9,1.6,5.7,3.2,8.2c1.8,2.9,4.6,5.7,8,5.5
		c4-0.2,6.6-4.4,8.1-8.1c3.4-8,5.9-16.4,7.4-25c-0.7,6.3-0.3,13,1.3,18.9c1.1,3.9,2.9,7.9,6.2,10.3c4.2,3.1,10.3,2.8,14.8,0.2
		c4.1-2.3,7.1-6.3,9.1-10.6c0.7,0.9,1.6,1.8,2.5,2.5c-4.7,6.1-8,13.3-9.5,20.9c-0.6,3.4-0.8,7.2,1.1,10.1c2.9,4.4,9.3,4.8,14.4,3.5
		c7.7-2.1,14.3-7,20.5-12.1c6.2-5,12.4-10.3,19.8-13.3c7.4-3,17-2.1,23.4,2.7c2.2-2.9,4.6-6.5,3.2-9.9c-1.3-3.3-5.5-4.4-8.9-5.4
		c-3.2-0.9-6.4-2.3-8.7-4.7c-2.3-2.4-3.6-6-2.5-9.2c1.1-3.1,5-5.2,8-3.8c2.7,1.3,3.6,4.6,5.3,7.1c2.7,4.2,7.9,6.6,12.8,5.9
		c4.9-0.7,9.8-1.9,11.2-6.7c1.2,4.8,6.4,8.1,11.2,7.2c4.8-0.9,9.3-5.5,8.8-10.4c3,5.7,10.4,8.4,16.7,6.9c6.3-1.6,11.2-6.9,13.4-13
		C517.1,93.8,516.7,87,514.8,80.7z"/>
	
		<linearGradient id="SVGID_00000008110895683826887620000015523852579457175198_" gradientUnits="userSpaceOnUse" x1="27.4434" y1="176.0607" x2="525.5329" y2="120.867">
		<stop  offset="0" style="stop-color:#BFA150"/>
		<stop  offset="0.32" style="stop-color:#E9C562"/>
		<stop  offset="0.5477" style="stop-color:#F0D794"/>
		<stop  offset="1" style="stop-color:#E9C562"/>
	</linearGradient>
	<path style="fill:url(#SVGID_00000008110895683826887620000015523852579457175198_);" d="M490.4,118.1c-1.7,2.6-3.2,5.5-4.3,8.4
		c2.7,1.2,5.3,3.2,8,4.4c1.8-2.8,3.7-5.3,5.5-8C497.1,121.3,493.3,119,490.4,118.1z"/>
	
		<linearGradient id="SVGID_00000162333056387840714350000002059141994759371663_" gradientUnits="userSpaceOnUse" x1="21.242" y1="120.1024" x2="519.3329" y2="64.9085">
		<stop  offset="0" style="stop-color:#BFA150"/>
		<stop  offset="0.32" style="stop-color:#E9C562"/>
		<stop  offset="0.5477" style="stop-color:#F0D794"/>
		<stop  offset="1" style="stop-color:#E9C562"/>
	</linearGradient>
	<path style="fill:url(#SVGID_00000162333056387840714350000002059141994759371663_);" d="M216,97.8c-2.5-1.7-6.4-4-9.3-4.9
		c-1.7,2.6-3.2,5.5-4.3,8.4c2.7,1.2,5.3,3.2,8,4.4C212.2,103,214.2,100.5,216,97.8z"/>
	
		<linearGradient id="SVGID_00000000183850452075858060000016996149904928456600_" gradientUnits="userSpaceOnUse" x1="24.7005" y1="151.3195" x2="522.79" y2="96.1257">
		<stop  offset="0" style="stop-color:#BFA150"/>
		<stop  offset="0.32" style="stop-color:#E9C562"/>
		<stop  offset="0.5477" style="stop-color:#F0D794"/>
		<stop  offset="1" style="stop-color:#E9C562"/>
	</linearGradient>
	<path style="fill:url(#SVGID_00000000183850452075858060000016996149904928456600_);" d="M51.4,149.7c2.7,1.2,5.3,3.2,8,4.4
		c1.8-2.8,3.7-5.3,5.5-8c-2.5-1.7-6.4-4-9.3-4.9C53.9,143.9,52.5,146.7,51.4,149.7z"/>
	
		<linearGradient id="SVGID_00000158008294239641190910000011191738721957672884_" gradientUnits="userSpaceOnUse" x1="24.4362" y1="148.934" x2="522.5261" y2="93.7402">
		<stop  offset="0" style="stop-color:#BFA150"/>
		<stop  offset="0.32" style="stop-color:#E9C562"/>
		<stop  offset="0.5477" style="stop-color:#F0D794"/>
		<stop  offset="1" style="stop-color:#E9C562"/>
	</linearGradient>
	<path style="fill:url(#SVGID_00000158008294239641190910000011191738721957672884_);" d="M67.2,145.5c2.7,1.2,5.3,3.2,8,4.4
		c1.8-2.8,3.7-5.3,5.5-8c-2.5-1.7-6.4-4-9.3-4.9C69.7,139.7,68.3,142.5,67.2,145.5z"/>
	
		<linearGradient id="SVGID_00000040562361488589494950000017380410207037052564_" gradientUnits="userSpaceOnUse" x1="19.7793" y1="106.9109" x2="517.8715" y2="51.7168">
		<stop  offset="0" style="stop-color:#BFA150"/>
		<stop  offset="0.32" style="stop-color:#E9C562"/>
		<stop  offset="0.5477" style="stop-color:#F0D794"/>
		<stop  offset="1" style="stop-color:#E9C562"/>
	</linearGradient>
	<path style="fill:url(#SVGID_00000040562361488589494950000017380410207037052564_);" d="M409.1,120.7c1,0,1.8,0.2,2.8,0.2
		c3.7-29.3,1.7-60.4-6.4-88.8c1.9,2.9,5.2,4.4,8.5,5.5c-1.5-8-3.8-19.2-8.7-25.6c-1.4-1.8-3.9-3.7-6-4.7c-1.3,6.2-5,12.2-4,18.5
		C399.6,52.8,408.8,89.4,409.1,120.7z"/>
	
		<linearGradient id="SVGID_00000056401464577623919910000011446104063640869524_" gradientUnits="userSpaceOnUse" x1="18.4969" y1="95.3227" x2="516.5871" y2="40.1288">
		<stop  offset="0" style="stop-color:#BFA150"/>
		<stop  offset="0.32" style="stop-color:#E9C562"/>
		<stop  offset="0.5477" style="stop-color:#F0D794"/>
		<stop  offset="1" style="stop-color:#E9C562"/>
	</linearGradient>
	<path style="fill:url(#SVGID_00000056401464577623919910000011446104063640869524_);" d="M325.2,115.1c3.1-27.4,1.4-56.5-5.4-83
		c1.6,2.7,4.4,4.1,7.2,5.1c-1.3-7.5-3.2-17.9-7.3-24c-1.2-1.7-3.3-3.4-5-4.4c-1.1,5.8-4.2,11.4-3.3,17.3
		c3.6,25.3,11.3,59.5,11.6,88.8C323.7,114.8,324.3,115.1,325.2,115.1z"/>
	
		<linearGradient id="SVGID_00000085939957928402493950000014942326199208309437_" gradientUnits="userSpaceOnUse" x1="17.2662" y1="84.4242" x2="515.4189" y2="29.2234">
		<stop  offset="0" style="stop-color:#BFA150"/>
		<stop  offset="0.32" style="stop-color:#E9C562"/>
		<stop  offset="0.5477" style="stop-color:#F0D794"/>
		<stop  offset="1" style="stop-color:#E9C562"/>
	</linearGradient>
	<path style="fill:url(#SVGID_00000085939957928402493950000014942326199208309437_);" d="M185,124.9c0.2,0.3,0.4,0.6,0.6,0.9
		c6-6.3,6-15.5,5.3-23.6c-0.9-9.1-2-18.2-2.7-27.3c-0.6-7.8-1.3-15.5-2.3-23.3c-0.8-6.1-0.9-16.2-4-21.5c1.6,2.7,4.4,4.1,7.2,5.1
		c-1.3-7.5-3.2-17.9-7.3-24c-1.2-1.7-3.3-3.4-5-4.4c-1.1,5.8-4.2,11.4-3.3,17.3c2.3,16.3,4.7,32.7,6.8,49.1c1.2,9.3,2.2,18.6,3.1,28
		c0.4,4.5,0.8,9,1.1,13.4C184.5,117.7,183.3,122,185,124.9z"/>
	
		<linearGradient id="SVGID_00000170275887015642423400000005844883031898234804_" gradientUnits="userSpaceOnUse" x1="6.82" y1="83.9224" x2="504.9113" y2="28.7284">
		<stop  offset="0" style="stop-color:#BFA150"/>
		<stop  offset="0.32" style="stop-color:#E9C562"/>
		<stop  offset="0.5477" style="stop-color:#F0D794"/>
		<stop  offset="1" style="stop-color:#E9C562"/>
	</linearGradient>
	<path style="fill:url(#SVGID_00000170275887015642423400000005844883031898234804_);" d="M249.3,47.7c-1.5,4.3-2.1,8.9-1.6,13.4
		c0.1,1.3,0.4,2.6,0.9,3.8c0.6,1.2,1.6,2.2,2.8,2.5c1.5,0.4,3.2-0.2,4.3-1.3c1.2-1,2-2.4,2.8-3.8c0.5,1.9,3.3,2.9,5.2,2.8
		c2-0.2,3.7-1.5,4.7-3.1s1.4-3.6,1.5-5.6c0.2-4.3-0.9-8.6-3.2-12.2c-1.1,1.7-2.2,3.7-3.3,5.5c1.7,1.6,3,4.4,2.7,6.7
		c-0.2,1.4-1,2.9-2.4,3.1c-0.9,0.1-1.8-0.3-2.3-1c-0.6-0.7-0.9-1.5-1.2-2.3c-0.8-2.9-0.6-5.9-0.4-8.9c-1,1-1.9,2.6-2.2,3.9
		c-0.3,1.1-0.3,2.6-0.2,3.8c0.1,1.2,0,2.4-0.4,3.5c-0.4,1.1-1.4,2.1-2.5,2.3c-1.3,0.2-2.7-0.6-3.4-1.8c-0.7-1.2-0.9-2.6-0.8-4
		c0.1-2.3,0.7-4.5,1.8-6.5C251.5,48,250,48.2,249.3,47.7z"/>
	
		<linearGradient id="SVGID_00000158027402985547945800000003067245300293222327_" gradientUnits="userSpaceOnUse" x1="18.7784" y1="97.8769" x2="516.8699" y2="42.6829">
		<stop  offset="0" style="stop-color:#BFA150"/>
		<stop  offset="0.32" style="stop-color:#E9C562"/>
		<stop  offset="0.5477" style="stop-color:#F0D794"/>
		<stop  offset="1" style="stop-color:#E9C562"/>
	</linearGradient>
	<path style="fill:url(#SVGID_00000158027402985547945800000003067245300293222327_);" d="M351.4,68.8c0.6,1.2,1.6,2.2,2.8,2.5
		c1.5,0.4,3.2-0.2,4.3-1.3c1.2-1,2-2.4,2.8-3.8c0.5,1.9,3.3,2.9,5.2,2.8c2-0.2,3.7-1.5,4.7-3.1c1-1.7,1.4-3.6,1.5-5.6
		c0.2-4.3-0.9-8.6-3.2-12.2c-1.1,1.7-2.2,3.7-3.3,5.5c1.7,1.6,3,4.4,2.7,6.7c-0.2,1.4-1,2.9-2.4,3.1c-0.9,0.1-1.8-0.3-2.3-1
		c-0.6-0.7-0.9-1.5-1.2-2.3c-0.8-2.9-0.6-5.9-0.4-8.9c-1,1-1.9,2.6-2.2,3.9c-0.3,1.1-0.3,2.6-0.2,3.8c0.1,1.2,0,2.4-0.4,3.5
		c-0.4,1.1-1.4,2.1-2.5,2.3c-1.3,0.2-2.7-0.6-3.4-1.8c-0.7-1.2-0.9-2.6-0.8-4c0.1-2.3,0.7-4.5,1.8-6.5c-0.7-0.5-2.2-0.3-2.9-0.8
		c-1.5,4.3-2.1,8.9-1.6,13.4C350.6,66.4,350.8,67.7,351.4,68.8z"/>
	
		<linearGradient id="SVGID_00000147190488250646180640000014505954638466455479_" gradientUnits="userSpaceOnUse" x1="21.2312" y1="120.0142" x2="519.3229" y2="64.8203">
		<stop  offset="0" style="stop-color:#BFA150"/>
		<stop  offset="0.32" style="stop-color:#E9C562"/>
		<stop  offset="0.5477" style="stop-color:#F0D794"/>
		<stop  offset="1" style="stop-color:#E9C562"/>
	</linearGradient>
	<path style="fill:url(#SVGID_00000147190488250646180640000014505954638466455479_);" d="M455.7,77c-1.1-2.2,1.1-5.3,3-6.7
		c1.9-1.5,4.5-1.8,6.9-1.7c1.5,0,3.1,0.3,4.2,1.2c1.5,1.2,1.9,3.4,1.5,5.3c-0.4,1.9-1,4-2,5.6c3.6-2.9,6.2-7,7.4-11.4
		c0.5-1.9,0.7-4.1-0.4-5.7c-1.1-1.7-3.3-2.2-5.3-2.5c-3.3-0.5-6.8-0.6-10.1,0.4c-3.2,1-6.2,3.3-7.4,6.4
		C452.2,70.9,453,74.9,455.7,77z"/>
	
		<linearGradient id="SVGID_00000147202788436946311530000013445733626365314180_" gradientUnits="userSpaceOnUse" x1="13.1047" y1="46.6762" x2="511.1971" y2="-8.5179">
		<stop  offset="0" style="stop-color:#BFA150"/>
		<stop  offset="0.32" style="stop-color:#E9C562"/>
		<stop  offset="0.5477" style="stop-color:#F0D794"/>
		<stop  offset="1" style="stop-color:#E9C562"/>
	</linearGradient>
	<path style="fill:url(#SVGID_00000147202788436946311530000013445733626365314180_);" d="M221.7,28.6c-1.1-2.2,1.1-5.3,3-6.7
		c1.9-1.5,4.5-1.8,6.9-1.7c1.5,0,3.1,0.3,4.2,1.2c1.5,1.2,1.9,3.4,1.5,5.3c-0.4,1.9-1,4-2,5.6c3.6-2.9,6.2-7,7.4-11.4
		c0.5-1.9,0.7-4.1-0.4-5.7c-1.1-1.7-3.3-2.2-5.3-2.5c-3.3-0.5-6.8-0.6-10.1,0.4c-3.2,1-6.2,3.3-7.4,6.4S219,26.6,221.7,28.6z"/>
	
		<linearGradient id="SVGID_00000070823669749409859170000015969089018155055750_" gradientUnits="userSpaceOnUse" x1="13.5538" y1="50.7269" x2="511.6444" y2="-4.467">
		<stop  offset="0" style="stop-color:#BFA150"/>
		<stop  offset="0.32" style="stop-color:#E9C562"/>
		<stop  offset="0.5477" style="stop-color:#F0D794"/>
		<stop  offset="1" style="stop-color:#E9C562"/>
	</linearGradient>
	<path style="fill:url(#SVGID_00000070823669749409859170000015969089018155055750_);" d="M64.1,50.2c-1.1-2.2,1.1-5.3,3-6.7
		c1.9-1.5,4.5-1.8,6.9-1.7c1.5,0,3.1,0.3,4.2,1.2c1.5,1.2,1.9,3.4,1.5,5.3c-0.4,1.9-1,4-2,5.6c3.6-2.9,6.2-7,7.4-11.4
		c0.5-1.9,0.7-4.1-0.4-5.7c-1.1-1.7-3.3-2.2-5.3-2.5c-3.3-0.5-6.8-0.6-10.1,0.4c-3.2,1-6.2,3.3-7.4,6.4
		C60.6,44.2,61.4,48.2,64.1,50.2z"/>
	
		<linearGradient id="SVGID_00000088811297836997508220000003964080820545026732_" gradientUnits="userSpaceOnUse" x1="29.4943" y1="194.5764" x2="527.5862" y2="139.3824">
		<stop  offset="0" style="stop-color:#BFA150"/>
		<stop  offset="0.32" style="stop-color:#E9C562"/>
		<stop  offset="0.5477" style="stop-color:#F0D794"/>
		<stop  offset="1" style="stop-color:#E9C562"/>
	</linearGradient>
	<path style="fill:url(#SVGID_00000088811297836997508220000003964080820545026732_);" d="M469,156.7c18.8-11.6,23.8-14.3,38.1-19
		v-1.3c0.2-1.7,0.1-3.8,0.3-5.5c-14.8,5.9-28.8,13.7-41.6,23.1C467,154.7,467.9,156,469,156.7z"/>
	
		<linearGradient id="SVGID_00000103966168625627537220000011988544059217672066_" gradientUnits="userSpaceOnUse" x1="-47.8707" y1="204.3402" x2="472.2263" y2="146.7078">
		<stop  offset="0" style="stop-color:#BFA150"/>
		<stop  offset="0.32" style="stop-color:#E9C562"/>
		<stop  offset="0.5477" style="stop-color:#F0D794"/>
		<stop  offset="1" style="stop-color:#E9C562"/>
	</linearGradient>
	<path style="fill:url(#SVGID_00000103966168625627537220000011988544059217672066_);" d="M411.1,164.7
		c19.6-12.2,24.9-14.9,39.8-19.9v-1.4c0.2-1.8,0.1-3.9,0.3-5.7c-15.5,6.1-30.1,14.3-43.5,24.2C408.9,162.7,409.9,164,411.1,164.7z"
		/>
	
		<linearGradient id="SVGID_00000085220730922013986900000017531333961354726587_" gradientUnits="userSpaceOnUse" x1="-153.2781" y1="204.3403" x2="366.8192" y2="146.7078">
		<stop  offset="0" style="stop-color:#BFA150"/>
		<stop  offset="0.32" style="stop-color:#E9C562"/>
		<stop  offset="0.5477" style="stop-color:#F0D794"/>
		<stop  offset="1" style="stop-color:#E9C562"/>
	</linearGradient>
	<path style="fill:url(#SVGID_00000085220730922013986900000017531333961354726587_);" d="M305.7,164.7
		c19.6-12.2,24.9-14.9,39.8-19.9v-1.4c0.2-1.8,0.1-3.9,0.3-5.7c-15.5,6.1-30.1,14.3-43.5,24.2C303.5,162.7,304.5,164,305.7,164.7z"
		/>
	
		<linearGradient id="SVGID_00000168810276393984665930000005167590155740469141_" gradientUnits="userSpaceOnUse" x1="18.062" y1="57.7567" x2="516.1519" y2="2.5629">
		<stop  offset="0" style="stop-color:#BFA150"/>
		<stop  offset="0.32" style="stop-color:#E9C562"/>
		<stop  offset="0.5477" style="stop-color:#F0D794"/>
		<stop  offset="1" style="stop-color:#E9C562"/>
	</linearGradient>
	<path style="fill:url(#SVGID_00000168810276393984665930000005167590155740469141_);" d="M244.3,43.5c18.8-11.6,23.8-14.3,38.1-19
		v-1.3c0.2-1.7,0.1-3.8,0.3-5.5c-14.8,5.9-28.8,13.7-41.6,23.1C242.3,41.5,243.2,42.8,244.3,43.5z"/>
	
		<linearGradient id="SVGID_00000047024563917101694800000006385884843177682577_" gradientUnits="userSpaceOnUse" x1="-41.3982" y1="190.1345" x2="456.6917" y2="134.9407">
		<stop  offset="0" style="stop-color:#BFA150"/>
		<stop  offset="0.32" style="stop-color:#E9C562"/>
		<stop  offset="0.5477" style="stop-color:#F0D794"/>
		<stop  offset="1" style="stop-color:#E9C562"/>
	</linearGradient>
	<path style="fill:url(#SVGID_00000047024563917101694800000006385884843177682577_);" d="M184.9,175.9c18.8-11.6,23.8-14.3,38.1-19
		v-1.3c0.2-1.7,0.1-3.8,0.3-5.5c-14.8,5.9-28.8,13.7-41.6,23.1C182.8,173.9,183.7,175.1,184.9,175.9z"/>
	
		<linearGradient id="SVGID_00000052075161338824198270000010243459644106794150_" gradientUnits="userSpaceOnUse" x1="-132.2027" y1="191.9499" x2="365.8871" y2="136.7561">
		<stop  offset="0" style="stop-color:#BFA150"/>
		<stop  offset="0.32" style="stop-color:#E9C562"/>
		<stop  offset="0.5477" style="stop-color:#F0D794"/>
		<stop  offset="1" style="stop-color:#E9C562"/>
	</linearGradient>
	<path style="fill:url(#SVGID_00000052075161338824198270000010243459644106794150_);" d="M94.1,177.7c18.8-11.6,23.8-14.3,38.1-19
		v-1.3c0.2-1.7,0.1-3.8,0.3-5.5c-14.8,5.9-28.8,13.7-41.6,23.1C92,175.7,92.9,177,94.1,177.7z"/>
	
		<linearGradient id="SVGID_00000014636492501389672440000001362346926798580626_" gradientUnits="userSpaceOnUse" x1="15.1242" y1="64.8959" x2="513.2132" y2="9.7022">
		<stop  offset="0" style="stop-color:#BFA150"/>
		<stop  offset="0.32" style="stop-color:#E9C562"/>
		<stop  offset="0.5477" style="stop-color:#F0D794"/>
		<stop  offset="1" style="stop-color:#E9C562"/>
	</linearGradient>
	<path style="fill:url(#SVGID_00000014636492501389672440000001362346926798580626_);" d="M116.6,44.3c-1.5,4.3-2.1,8.9-1.6,13.4
		c0.1,1.3,0.4,2.6,0.9,3.8c0.6,1.2,1.6,2.2,2.8,2.5c1.5,0.4,3.2-0.2,4.3-1.3c1.2-1,2-2.4,2.8-3.8c0.5,1.9,3.3,2.9,5.2,2.8
		s3.7-1.5,4.7-3.1c1-1.7,1.4-3.6,1.5-5.6c0.2-4.3-0.9-8.6-3.2-12.2c-1.1,1.7-2.2,3.7-3.3,5.5c1.7,1.6,3,4.4,2.7,6.7
		c-0.2,1.4-1,2.9-2.4,3.1c-0.9,0.1-1.8-0.3-2.3-1c-0.6-0.7-0.9-1.5-1.2-2.3c-0.8-2.9-0.6-5.9-0.4-8.9c-1,1-1.9,2.6-2.2,3.9
		c-0.3,1.1-0.3,2.6-0.2,3.8c0.1,1.2,0,2.4-0.4,3.5c-0.4,1.1-1.4,2.1-2.5,2.3c-1.3,0.2-2.7-0.6-3.4-1.8c-0.7-1.2-0.9-2.6-0.8-4
		c0.1-2.3,0.7-4.5,1.8-6.5C118.8,44.6,117.3,44.8,116.6,44.3z"/>
	
		<linearGradient id="SVGID_00000096749591508100760980000000958864428540524991_" gradientUnits="userSpaceOnUse" x1="23.2281" y1="30.8369" x2="521.3213" y2="-24.3573">
		<stop  offset="0" style="stop-color:#BFA150"/>
		<stop  offset="0.32" style="stop-color:#E9C562"/>
		<stop  offset="0.5477" style="stop-color:#F0D794"/>
		<stop  offset="1" style="stop-color:#E9C562"/>
	</linearGradient>
	<path style="fill:url(#SVGID_00000096749591508100760980000000958864428540524991_);" d="M146.6,13.1v-1.3c0.2-1.7,0.1-3.8,0.3-5.5
		c-14.8,5.9-28.8,13.7-41.6,23.1c1.1,0.7,2.1,2,3.2,2.7C127.3,20.5,132.4,17.9,146.6,13.1z"/>
	
		<linearGradient id="SVGID_00000003793635253376982470000016888101326614379416_" gradientUnits="userSpaceOnUse" x1="15.5329" y1="68.5881" x2="513.6234" y2="13.3942">
		<stop  offset="0" style="stop-color:#BFA150"/>
		<stop  offset="0.32" style="stop-color:#E9C562"/>
		<stop  offset="0.5477" style="stop-color:#F0D794"/>
		<stop  offset="1" style="stop-color:#E9C562"/>
	</linearGradient>
	<path style="fill:url(#SVGID_00000003793635253376982470000016888101326614379416_);" d="M361.5,46.8c2.2-10.9-1.8-23.7-4.2-34.5
		c-1.7,2-3.4,4.1-5.1,6.1c3.7,9.4,7.2,20.4,8,30.5C360.8,48.5,361.4,47.5,361.5,46.8z"/>
	
		<linearGradient id="SVGID_00000059998822063356197770000008555613454736026526_" gradientUnits="userSpaceOnUse" x1="-130.661" y1="63.2137" x2="367.4283" y2="8.02">
		<stop  offset="0" style="stop-color:#BFA150"/>
		<stop  offset="0.32" style="stop-color:#E9C562"/>
		<stop  offset="0.5477" style="stop-color:#F0D794"/>
		<stop  offset="1" style="stop-color:#E9C562"/>
	</linearGradient>
	<path style="fill:url(#SVGID_00000059998822063356197770000008555613454736026526_);" d="M215.3,41.4c2.2-10.9-1.8-23.7-4.2-34.5
		c-1.7,2-3.4,4.1-5.1,6.1c3.7,9.4,7.2,20.4,8,30.5C214.6,43.1,215.2,42.1,215.3,41.4z"/>
	
		<linearGradient id="SVGID_00000030483276332045103930000007950244410403242646_" gradientUnits="userSpaceOnUse" x1="19.2413" y1="102.0527" x2="517.3315" y2="46.8588">
		<stop  offset="0" style="stop-color:#BFA150"/>
		<stop  offset="0.32" style="stop-color:#E9C562"/>
		<stop  offset="0.5477" style="stop-color:#F0D794"/>
		<stop  offset="1" style="stop-color:#E9C562"/>
	</linearGradient>
	<path style="fill:url(#SVGID_00000030483276332045103930000007950244410403242646_);" d="M298.9,30c1.6,2.7,4.4,4.1,7.2,5.1
		c-1.3-7.5-3.2-17.9-7.3-24c-1.2-1.7-3.3-3.4-5-4.4c-1.1,5.8-4.2,11.4-3.3,17.3c1.9,13,4.3,26,6.4,38.9c1.3,8,2.7,15.9,3.7,24
		c0.8,6.1,2.1,12.7,0.5,18.8c-1.9,7.3-9.1,11.4-15,15.4c-7.8,5.3-15.7,10.6-23.5,15.9c-37.6,23.1-20.7-20.8-19-25
		c0.4-0.9,0.8-1.8,1.3-2.8c4.6,3.7,9.8,7.8,14.3,11.4c2-5.9-3.8-11-7.6-14.9c9.5-4.2,26.1-12.3,35.6-16.5c1.7-3.7,3.8-7.6,5.5-11.3
		c-17-1.9-33.9-4-50.9-5.9c-5.9-0.7-12.8-1-17,3.3c-4,4.3-3.4,11.5,0.1,16.2c0.6,0.8,1.1,1.5,1.8,2.3c2.8,3.4,6,6.2,9.9,8.2l0.9,0.8
		c-9.7,7.3-18.1,13.6-27.8,20.9c-4.8,3.6-9.6,7.4-14.6,10.9c-6.5,4.5-11.9,10.2-19.9,12c-3.2,0.7-6.9,0.8-9.9-0.7
		c-0.4-0.3-0.9-0.6-1.6-1c-0.6-0.5-1.2-1.1-1.8-1.7c-2.7-3.7-2.9-11.3-2.7-17.3c0.4-2.3,0.5-4,0.5-5.3c2.1-2,4-4.3,5.4-7
		c2.1-4,2.8-8.4,2.7-12.9c-0.8-23.5-1.5-44.3-8.2-70.9c1.6,2.7,4.4,4.1,7.2,5.1c-1.3-7.5-3.2-17.9-7.3-24c-1.2-1.7-3.3-3.4-5-4.4
		c-1.1,5.8-4.2,11.4-3.3,17.3c3.3,23.2,10.1,54,11.4,81.5c-0.3,0.7-0.6,1.3-0.9,1.9c-3.3,5.9-9.1,9.9-14.8,13.7
		c-7.8,5.3-15.7,10.6-23.5,15.9c-37.6,23.1-20.7-20.8-19-25c0.9-2,1.8-3.9,2.8-5.9c2.1-0.7,4.1-1.5,6.2-2.3
		c11.2-4.6,23.5-4.5,32.6-12.5c3.9-3.4,5.2-8,5-13.2c-10.5,0.7-21.2-1.4-30.7-5.9c-6-2.8-12.4-6.8-18.8-5.1
		c-6.5,1.7-10.4,8.6-11,15.3c0,0,0,0,0,0c2.3,2.1,4.7,4.2,7.6,5.2c2.9,1,6.5,0.2,8.5-2.2c-1-1.3-2-2.6-3-3.9
		c-0.1-0.2-0.3-0.3-0.5-0.5c0.6-0.9,1.3-1.6,2.2-2.1c1.9-1.1,4.3-1.2,6.5-0.9c2.2,0.4,4.3,1.2,6.4,1.9c5.2,1.7,13.4,4.3,18.8,4.8
		c-7.7,3.2-18.9,5.2-26.6,8.5c-5.2,2.2-11.3,4.4-16.4,1.9c-3.8-1.9-5.9-5.9-8.2-9.4c-2.3-3.5-5.6-7.1-9.8-7.1c-3.8,0-7,2.9-9,6.1
		c-5.6,9.3-4.6,21.4-2.1,31.9c-8.2,0.9-15.4,5.7-21.7,10.9c-6.3,5.3-12.2,11.2-19.5,15c-2.7,1.4-6,2.6-8.9,1.4
		c-2.5-1-4.1-3.6-4.5-6.2c-0.4-2.7,0.2-5.4,1-7.9c2.1-6.7,6.2-12.6,11.1-17.6c-0.4-0.9-0.8-2-1.8-2c-8.5,7.1-14.3,17.5-15.7,28.5
		c-0.7,5-0.3,10.7,3.3,14.3c2.3,2.3,5.5,3.4,8.8,3.6c7.2,0.3,13.8-3.8,19.1-8.6c5.3-4.8,9.9-10.5,15.8-14.5
		c6.8-4.6,14.6-6.7,22.2-2.9c5.4,2.7,10,5.1,13.2-1.9c1.4-3,3.5-6.1,3.8-9.3c-4.7-5.8-14.3-5.8-18.3-12.1
		c-2.7-4.3-1.2-10.6,3.1-13.2c2.2-1.4,5.3-1.7,7.4-0.2c2.5,1.8,2.9,5.2,4.4,7.8c2.4,4.1,7.5,6.1,12.3,5.9c1.4,0,2.8-0.2,4.1-0.5
		c-4.5,10.5-8,21.7-10.6,32.8c-0.7,3-1.3,6.1-1,9.2c0.4,3.1,1.9,6.2,4.6,7.7c4.8,2.7,10.6-0.4,15.2-3.4c12.5-8.2,25-16.5,37.4-24.7
		c2.4-1.6,4.8-3.2,7.1-5c-2.1,7.2-3.5,15.5-2.8,21.3c1.2,9.5,9.4,18.8,18.9,17.8c5.3-0.6,9.8-4.1,13.9-7.4
		c18.4-14.9,36.9-29.8,55.3-44.7c-3.8,9.5-6.8,19.4-9.1,29.3c-0.7,3-1.3,6.1-1,9.2c0.4,3.1,1.9,6.2,4.6,7.7
		c4.8,2.7,10.6-0.4,15.2-3.4c12.5-8.2,25-16.5,37.4-24.7c6.1-4.1,12.5-8.4,15.9-14.9c2.1-4,2.8-8.4,2.7-12.9
		C306.4,77.4,305.7,56.6,298.9,30z M229.9,84.2c0.4-1.7,2.6-1.9,4.3-1.8c12.2,0.7,24.6,2.1,36.7,4.2c-8.8,4-17.5,8-26.3,12.1
		c-4.3-3.6-8.6-7.4-12.9-11C230.8,86.7,229.6,85.5,229.9,84.2z"/>
	
		<linearGradient id="SVGID_00000081645753933351731170000010629623266178823318_" gradientUnits="userSpaceOnUse" x1="435.6998" y1="120.7412" x2="416.9028" y2="134.0969">
		<stop  offset="0" style="stop-color:#BFA150"/>
		<stop  offset="1" style="stop-color:#FFFFFF"/>
	</linearGradient>
	<path style="opacity:0.4;fill:url(#SVGID_00000081645753933351731170000010629623266178823318_);" d="M424.9,121.9
		c-3.8,0.1-7.4,0.9-10.9,2.2l3.8,10.3c1-0.5,2.1-1,3.2-1.4c4.8-1.9,10.4-2.2,15.5-0.9l0,0C430,129.4,424.9,121.9,424.9,121.9z"/>
	
		<linearGradient id="SVGID_00000173879249299176070130000014770554212165811133_" gradientUnits="userSpaceOnUse" x1="355.4029" y1="129.5657" x2="375.9312" y2="109.5321">
		<stop  offset="0" style="stop-color:#FFFFFF"/>
		<stop  offset="1" style="stop-color:#BFA150"/>
	</linearGradient>
	<path style="opacity:0.4;fill:url(#SVGID_00000173879249299176070130000014770554212165811133_);" d="M372.2,121.5
		c-2.3-5-3.8-10.6-4.6-14.6c0.3,2.3,0.4,4.7,0,7c-0.6,3.1-2.3,6.2-5,7.8c-1.9,1.1-4,1.4-6.1,1l-0.5,4.8l1.6,6.4
		c1.9-0.3,3.8-0.9,5.5-1.9C367.2,129.7,370.2,125.8,372.2,121.5z"/>
	
		<linearGradient id="SVGID_00000148650299271604923620000009374887106710927776_" gradientUnits="userSpaceOnUse" x1="254.182" y1="98.9043" x2="246.6948" y2="103.6788">
		<stop  offset="0" style="stop-color:#FFFFFF"/>
		<stop  offset="1" style="stop-color:#BFA150"/>
	</linearGradient>
	<path style="opacity:0.4;fill:url(#SVGID_00000148650299271604923620000009374887106710927776_);" d="M244.7,98.5
		c0,0,4.8,5.3,6.7,7.2c2.1-0.9,4.5-2,7.1-3.2l-6.2-7.5C249.8,96.2,247.2,97.4,244.7,98.5z"/>
	
		<linearGradient id="SVGID_00000172440657761019448280000008774019506789037479_" gradientUnits="userSpaceOnUse" x1="231.374" y1="113.0626" x2="241.8779" y2="104.6169">
		<stop  offset="0" style="stop-color:#FFFFFF"/>
		<stop  offset="1" style="stop-color:#BFA150"/>
	</linearGradient>
	<path style="opacity:0.4;fill:url(#SVGID_00000172440657761019448280000008774019506789037479_);" d="M237.3,102.9
		c-2.7,2-5.3,4-7.8,5.9l4.3,8c2.5-2,5.1-4.1,7.6-6.1l1.5-1.9L237.3,102.9z"/>
	
		<linearGradient id="SVGID_00000080926769530291624930000017483030780023329420_" gradientUnits="userSpaceOnUse" x1="156.6407" y1="142.6122" x2="156.8387" y2="122.616">
		<stop  offset="0" style="stop-color:#FFFFFF"/>
		<stop  offset="1" style="stop-color:#BFA150"/>
	</linearGradient>
	<path style="opacity:0.4;fill:url(#SVGID_00000080926769530291624930000017483030780023329420_);" d="M159.1,126.1
		c0.4-2.3,0.5-4,0.5-5.3l-3.5,3c-2,6.9-3.4,14.7-2.9,20.4l7-4.2C159,136,158.9,130.6,159.1,126.1z"/>
	
		<linearGradient id="SVGID_00000030486207053298919150000009925757117036543879_" gradientUnits="userSpaceOnUse" x1="51.8371" y1="131.0869" x2="68.6656" y2="124.1575">
		<stop  offset="0" style="stop-color:#FFFFFF"/>
		<stop  offset="1" style="stop-color:#BFA150"/>
	</linearGradient>
	<path style="opacity:0.4;fill:url(#SVGID_00000030486207053298919150000009925757117036543879_);" d="M64.3,116.7
		c-6.1,0.6-11.6,3.4-16.6,7l3.8,9.7c6.7-4.4,14.4-6.4,21.8-2.7c0.7,0.4,1.5,0.7,2.2,1.1C66.5,127.4,64.3,116.7,64.3,116.7z"/>
</g>
</svg>
