<?xml version="1.0" encoding="UTF-8"?>
<svg xmlns="http://www.w3.org/2000/svg" viewBox="0 0 81.06 99.12">
  <defs>
    <style>
      .cls-1 {
        fill: #66867c;
      }

      .cls-2 {
        fill: #ecd5a7;
      }

      .cls-3 {
        fill: #ffebba;
      }

      .cls-4 {
        fill: #feefea;
      }

      .cls-5 {
        fill: #a7c0ba;
      }

      .cls-6 {
        fill: #88a49c;
      }

      .cls-7 {
        fill: #e4cfe5;
        mix-blend-mode: multiply;
      }

      .cls-8 {
        isolation: isolate;
      }

      .cls-9 {
        fill: #fff;
        mix-blend-mode: overlay;
        opacity: .15;
      }
    </style>
  </defs>
  <g class="cls-8">
    <g id="Layer_2" data-name="Layer 2">
      <g id="Layer_1-2" data-name="Layer 1">
        <g>
          <polygon class="cls-1" points="0 30.6 32.95 0 35.36 3.42 49.78 20.49 22.24 38.84 5.39 36.71 .99 32.71 0 30.6"/>
          <g>
            <path class="cls-3" d="M1.32,32.88L36.29,1.91s7.54,14.11,28.28,5.11L31.32,32.89l-13.8,4.87-10.04-.18-4.82-2.74-1.34-1.96Z"/>
            <g>
              <path class="cls-2" d="M44.85,8.83c-11.36,9.42-22.69,19.09-33.74,28.82l.85,.02c.32-.21,.64-.43,.97-.65,10.74-9.42,21.71-18.78,32.72-27.91-.27-.09-.54-.18-.79-.28Z"/>
              <path class="cls-2" d="M41.68,7.27L6.83,37.2l.66,.38h0S42.33,7.66,42.33,7.66c-.22-.13-.44-.25-.66-.39Z"/>
              <path class="cls-2" d="M13.22,37.68c13.08-8.73,25.97-18.02,38.38-27.67-.38,0-.76-.02-1.13-.04-12.15,9.42-24.76,18.5-37.55,27.03-.25,.22-.5,.43-.75,.65l1.04,.02Z"/>
              <path class="cls-2" d="M2.66,34.83l.19,.11c5.1-6.12,11.52-11.15,17.74-16.02,5.92-4.63,12.02-9.41,17.02-15.16-.17-.2-.33-.39-.46-.57-4.97,5.74-11.07,10.52-17,15.16-6.22,4.87-12.65,9.9-17.78,16.04l.3,.43Z"/>
              <path class="cls-2" d="M56.78,9.5c-.5,.1-.98,.18-1.46,.25-12.62,10.15-25.98,19.55-39.8,27.97l1.33,.02c13.87-8.51,27.28-18,39.93-28.25Z"/>
              <path class="cls-2" d="M39.73,5.87c-.19-.16-.37-.32-.55-.48L4.77,36.03l.66,.38L39.73,5.87Z"/>
            </g>
          </g>
          <path class="cls-6" d="M24.18,34.16S7.24,43.01,0,30.6c0,0,12.27,25.87,16.06,36.97,3.79,11.1,10.14,28.32,10.14,28.32,0,0,12.09,8.36,20.12-1.81L24.18,34.16Z"/>
          <path class="cls-5" d="M65.77,5.08c-13.02,10.61-27.01,20.74-41.59,29.08l22.14,59.92c12.26-9.6,23.45-20.51,34.73-27.18-6.03-20.36-11.13-40.99-15.29-61.81Z"/>
          <path class="cls-4" d="M60.34,20.69l-22.65,15.66c2.91,6.8,6.63,15.77,6.63,15.77,9.57-10.28,21.2-15.77,21.2-15.77-2.49-4.88-5.17-15.66-5.17-15.66Z"/>
          <path class="cls-4" d="M12.15,37.21c4.89,10.87,8.15,22.66,11.98,33.93,3.13,9.22,6.24,18.46,9.34,27.69,.76,.14,1.55,.24,2.37,.27-3.34-9.97-6.7-19.93-10.09-29.89-3.63-10.68-6.76-21.79-11.31-32.15-.75,.08-1.52,.13-2.29,.14Z"/>
          <path class="cls-9" d="M34.42,27.96c.57,.4,1.06,.73,1.4,.96,11.34,7.91,24.8,12.72,38.57,13.9-3.22-12.5-6.1-25.08-8.63-37.73-9.94,8.1-20.45,15.91-31.35,22.87Z"/>
          <path class="cls-7" d="M46.32,94.08l-3.22-8.72c-6.89,1.64-14.37,.73-20.66-2.55-.43-.22-.84-.46-1.25-.71,2.68,7.45,5.01,13.78,5.01,13.78,0,0,12.09,8.36,20.12-1.81Z"/>
        </g>
      </g>
    </g>
  </g>
</svg>