<svg width="1187" height="631" viewBox="0 0 1187 631" fill="none" xmlns="http://www.w3.org/2000/svg">
<path d="M265.61 615.6H917.8L920.58 615.56C968.19 614.07 1007.68 574.17 1012.43 522.73L1012.75 519.14L1016.36 519.17H1016.82C1040.86 519.18 1064.27 503.48 1082.73 474.96C1101.39 446.11 1113.72 406.28 1117.45 362.8L1117.54 361.7L1125.03 351.54C1129.19 345.89 1135.73 338.48 1144.42 333.04C1137.2 328.57 1132.08 323.47 1125.05 315.43L1117.75 304.25L1117.14 302.55C1113.03 259.84 1100.57 220.82 1082.05 192.68C1063.72 164.84 1040.56 149.49 1016.83 149.49L1012.76 149.53L1012.44 145.95C1007.69 94.5101 968.2 54.6001 920.59 53.1201L265.62 53.0801L263.19 53.2101C240.52 54.4301 218.95 64.4801 202.46 81.5101C185.95 98.5601 175.62 121.44 173.35 145.95L173.03 149.53L169.43 149.5H168.96C144.92 149.49 121.51 165.21 103.05 193.72C84.3901 222.56 72.0601 262.4 68.3301 305.88L68.2401 306.98L60.7501 317.14C56.5901 322.78 50.0501 330.2 41.3401 335.64C47.4801 339.43 52.0801 343.68 57.6401 349.78C59.5701 351.9 61.3401 354.18 62.9201 356.6L68.0301 364.42L68.6401 366.12C72.7401 408.83 85.2101 447.85 103.73 475.99C122.06 503.83 145.22 519.17 168.95 519.17L173.02 519.13L173.34 522.72C175.61 547.22 185.94 570.12 202.45 587.16C218.94 604.2 240.51 614.24 263.18 615.46L265.61 615.59V615.6Z" stroke="url(#paint0_linear_271_415)" stroke-width="7.26" stroke-miterlimit="10"/>
<g opacity="0.8">
<path style="mix-blend-mode:color-dodge" d="M172.88 158C268.359 158 345.76 153.944 345.76 148.94C345.76 143.936 268.359 139.88 172.88 139.88C77.401 139.88 0 143.936 0 148.94C0 153.944 77.401 158 172.88 158Z" fill="url(#paint1_radial_271_415)"/>
<path style="mix-blend-mode:color-dodge" d="M172.88 297.88C177.884 297.88 181.94 231.197 181.94 148.94C181.94 66.6827 177.884 0 172.88 0C167.876 0 163.82 66.6827 163.82 148.94C163.82 231.197 167.876 297.88 172.88 297.88Z" fill="url(#paint2_radial_271_415)"/>
<path style="mix-blend-mode:color-dodge" d="M161.37 160.45C103.21 102.29 61.2099 49.9802 67.5699 43.6202C73.9299 37.2602 126.23 79.2602 184.4 137.42C242.56 195.58 284.56 247.89 278.2 254.25C271.84 260.61 219.54 218.61 161.37 160.45Z" fill="url(#paint3_radial_271_415)"/>
<path style="mix-blend-mode:color-dodge" d="M161.37 137.42C214.45 84.34 262.63 46.47 268.99 52.82C275.35 59.18 237.47 107.36 184.39 160.44C131.31 213.52 83.1299 251.39 76.7699 245.04C70.4099 238.68 108.29 190.5 161.37 137.42Z" fill="url(#paint4_radial_271_415)"/>
</g>
<g opacity="0.8">
<path style="mix-blend-mode:color-dodge" d="M1114.71 630.2C1117.12 630.2 1119.08 517.765 1119.08 379.07C1119.08 240.375 1117.12 127.94 1114.71 127.94C1112.3 127.94 1110.34 240.375 1110.34 379.07C1110.34 517.765 1112.3 630.2 1114.71 630.2Z" fill="url(#paint5_radial_271_415)"/>
<path style="mix-blend-mode:color-dodge" d="M1114.71 392.24C1154.4 392.24 1186.58 386.344 1186.58 379.07C1186.58 371.796 1154.4 365.9 1114.71 365.9C1075.02 365.9 1042.84 371.796 1042.84 379.07C1042.84 386.344 1075.02 392.24 1114.71 392.24Z" fill="url(#paint6_radial_271_415)"/>
<path style="mix-blend-mode:color-dodge" d="M1124.69 382.326C1152.38 297.353 1170.36 227.013 1164.84 225.216C1159.33 223.419 1132.41 290.847 1104.72 375.819C1077.03 460.792 1059.05 531.132 1064.56 532.929C1070.08 534.725 1097 467.298 1124.69 382.326Z" fill="url(#paint7_radial_271_415)"/>
<path style="mix-blend-mode:color-dodge" d="M1160.33 519.736C1165.84 517.946 1149.89 453.558 1124.69 375.922C1099.5 298.286 1074.6 236.801 1069.08 238.591C1063.57 240.381 1079.52 304.769 1104.72 382.405C1129.91 460.041 1154.81 521.526 1160.33 519.736Z" fill="url(#paint8_radial_271_415)"/>
</g>
<defs>
<linearGradient id="paint0_linear_271_415" x1="592.88" y1="49.4501" x2="592.88" y2="619.23" gradientUnits="userSpaceOnUse">
<stop stop-color="#9E7E5A"/>
<stop offset="0.08" stop-color="#CCAC7C"/>
<stop offset="0.14" stop-color="#D6BA8B"/>
<stop offset="0.26" stop-color="#E5CFA0"/>
<stop offset="0.38" stop-color="#EEDBAD"/>
<stop offset="0.49" stop-color="#F1E0B2"/>
<stop offset="0.59" stop-color="#EEDBAD"/>
<stop offset="0.69" stop-color="#E5CFA1"/>
<stop offset="0.8" stop-color="#D7BB8C"/>
<stop offset="0.86" stop-color="#CCAC7C"/>
<stop offset="1" stop-color="#9E7E5A"/>
</linearGradient>
<radialGradient id="paint1_radial_271_415" cx="0" cy="0" r="1" gradientUnits="userSpaceOnUse" gradientTransform="translate(172.88 7.37591) rotate(90) scale(8.6465 172.93)">
<stop stop-color="#FFD37A"/>
<stop offset="0.08" stop-color="#FFDB94" stop-opacity="0.8"/>
<stop offset="0.17" stop-color="#FFE3AD" stop-opacity="0.62"/>
<stop offset="0.26" stop-color="#FFEBC3" stop-opacity="0.45"/>
<stop offset="0.36" stop-color="#FFF1D5" stop-opacity="0.31"/>
<stop offset="0.46" stop-color="#FFF6E4" stop-opacity="0.2"/>
<stop offset="0.57" stop-color="#FFFAF0" stop-opacity="0.11"/>
<stop offset="0.68" stop-color="#FFFCF8" stop-opacity="0.05"/>
<stop offset="0.82" stop-color="#FFFEFD" stop-opacity="0.01"/>
<stop offset="1" stop-color="white" stop-opacity="0"/>
</radialGradient>
<radialGradient id="paint2_radial_271_415" cx="0" cy="0" r="1" gradientUnits="userSpaceOnUse" gradientTransform="translate(167.964 143.854) rotate(180) scale(8.6465 148.72)">
<stop stop-color="#FFD37A"/>
<stop offset="0.08" stop-color="#FFDB94" stop-opacity="0.8"/>
<stop offset="0.17" stop-color="#FFE3AD" stop-opacity="0.62"/>
<stop offset="0.26" stop-color="#FFEBC3" stop-opacity="0.45"/>
<stop offset="0.36" stop-color="#FFF1D5" stop-opacity="0.31"/>
<stop offset="0.46" stop-color="#FFF6E4" stop-opacity="0.2"/>
<stop offset="0.57" stop-color="#FFFAF0" stop-opacity="0.11"/>
<stop offset="0.68" stop-color="#FFFCF8" stop-opacity="0.05"/>
<stop offset="0.82" stop-color="#FFFEFD" stop-opacity="0.01"/>
<stop offset="1" stop-color="white" stop-opacity="0"/>
</radialGradient>
<radialGradient id="paint3_radial_271_415" cx="0" cy="0" r="1" gradientUnits="userSpaceOnUse" gradientTransform="translate(236.163 80.5302) rotate(135) scale(15.5583 148.668)">
<stop stop-color="#FFD37A"/>
<stop offset="0.08" stop-color="#FFDB94" stop-opacity="0.8"/>
<stop offset="0.17" stop-color="#FFE3AD" stop-opacity="0.62"/>
<stop offset="0.26" stop-color="#FFEBC3" stop-opacity="0.45"/>
<stop offset="0.36" stop-color="#FFF1D5" stop-opacity="0.31"/>
<stop offset="0.46" stop-color="#FFF6E4" stop-opacity="0.2"/>
<stop offset="0.57" stop-color="#FFFAF0" stop-opacity="0.11"/>
<stop offset="0.68" stop-color="#FFFCF8" stop-opacity="0.05"/>
<stop offset="0.82" stop-color="#FFFEFD" stop-opacity="0.01"/>
<stop offset="1" stop-color="white" stop-opacity="0"/>
</radialGradient>
<radialGradient id="paint4_radial_271_415" cx="0" cy="0" r="1" gradientUnits="userSpaceOnUse" gradientTransform="translate(92.4798 81.7141) rotate(-135) scale(15.5592 136.575)">
<stop stop-color="#FFD37A"/>
<stop offset="0.08" stop-color="#FFDB94" stop-opacity="0.8"/>
<stop offset="0.17" stop-color="#FFE3AD" stop-opacity="0.62"/>
<stop offset="0.26" stop-color="#FFEBC3" stop-opacity="0.45"/>
<stop offset="0.36" stop-color="#FFF1D5" stop-opacity="0.31"/>
<stop offset="0.46" stop-color="#FFF6E4" stop-opacity="0.2"/>
<stop offset="0.57" stop-color="#FFFAF0" stop-opacity="0.11"/>
<stop offset="0.68" stop-color="#FFFCF8" stop-opacity="0.05"/>
<stop offset="0.82" stop-color="#FFFEFD" stop-opacity="0.01"/>
<stop offset="1" stop-color="white" stop-opacity="0"/>
</radialGradient>
<radialGradient id="paint5_radial_271_415" cx="0" cy="0" r="1" gradientUnits="userSpaceOnUse" gradientTransform="translate(842.125 379.362) scale(4.068 251.199)">
<stop stop-color="#FFD37A"/>
<stop offset="0.08" stop-color="#FFDB94" stop-opacity="0.8"/>
<stop offset="0.17" stop-color="#FFE3AD" stop-opacity="0.62"/>
<stop offset="0.26" stop-color="#FFEBC3" stop-opacity="0.45"/>
<stop offset="0.36" stop-color="#FFF1D5" stop-opacity="0.31"/>
<stop offset="0.46" stop-color="#FFF6E4" stop-opacity="0.2"/>
<stop offset="0.57" stop-color="#FFFAF0" stop-opacity="0.11"/>
<stop offset="0.68" stop-color="#FFFCF8" stop-opacity="0.05"/>
<stop offset="0.82" stop-color="#FFFEFD" stop-opacity="0.01"/>
<stop offset="1" stop-color="white" stop-opacity="0"/>
</radialGradient>
<radialGradient id="paint6_radial_271_415" cx="0" cy="0" r="1" gradientUnits="userSpaceOnUse" gradientTransform="translate(1131.76 382.192) rotate(90) scale(13.2184 72.1928)">
<stop stop-color="#FFD37A"/>
<stop offset="0.08" stop-color="#FFDB94" stop-opacity="0.8"/>
<stop offset="0.17" stop-color="#FFE3AD" stop-opacity="0.62"/>
<stop offset="0.26" stop-color="#FFEBC3" stop-opacity="0.45"/>
<stop offset="0.36" stop-color="#FFF1D5" stop-opacity="0.31"/>
<stop offset="0.46" stop-color="#FFF6E4" stop-opacity="0.2"/>
<stop offset="0.57" stop-color="#FFFAF0" stop-opacity="0.11"/>
<stop offset="0.68" stop-color="#FFFCF8" stop-opacity="0.05"/>
<stop offset="0.82" stop-color="#FFFEFD" stop-opacity="0.01"/>
<stop offset="1" stop-color="white" stop-opacity="0"/>
</radialGradient>
<radialGradient id="paint7_radial_271_415" cx="0" cy="0" r="1" gradientUnits="userSpaceOnUse" gradientTransform="translate(2430.51 4325.07) rotate(71.64) scale(17.289 96.615)">
<stop stop-color="#FFD37A"/>
<stop offset="0.08" stop-color="#FFDB94" stop-opacity="0.8"/>
<stop offset="0.17" stop-color="#FFE3AD" stop-opacity="0.62"/>
<stop offset="0.26" stop-color="#FFEBC3" stop-opacity="0.45"/>
<stop offset="0.36" stop-color="#FFF1D5" stop-opacity="0.31"/>
<stop offset="0.46" stop-color="#FFF6E4" stop-opacity="0.2"/>
<stop offset="0.57" stop-color="#FFFAF0" stop-opacity="0.11"/>
<stop offset="0.68" stop-color="#FFFCF8" stop-opacity="0.05"/>
<stop offset="0.82" stop-color="#FFFEFD" stop-opacity="0.01"/>
<stop offset="1" stop-color="white" stop-opacity="0"/>
</radialGradient>
<radialGradient id="paint8_radial_271_415" cx="0" cy="0" r="1" gradientUnits="userSpaceOnUse" gradientTransform="translate(2677.86 -4263.86) rotate(108.37) scale(17.289 88.479)">
<stop stop-color="#FFD37A"/>
<stop offset="0.08" stop-color="#FFDB94" stop-opacity="0.8"/>
<stop offset="0.17" stop-color="#FFE3AD" stop-opacity="0.62"/>
<stop offset="0.26" stop-color="#FFEBC3" stop-opacity="0.45"/>
<stop offset="0.36" stop-color="#FFF1D5" stop-opacity="0.31"/>
<stop offset="0.46" stop-color="#FFF6E4" stop-opacity="0.2"/>
<stop offset="0.57" stop-color="#FFFAF0" stop-opacity="0.11"/>
<stop offset="0.68" stop-color="#FFFCF8" stop-opacity="0.05"/>
<stop offset="0.82" stop-color="#FFFEFD" stop-opacity="0.01"/>
<stop offset="1" stop-color="white" stop-opacity="0"/>
</radialGradient>
</defs>
</svg>
