<svg id="Layer_1" enable-background="new 0 0 72 72" height="512" viewBox="0 0 72 72" width="512" xmlns="http://www.w3.org/2000/svg"><g><path d="m67.91 53.26-3.22-6.86 1.5-8.79c.01-.09.01-.17 0-.26-.02-.09-1.7-9.95-2.09-13.29-.28-2.44-1.25-3.5-2.02-3.97-.84-.51-1.88-.57-2.92-.17-1.08.41-1.54 1.51-1.72 2.56-2.26-2.99-6.8-8.58-9.39-9.01-1.27-.21-2.25 0-2.93.63-.31.3-.51.64-.63.97-.72-.44-1.59-.52-2.34-.22-1.19.48-1.92 1.21-2.16 2.16-.26.98.07 1.93.41 2.59-.96.46-1.6 1.13-1.9 2-.47 1.36.05 2.83.49 3.72-.77.44-1.57 1.36-1.74 3.07-.26 2.63 4.23 8.97 5.32 10.47-.13 1.18-.39 5.33 2.05 8.13 2.3 2.64 6.06 4.94 7.2 5.6l.77 5.36c.03.22.16.41.34.53.12.08.26.12.4.12.08 0 .15-.02.22-.04l13.9-4.26c.21-.07.38-.22.46-.42.09-.2.09-.42 0-.62zm-21.33-19.54c-.14.11-.31.17-.47.17-.22 0-.43-.09-.58-.28l-6.03-7.41c-.26-.32-.21-.79.11-1.05s.79-.21 1.06.11l6.02 7.41c.26.32.21.79-.11 1.05zm2.99-4.28c-.14.12-.31.18-.49.18-.21 0-.42-.09-.57-.26l-7.56-8.89c-.27-.32-.23-.79.09-1.06s.79-.23 1.06.08l7.56 8.89c.27.31.23.79-.09 1.06zm3.63-2.11-8.73-10.54c-.26-.32-.22-.79.1-1.06.32-.26.79-.22 1.06.1l8.73 10.54c.26.32.22.79-.1 1.06-.14.12-.31.17-.48.17-.21 0-.43-.09-.58-.27zm5.68 5.81c0 .25-.12.48-.33.62-.03.02-3.25 2.23-3.25 5.22 0 .41-.34.75-.75.75s-.75-.34-.75-.75c0-3.18 2.63-5.49 3.58-6.22v-8.08c0-.41.34-.75.75-.75s.75.34.75.75z"/><path d="m4.09 53.88c.08.2.25.35.46.42l13.9 4.26c.07.02.14.04.22.04.14 0 .28-.04.4-.12.18-.12.31-.31.34-.53l.77-5.36c1.14-.66 4.9-2.96 7.2-5.6 2.44-2.8 2.18-6.95 2.05-8.13 1.09-1.5 5.58-7.84 5.32-10.47-.17-1.71-.97-2.63-1.74-3.07.44-.89.96-2.36.49-3.72-.3-.87-.94-1.54-1.9-2 .34-.66.67-1.61.41-2.59-.24-.95-.97-1.68-2.16-2.16-.75-.3-1.62-.22-2.34.22-.12-.33-.32-.67-.63-.97-.68-.63-1.66-.84-2.93-.63-2.59.43-7.13 6.02-9.39 9.01-.18-1.05-.64-2.15-1.72-2.56-1.04-.4-2.08-.34-2.92.17-.77.47-1.74 1.53-2.02 3.97-.39 3.34-2.07 13.2-2.09 13.29-.01.09-.01.17 0 .26l1.5 8.79-3.22 6.86c-.09.2-.09.42 0 .62zm21.22-21.22 6.02-7.41c.26-.32.73-.37 1.06-.11.32.26.37.73.11 1.05l-6.02 7.41c-.15.18-.36.28-.58.28-.17 0-.33-.05-.47-.17-.33-.25-.38-.72-.12-1.05zm-2.97-4.28 7.56-8.89c.27-.31.74-.35 1.06-.08s.35.74.09 1.06l-7.56 8.89c-.15.17-.36.26-.57.26-.17 0-.34-.06-.49-.18-.32-.27-.36-.75-.09-1.06zm-4.12-.78c-.17 0-.34-.06-.48-.17-.32-.26-.36-.74-.1-1.06l8.73-10.54c.26-.32.74-.36 1.06-.1s.36.74.1 1.06l-8.73 10.54c-.15.18-.37.27-.58.27zm-5.1-2.93c0-.41.34-.75.75-.75s.75.34.75.75v8.08c.95.73 3.58 3.04 3.58 6.22 0 .41-.34.75-.75.75s-.75-.34-.75-.75c0-2.99-3.22-5.2-3.25-5.22-.21-.14-.33-.37-.33-.62z"/></g></svg>