<svg clip-rule="evenodd" fill-rule="evenodd" height="512" stroke-linejoin="round" stroke-miterlimit="2" viewBox="0 0 32 32" width="512" xmlns="http://www.w3.org/2000/svg"><g transform="translate(-148 -74)"><g id="Solid"><path d="m155.564 98.367c-.368.063-.671.326-.785.682-.113.357-.019.747.246 1.011 5.253 5.253 13.782 5.253 19.035 0s5.253-13.782 0-19.035c-.264-.265-.654-.359-1.011-.246-.356.114-.619.417-.682.785-.569 3.351-2.538 7.564-5.888 10.915-3.351 3.35-7.564 5.319-10.915 5.888zm2.347-2.577c2.451-1.004 5.017-2.607 7.213-4.802 2.076-2.076 3.621-4.483 4.632-6.811-3.279-1.532-7.306-.945-10.011 1.761-2.662 2.662-3.273 6.602-1.834 9.852zm-6.906-3.532h3.39c.552 0 1-.448 1-1s-.448-1-1-1h-3.39c-.552 0-1 .448-1 1s.448 1 1 1zm3.454-10.337 2.397 2.396c.39.391 1.024.391 1.414 0 .39-.39.39-1.024 0-1.414l-2.397-2.397c-.39-.39-1.024-.39-1.414 0-.39.391-.39 1.024 0 1.415zm9.752-4.868v3.389c0 .552.448 1 1 1s1-.448 1-1v-3.389c0-.552-.448-1-1-1s-1 .448-1 1z"/></g></g></svg>