<svg id="Glyph" height="512" viewBox="0 0 64 64" width="512" xmlns="http://www.w3.org/2000/svg"><path d="m11.97488 51.515a.37081.37081 0 0 0 .26326.12065c.85567 0 1.02017-.03288 2.0623-1.23958a3.54957 3.54957 0 0 1 2.98378-1.20663l1.064.09875a3.26687 3.26687 0 0 1 1.59061-2.66568h-5.1228l-2.80823 3.12639a1.281 1.281 0 0 0 -.03292 1.7661z"/><path d="m56.30324 46.62248h-12.70287c-.01 3.68391-.9986 6.91249-4.31091 7.20722l-17.66131-.00016a3.27146 3.27146 0 0 1 -3.1373-2.32555c-.719-.01737-2.02048-.40275-2.53391.32909-1.34208 1.77379-3.5508 2.79814-5.44116 1.31642a3.47918 3.47918 0 0 1 -.14238-4.85961l1.50279-1.66741h-3.40062l-4.47557 10.30052h56z"/><path d="m15.4742 44.42855c2.67536-.00031 11.59063.00023 14.41413 0a1.09318 1.09318 0 0 1 1.097 1.097c.00118.68114-.62151 1.10606-1.1957 1.29452l-8.35888 1.54664a1.07028 1.07028 0 0 0 -.88854 1.05311v1.17376a1.07987 1.07987 0 0 0 1.086 1.04207h17.6611a1.05964 1.05964 0 0 0 .70208-.25228c1.75468-1.65135 1.541-4.872 1.15185-7.18509a1.12284 1.12284 0 0 0 -.59246-.78986 38.85629 38.85629 0 0 0 -5.408-2.139c-2.74241-.85566-5.35319-1.448-6.70244-1.73322a3.23735 3.23735 0 0 1 -1.9855-1.30539l-4.322-6.07716a1.09735 1.09735 0 0 1 1.78806-1.27251l4.322 6.07722a1.00845 1.00845 0 0 0 .64717.42776c1.22866.26333 3.46644.76789 5.93461 1.50291l1.05311-2.98378-5.02411-2.34752a1.13793 1.13793 0 0 1 -.57044-.62528l-4.35494-12.09954a20.21044 20.21044 0 0 1 -3.1922-2.23778 11.54363 11.54363 0 0 1 -1.86485-2.00746c-1.53571.28522-3.66383.98723-4.695 2.77528-.81174 1.41513-3.15926 11.63884-2.885 19.81117a7.9604 7.9604 0 0 0 2.18295 5.25443z"/><path d="m31.64344 10.324a3.25364 3.25364 0 0 0 -3.247-3.247h-3.15923a3.24665 3.24665 0 0 0 -3.247 3.247v2.08426h9.65327z"/><path d="m27.26656 19.06682c2.10869.63582 3.21923-2.48619 4.015-4.46452l-9.05005-.00013c.76785 1.6893 3.30183 3.53219 5.03505 4.46465z"/><path d="m39.82682 38.16493a3.10718 3.10718 0 0 0 -1.95268-1.32727l-.95431 2.70946c1.097.37293 2.19393.78978 3.2141 1.25055a4.36264 4.36264 0 0 0 -.30711-2.63274z"/></svg>