<svg xmlns="http://www.w3.org/2000/svg" version="1.1" xmlns:xlink="http://www.w3.org/1999/xlink" xmlns:svgjs="http://svgjs.com/svgjs" width="512" height="512" x="0" y="0" viewBox="0 0 64 64" style="enable-background:new 0 0 512 512" xml:space="preserve" class=""><g><defs><linearGradient id="a" x1="7" x2="57" y1="31.99" y2="31.99" gradientUnits="userSpaceOnUse"><stop stop-opacity="1" stop-color="#269da1" offset="0"></stop><stop stop-opacity="1" stop-color="#005a5c" offset="1"></stop></linearGradient></defs><path d="M55.755 12.341c-1.502-1.08-3.22-.27-4.755.276 0-.892.269-2.135-.72-2.578a6.49 6.49 0 0 0-1.746-.369 18.127 18.127 0 0 0-9.15 1.379 26.859 26.859 0 0 0-6.48 3.883c-.145.115-.737.745-.904.745s-.76-.63-.904-.745a54.627 54.627 0 0 0-4.88-3.154 19.274 19.274 0 0 0-9.94-2.19 8.763 8.763 0 0 0-2.46.421C12.73 10.43 13 11.661 13 12.617a19.127 19.127 0 0 0-2.361-.774A3.03 3.03 0 0 0 7 14.775v24.784a2.997 2.997 0 0 0 2.05 2.846l2.52.84A2.978 2.978 0 0 0 11 45v6.439a3.03 3.03 0 0 0 3.728 2.91l17.029-4.258a1 1 0 0 1 .486 0l17.03 4.258A3.032 3.032 0 0 0 53 51.44V45a2.978 2.978 0 0 0-.57-1.756l2.52-.84A2.997 2.997 0 0 0 57 39.56V14.775a2.97 2.97 0 0 0-1.245-2.434ZM15 37.56v-1.436c5.59.11 11.653 1.54 16 5.215v2.275l-10.21-3.404-3.019-1.006c-.783-.261-2.771-.539-2.771-1.644Zm28.21 2.65L33 43.612v-2.274c4.346-3.674 10.411-5.106 16-5.215 0 .61.186 1.628-.266 2.115a3.869 3.869 0 0 1-1.552.647ZM49 11.769v22.348c-2.717.035-10.146.539-16 4.692V17.45c7.64-6.69 13.977-6.107 16-5.681ZM31 17.45v21.359c-5.855-4.155-13.283-4.66-16-4.693V13.804c0-.383-.222-1.662 0-1.976.344-.489 2.567-.28 3.123-.252 4.842.249 9.296 2.74 12.877 5.873ZM9 39.559V14.775c0-1.225 1.211-.984 1.95-.738.72.24 2.05.419 2.05 1.404V37.56c0 .614-.191 1.627.267 2.121a4.407 4.407 0 0 0 1.784.725L31 45.72v1.892l-16.682-5.561c-.907-.26-1.798-.6-2.692-.897-.77-.257-2.626-.511-2.626-1.596Zm5.243 12.85a1.014 1.014 0 0 1-1.243-.97V45a.991.991 0 0 1 .898-.98l14.527 4.843ZM51 45v6.439a1.014 1.014 0 0 1-1.243.97l-14.182-3.547L50.1 44.02A.991.991 0 0 1 51 45Zm4-5.441c0 1.085-1.855 1.339-2.626 1.596-.894.298-1.785.638-2.692.897L33 47.612v-1.891l15.95-5.316a4.38 4.38 0 0 0 1.783-.725c.458-.493.267-1.51.267-2.121V15.44c0-.949 1.176-1.112 1.87-1.344.764-.254 2.13-.646 2.13.678Z" style="fill:url(#a)" fill=""></path></g></svg>