<svg height="512" viewBox="0 0 512 512" width="512" xmlns="http://www.w3.org/2000/svg"><g id="_18_Rub_El_Hizb" data-name="18 Rub El Hizb"><path d="m490.73 231.21-41-41a35.07 35.07 0 0 1 -10.27-24.8v-57.86a35.06 35.06 0 0 0 -35.06-35.06h-57.86a35.07 35.07 0 0 1 -24.8-10.27l-40.95-40.95a35.06 35.06 0 0 0 -49.58 0l-41 41a35.07 35.07 0 0 1 -24.8 10.27h-57.86a35.06 35.06 0 0 0 -35.06 35.06v57.91a35.07 35.07 0 0 1 -10.27 24.8l-40.95 41a35.06 35.06 0 0 0 0 49.58l41 40.95a35.07 35.07 0 0 1 10.27 24.8v57.91a35.06 35.06 0 0 0 35.06 35.06h57.91a35.07 35.07 0 0 1 24.8 10.27l41 41a35.06 35.06 0 0 0 49.58 0l40.95-41a35.07 35.07 0 0 1 24.8-10.27h57.91a35.06 35.06 0 0 0 35.06-35.06v-58.01a35.07 35.07 0 0 1 10.27-24.8l41-40.95a35.06 35.06 0 0 0 -.15-49.58zm-59.92 49.58-23.4 23.4a35.06 35.06 0 0 0 -10.27 24.81v33.1a35.06 35.06 0 0 1 -35.06 35.06h-33.08a35.07 35.07 0 0 0 -24.8 10.27l-23.4 23.4a35.06 35.06 0 0 1 -49.58 0l-23.4-23.4a35.07 35.07 0 0 0 -24.82-10.29h-33.08a35.06 35.06 0 0 1 -35.06-35.06v-33.08a35.07 35.07 0 0 0 -10.27-24.8l-23.4-23.4a35.06 35.06 0 0 1 0-49.58l23.4-23.4a35.06 35.06 0 0 0 10.27-24.82v-33.1a35.06 35.06 0 0 1 35.06-35.06h33.08a35.07 35.07 0 0 0 24.8-10.27l23.4-23.4a35.06 35.06 0 0 1 49.58 0l23.4 23.4a35.07 35.07 0 0 0 24.82 10.29h33.09a35.06 35.06 0 0 1 35.06 35.06v33.08a35.07 35.07 0 0 0 10.27 24.8l23.4 23.4a35.06 35.06 0 0 1 -.01 49.59z"/></g></svg>