<svg width="22" height="21" viewBox="0 0 22 21" fill="none" xmlns="http://www.w3.org/2000/svg">
<path fill-rule="evenodd" clip-rule="evenodd" d="M10.5322 0V0.233335C9.7258 1.49013 8.1408 2.42273 6.45285 3.41591C5.96916 3.7005 5.47701 3.99008 4.99231 4.29368C3.88184 4.98925 2.81148 5.7719 2.00952 6.79583C1.20759 7.81977 0.687502 9.09759 0.687502 10.6887C0.687502 12.8028 1.29484 14.3343 1.96924 15.3734H20.0289C20.7039 14.3343 21.3143 12.8028 21.3143 10.6887C21.3143 9.09759 20.7906 7.81977 19.9887 6.79583C19.1867 5.7719 18.12 4.98925 17.0095 4.29368C16.5233 3.98909 16.0293 3.69863 15.5439 3.41314C13.8592 2.42244 12.2765 1.49169 11.4697 0.238851V0H10.5322ZM0.68751 17.72C0.68751 16.949 1.32097 16.311 2.09193 16.311H19.9063C20.6772 16.311 21.3143 16.949 21.3143 17.72V19.5913C21.3146 19.6532 21.3026 19.7145 21.279 19.7717C21.2554 19.8289 21.2208 19.8809 21.177 19.9246C21.1333 19.9683 21.0813 20.003 21.0241 20.0266C20.9669 20.0501 20.9056 20.0622 20.8438 20.0619H1.15443C1.03011 20.0614 0.91108 20.0116 0.823519 19.9233C0.735957 19.8351 0.687034 19.7157 0.68751 19.5913V17.72Z" fill="#D6E5E5"/>
</svg>
