<svg clip-rule="evenodd" fill-rule="evenodd" height="512" stroke-linejoin="round" stroke-miterlimit="2" viewBox="0 0 64 64" width="512" xmlns="http://www.w3.org/2000/svg"><g transform="translate(-853 -364)"><g transform="translate(0 303)"><path d="m885 69.75c-12.832 0-23.25 10.418-23.25 23.25s10.418 23.25 23.25 23.25 23.25-10.418 23.25-23.25-10.418-23.25-23.25-23.25zm-15.051 10.237 28.064 28.064c.151.15.231.358.219.571s-.113.411-.279.544c-3.549 2.848-8.054 4.552-12.953 4.552-11.435 0-20.718-9.283-20.718-20.718 0-4.899 1.704-9.404 4.552-12.953.133-.166.331-.267.544-.279s.421.068.571.219zm8.273 10.394c-4.828-4.828-8.729-8.729-8.729-8.729-2.333 3.181-3.711 7.105-3.711 11.348 0 10.607 8.611 19.218 19.218 19.218 4.243 0 8.167-1.378 11.348-3.711 0 0-1.764-1.764-4.387-4.388.057 1.629.095 2.695.095 2.695.018.524-.176 1.032-.54 1.408-.363.377-.864.59-1.388.59h-.52c-.523 0-1.024-.213-1.387-.59-.364-.376-.559-.884-.54-1.408l.239-6.736c-2.033-2.032-4.244-4.243-6.406-6.405l.48 13.139c.019.524-.175 1.033-.539 1.41-.363.377-.864.59-1.388.59h-.517c-.524 0-1.025-.213-1.389-.59-.363-.377-.558-.886-.539-1.41zm1.734 1.734-.285-.286-.55 15.038c-.004.117.039.23.12.313.081.084.192.132.309.132h.517c.116 0 .228-.048.309-.132.08-.083.124-.196.119-.313zm10.449 10.448-1.036-1.035-.189 5.34c-.004.116.039.229.12.313.081.083.192.131.308.131h.52c.117 0 .228-.048.309-.131.081-.084.124-.197.12-.313 0 0-.064-1.805-.152-4.305zm-8.963-15.158-9.455-9.456c-.151-.15-.231-.358-.219-.571s.113-.411.279-.544c3.549-2.848 8.054-4.552 12.953-4.552 11.435 0 20.718 9.283 20.718 20.718 0 4.899-1.704 9.404-4.552 12.953-.133.166-.331.267-.544.279s-.421-.068-.571-.219c0 0-18.604-18.603-18.609-18.608zm10.217 8.096c4.883 4.883 8.848 8.847 8.848 8.847 2.333-3.181 3.711-7.105 3.711-11.348 0-10.607-8.611-19.218-19.218-19.218-4.243 0-8.167 1.378-11.348 3.711 0 0 1.003 1.003 2.621 2.621v-1.717c0-.414.336-.75.75-.75.413 0 .75.336.75.75v3.217c.407.407.837.837 1.285 1.286v-4.503c0-.414.336-.75.75-.75s.75.336.75.75v6.003c.393.392.795.794 1.205 1.205.053-.216.081-.442.081-.672v-6.536c0-.414.336-.75.75-.75s.75.336.75.75v6.536c0 .654-.149 1.287-.418 1.834 1.702 1.703 3.504 3.504 5.279 5.279l.111-3.136c.011-.335-.181-.643-.477-.776-1.484-.613-2.539-1.983-2.539-4.271 0-1.797.684-3.786 1.728-5.091.789-.986 1.787-1.584 2.84-1.584s2.051.598 2.841 1.584c1.044 1.305 1.728 3.294 1.728 5.091 0 2.282-1.049 3.65-2.527 4.283-.297.135-.484.436-.473.763v.003c.045 1.413.13 3.905.222 6.589zm-2.005-2.005.451.451c-.07-2.049-.131-3.862-.167-4.985-.033-.943.511-1.811 1.374-2.192.003-.001.006-.002.009-.003.985-.421 1.616-1.377 1.616-2.904 0-1.465-.548-3.089-1.399-4.153-.475-.594-1.036-1.022-1.67-1.022-.633 0-1.194.428-1.669 1.022-.851 1.064-1.399 2.688-1.399 4.153 0 1.523.626 2.478 1.614 2.886.006.002.011.005.017.007.869.383 1.417 1.257 1.384 2.206z"/></g></g></svg>