<svg width="20" height="30" viewBox="0 0 20 30" fill="none" xmlns="http://www.w3.org/2000/svg">
<path d="M9.09088 0H8.18178C6.92724 0 5.90906 1.08387 5.90906 2.41935V2.90323L11.3636 2.41935C11.3636 1.08387 10.3454 0 9.09088 0Z" fill="#D6E5E5"/>
<path d="M7.28179 6.64341L8.70451 7.5047C8.95906 7.65954 9.24542 7.7418 9.53633 7.7418C10.3363 7.7418 11.0227 7.1418 11.1772 6.30954L11.1863 6.26116C11.3045 5.63696 11.3636 5.00309 11.3636 4.36438V3.38696L5.90906 3.87083V4.12245C5.90906 5.16277 6.43179 6.12567 7.28179 6.64341Z" fill="#D6E5E5"/>
<path d="M0 27.0969V30.0001H0.836364C1.42273 30.0001 1.94545 29.5985 2.12727 29.0082L2.27273 28.5485L3.18182 28.7904V25.6453H1.36364C0.609091 25.6453 0 26.2937 0 27.0969Z" fill="#D6E5E5"/>
<path d="M17.9136 12.3823C18.0863 12.1984 18.1818 11.9517 18.1818 11.6952V9.67746C18.1818 9.1452 17.7727 8.70972 17.2727 8.70972H16.8181L16.3636 11.1291L15.7772 11.7533L17.1409 13.2049L17.9136 12.3823Z" fill="#D6E5E5"/>
<path d="M17.9864 22.9935L11.8182 20.8064L11.4818 19.3451C10.6364 19.2822 9.8409 18.8709 9.27272 18.2032L5.57272 13.8726C5.40454 13.6742 5.41818 13.3693 5.60454 13.1903C5.7909 13.0113 6.07727 13.0258 6.24545 13.2242L9.94545 17.5548C10.35 18.029 10.9045 18.3193 11.5045 18.3774H11.5182C12.0773 18.3193 12.6182 18.0871 13.0591 17.7048L16.9182 14.3419L14.6773 11.9564C14.6773 11.9564 14.6454 11.9226 14.6364 11.9032L11.3636 14.5161L8.36818 10.8677C8.19999 10.6645 8.22272 10.3597 8.40908 10.1855C8.59999 10.0064 8.88636 10.0258 9.04999 10.229L10.3727 11.8355L10.2909 11.4387L9.88636 9.43062C9.83636 9.18385 9.76817 8.94191 9.68181 8.70481C9.63636 8.70965 9.58636 8.70965 9.53636 8.70965C9.09545 8.70965 8.65908 8.59353 8.27727 8.36127L6.83636 7.48062C6.51818 7.28707 6.23636 7.04998 5.99545 6.77417C3.94545 8.58869 2.73181 11.2935 2.73181 14.1871V21.0338C2.73181 21.8613 2.9409 22.6548 3.31817 23.3468C3.5409 23.7532 3.82272 24.1306 4.15454 24.45C4.31363 24.6048 4.52727 24.6774 4.7409 24.6774H15.0045C15.2545 24.6774 15.4591 24.8951 15.4591 25.1613C15.4591 25.4274 15.2545 25.6451 15.0045 25.6451H4.0909V30H16.8364C17.9273 30 18.9136 29.308 19.3454 28.2435L19.7636 27.2032C19.9182 26.8161 20 26.3951 20 25.9693C20 24.6193 19.1909 23.4242 17.9864 22.9935Z" fill="#D6E5E5"/>
</svg>
