<svg id="Layer_1" enable-background="new 0 0 64 64" height="512" viewBox="0 0 64 64" width="512" xmlns="http://www.w3.org/2000/svg"><g><g><g><path d="m34.19 24.75c-.12 0-.24-.04-.33-.13-.2-.18-.21-.5-.03-.7 3.22-3.51 6.7-4.38 10.06-5.23 1.93-.48 3.75-.94 5.43-1.88.24-.13.54-.05.67.19s.05.54-.19.67c-1.8 1-3.68 1.48-5.67 1.98-3.22.81-6.56 1.64-9.58 4.94-.09.11-.22.16-.36.16z"/></g><g><path d="m35.03 27.61c-.13 0-.26-.05-.35-.15-.19-.19-.19-.51.01-.7 3.5-3.43 6.94-4.41 10.27-5.36 1.89-.54 3.67-1.05 5.36-1.99.24-.13.54-.05.67.19s.05.54-.19.67c-1.8.99-3.63 1.52-5.57 2.07-3.21.92-6.53 1.87-9.86 5.12-.09.11-.21.15-.34.15z"/></g><g><path d="m32 33.44c-.15 0-.3-.07-.39-.2-.04-.05-3.68-4.78-11.44-7.21-7.92-2.48-11.54-4.46-11.69-4.54-.12-.06-.2-.17-.24-.3-.03-.13-.01-.27.05-.38l4.24-7.03c.14-.23.44-.31.67-.17 1.79 1.07 4.33 1.74 7.01 2.45 4.58 1.21 9.72 2.57 11.78 6.41 2.06-3.84 7.2-5.2 11.78-6.41 2.68-.71 5.22-1.38 7.01-2.45.23-.14.53-.06.67.17l4.24 7.03c.07.11.09.25.05.38-.03.13-.12.24-.24.3-.15.08-3.76 2.07-11.69 4.54-7.78 2.44-11.4 7.16-11.44 7.21-.07.12-.22.2-.37.2zm-22.59-12.58c1.2.6 4.79 2.27 11.05 4.23 6.7 2.1 10.39 5.77 11.54 7.08 1.15-1.31 4.84-4.99 11.54-7.08 6.26-1.96 9.85-3.63 11.05-4.23l-3.72-6.16c-1.86 1-4.29 1.64-6.84 2.32-4.97 1.31-10.11 2.67-11.57 6.84-.14.4-.79.4-.93 0-1.45-4.17-6.59-5.53-11.57-6.84-2.55-.67-4.97-1.31-6.84-2.32z"/></g><g><path d="m48.33 41.34c-.08 0-.16-.02-.24-.06l-6.57-3.59c-.24-.13-.33-.43-.2-.67s.43-.33.67-.2l6.23 3.4.67-.77c.18-.2.49-.23.69-.05s.23.49.05.69l-.93 1.07c-.09.12-.23.18-.37.18z"/></g><g><path d="m29.81 24.75c-.13 0-.27-.05-.36-.16-3.02-3.29-6.36-4.13-9.58-4.94-1.99-.5-3.88-.97-5.67-1.98-.24-.13-.32-.43-.19-.67s.43-.32.67-.19c1.69.94 3.51 1.4 5.43 1.88 3.36.84 6.84 1.72 10.06 5.23.18.2.17.51-.03.7-.09.09-.21.13-.33.13z"/></g><g><path d="m28.97 27.61c-.12 0-.25-.05-.34-.14-3.32-3.25-6.64-4.2-9.86-5.12-1.94-.56-3.77-1.08-5.57-2.07-.24-.13-.32-.43-.19-.67s.43-.32.67-.19c1.7.94 3.48 1.45 5.36 1.99 3.33.95 6.77 1.94 10.27 5.36.19.19.2.5.01.7-.1.09-.23.14-.35.14z"/></g><g><path d="m32 39.28c-.08 0-.16-.02-.23-.06l-31.51-16.4c-.12-.06-.21-.18-.25-.31s-.01-.28.06-.39l5.54-8.65c.13-.2.39-.28.61-.19l2.59 1.12c.25.11.36.4.26.65-.11.25-.4.37-.65.26l-2.2-.95-5.02 7.84 30.8 16.04 30.8-16.04-5.02-7.84-2.2.95c-.25.11-.54-.01-.65-.26s.01-.54.26-.65l2.59-1.12c.22-.1.48-.02.61.19l5.54 8.65c.07.12.1.26.06.39s-.13.25-.25.31l-31.51 16.4c-.07.04-.15.06-.23.06z"/></g><g><path d="m15.67 41.34c-.14 0-.27-.06-.37-.17l-.93-1.07c-.18-.21-.16-.52.05-.69.2-.18.52-.16.69.05l.67.77 6.23-3.4c.24-.13.54-.04.67.2s.04.54-.2.67l-6.57 3.59c-.08.03-.16.05-.24.05z"/></g><g><path d="m32 37.06c-.27 0-.49-.22-.49-.49v-12.88c0-.27.22-.49.49-.49s.49.22.49.49v12.88c0 .27-.22.49-.49.49z"/></g><g><g><path d="m10.35 50.76c-.15 0-.29-.07-.39-.19l-1.01-1.28c-.11-.15-.14-.34-.06-.51l1.71-3.7c.05-.1.12-.18.22-.23 2.5-1.3 9.26-4.93 10.42-6.18.51-.54.71-1.01.54-1.22-.28-.33-1.33-.37-1.97.05l-4.83 2.71c-.18.1-.41.08-.56-.06-.16-.14-.21-.36-.13-.55l1.16-2.96c.04-.1.12-.19.21-.25l5.84-3.36c.24-.14.54-.05.67.18.14.24.05.54-.18.67l-5.69 3.27-.6 1.52 3.6-2.02c.91-.59 2.54-.66 3.24.16.31.37.66 1.2-.57 2.52-1.42 1.54-9.3 5.67-10.54 6.31l-1.51 3.27.56.72 21.29-11.28c.24-.13.54-.04.67.2s.04.54-.2.67l-21.66 11.48c-.07.04-.15.06-.23.06z"/></g><g><path d="m53.65 50.76c-.08 0-.16-.02-.23-.06l-21.65-11.48c-.24-.13-.33-.43-.2-.67s.42-.33.67-.2l21.29 11.28.56-.72-1.51-3.27c-1.23-.64-9.12-4.78-10.54-6.31-1.23-1.32-.88-2.15-.56-2.52.7-.83 2.33-.76 3.26-.15l3.57 2.01-.59-1.52-5.7-3.27c-.24-.14-.32-.44-.18-.67.13-.24.44-.32.67-.18l5.85 3.36c.1.06.17.14.21.25l1.15 2.96c.08.19.02.41-.14.55s-.38.16-.56.06l-4.8-2.7c-.67-.44-1.72-.4-2-.06-.17.21.03.67.53 1.22 1.16 1.25 7.91 4.89 10.42 6.18.1.05.17.13.22.23l1.71 3.7c.08.17.05.37-.06.51l-1.01 1.28c-.09.12-.24.19-.38.19z"/></g></g></g><g><path d="m32.64 37.06h-1.26c-1.26 0-2.37-.9-2.7-2.19-.02-.1-.12-.2-.24-.26l-24.5-12.6c-.12-.06-.22-.18-.25-.31-.04-.14-.01-.28.07-.4l4.95-7.49c.09-.14.24-.22.4-.22l3.84-.05c.26-.05.5.21.5.49 0 .27-.21.5-.49.5l-3.58.05-4.51 6.82 24.01 12.35c.38.2.65.52.75.9.21.85.93 1.45 1.74 1.45h1.26c.8 0 1.51-.59 1.72-1.45.09-.37.36-.7.74-.9l24.01-12.35-4.51-6.82-3.58-.05c-.27 0-.49-.23-.49-.5s.22-.49.49-.49h.01l3.84.05c.16 0 .31.08.4.22l4.95 7.49c.08.12.1.26.07.4-.04.14-.13.25-.25.31l-24.5 12.6c-.12.06-.21.16-.24.26-.29 1.29-1.4 2.19-2.65 2.19z"/></g></g></svg>