<svg fill="none" height="512" viewBox="0 0 120 120" width="512" xmlns="http://www.w3.org/2000/svg"><g fill="rgb(0,0,0)"><path d="m62 25.0752 26.737-9.7955c3.0635-1.1224 6.263 1.2735 6.263 4.6899v47.518c0 2.1136-1.2703 3.9956-3.1655 4.69-9.8971 3.6259-29.8345 10.8224-29.8345 10.8224z"/><path d="m52.6934 99.3973c-3.0728-1.0622-7.6525-2.6446-12.7949-4.4189-2.8476-.9824-5.8671-2.0236-8.8985-3.0677v8.0388c0 3.4455 3.4025 5.8585 6.6537 4.7185z"/><path d="m67.312 99.3992c3.0694-1.0583 7.6392-2.6334 12.7717-4.4004 2.8524-.982 5.8781-2.0231 8.9163-3.0677v8.0184c0 3.4455-3.4025 5.8585-6.6537 4.7185z"/><path d="m31.263 15.2797c-3.0635-1.1224-6.263 1.2735-6.263 4.6899v47.518c0 2.1136 1.2703 3.9956 3.1655 4.69 9.9331 3.6391 19.6946 7.7716 29.8345 10.8224v-57.9248z"/><path d="m99 20.8578v46.6298c0 3.6862-2.221 7.1384-5.7895 8.4458-10.3671 3.7982-31.2105 11.2437-31.2105 11.2437v9.8229s29.8536-10.3011 44.692-15.3634c1.973-.6731 3.308-2.5925 3.308-4.7573v-52.8701c0-3.4048-3.189-5.816-6.292-4.7574z"/><path d="m58 87.1771c0-.1771-14.8408-5.0133-22.1595-7.8219l-.0017-.0007-.0032-.0012-.0022-.0009c-3.0561-1.1727-6.0756-2.3315-9.0439-3.419-3.5685-1.3074-5.7895-4.7596-5.7895-8.4458v-46.6306l-4.7075-1.6053c-3.1032-1.0582-6.2925 1.352-6.2925 4.7553v52.8474c0 2.1638 1.3345 4.0825 3.3075 4.7553 14.7983 5.0462 44.6925 15.3903 44.6925 15.3903z"/></g></svg>