<svg xmlns="http://www.w3.org/2000/svg" version="1.1" xmlns:xlink="http://www.w3.org/1999/xlink" xmlns:svgjs="http://svgjs.com/svgjs" width="512" height="512" x="0" y="0" viewBox="0 0 512 512" style="enable-background:new 0 0 512 512" xml:space="preserve" class=""><g><linearGradient id="a" x1="256.001" x2="256.002" y1="512.478" y2=".479" gradientUnits="userSpaceOnUse"><stop stop-opacity="1" stop-color="#005a5c" offset="0"></stop><stop stop-opacity="1" stop-color="#269da1" offset="1"></stop></linearGradient><path fill="url(#a)" fill-rule="evenodd" d="M256 .479c141.376 0 256 114.659 256 256.035S397.38 512.478 256 512.478c-141.391 0-256-114.587-256-255.964S114.613.479 256 .479zm0 293.572a4.357 4.357 0 1 0 4.357 4.359 4.365 4.365 0 0 0-4.357-4.359zm0 13.956a9.6 9.6 0 1 0-9.6-9.6 9.611 9.611 0 0 0 9.6 9.6zM98.613 170.2a27.063 27.063 0 0 0 6.04 37.71l208.774 151.565h51.43a.656.656 0 0 0 .389-1.186L101.164 166.678zm15.885-9.638-5.4 5.4L256 272.549l146.39-106.21-5.77-5.775L257.1 261.8a2.606 2.606 0 0 1-3.078 0L114.5 160.564zm16.69-7.082-7.291 7.426 131.66 95.532 130.691-94.823-7.222-7.222c-12.645 12.69-31.213 24.038-51.4 31.377-9.186 3.345-16.486 4.048-23.538 4.734-13.633 1.315-25.409 2.452-46.656 24.2a2.644 2.644 0 0 1-3.752 0c-21.247-21.745-33.024-22.882-46.654-24.2-7.063-.686-14.36-1.389-23.541-4.734-20.762-7.548-39.65-19.235-52.3-32.29zm279.651 13.2L260.468 275.786l26.694 19.376 120.186-87.25a27.061 27.061 0 0 0 6.043-37.71l-2.552-3.524zm-212.268 192.8 52.971-38.455-26.706-19.385-78.075 56.654a.656.656 0 0 0 .38 1.186z" data-original="url(#a)" class=""></path></g></svg>