<?xml version="1.0" encoding="utf-8"?>
<!-- Generator: Adobe Illustrator 27.5.0, SVG Export Plug-In . SVG Version: 6.00 Build 0)  -->
<svg version="1.1" id="Layer_1" xmlns="http://www.w3.org/2000/svg" xmlns:xlink="http://www.w3.org/1999/xlink" x="0px" y="0px"
	 viewBox="0 0 450 450" style="enable-background:new 0 0 450 450;" xml:space="preserve">
<g>
	<g>
		<g>
			<polygon style="fill:#04273A;" points="411.997,284.08 192.803,238.727 38.918,268.706 33.076,267.643 33.076,269.844 
				215.556,365.428 416.923,285.099 416.923,282.898 			"/>
			<polygon style="fill:#013658;" points="33.076,267.644 192.802,236.527 416.924,282.899 215.556,363.227 			"/>
			<polygon style="fill:#E8EEF2;" points="60.114,270.405 192.26,243.905 377.122,283.681 221.064,344.217 			"/>
		</g>
		<g>
			<rect x="134.508" y="202.062" style="fill:#976E62;" width="6.277" height="59.151"/>
			<rect x="181.836" y="202.062" style="fill:#976E62;" width="6.276" height="59.151"/>
			<rect x="134.508" y="202.062" style="opacity:0.4;fill:#976E62;" width="6.277" height="59.151"/>
			<rect x="181.836" y="202.062" style="opacity:0.4;fill:#976E62;" width="6.276" height="59.151"/>
			<polygon style="fill:#4A3129;" points="130.91,268.059 128.426,270.953 128.426,206.148 130.91,206.148 			"/>
			<polygon style="fill:#4A3129;" points="143.268,258.32 140.785,261.213 140.785,206.148 143.268,206.148 			"/>
			<polygon style="fill:#FF786A;" points="122.15,202.314 136.957,196.326 190.595,196.326 176.087,202.314 			"/>
			<polygon style="fill:#4A3129;" points="175.868,202.062 175.868,206.148 175.868,220.976 175.868,270.953 178.351,268.059 
				178.351,219.658 188.112,214.479 188.112,261.213 190.595,258.474 190.595,213.162 190.595,201.783 190.595,196.326 			"/>
			<polygon style="fill:#976E62;" points="122.15,202.062 122.15,206.148 122.15,270.953 128.426,270.953 128.426,220.976 
				169.591,220.976 169.591,270.953 175.868,270.953 175.868,206.148 175.868,202.062 			"/>
		</g>
		<g>
			<g>
				<path style="fill:#F4AE8C;" d="M240.203,326.212c-2.28,2.106-4.291,4.506-5.58,7.33c-2.133,4.673-6.196,8.844-13.56,10.676
					c-4.908,1.221-15.453-0.714-15.865-6.541c0.97-5.092,5.616-4.797,9.894-8.629c5.958-4.134,9.602-13.469,13-22.51
					c1.499-3.99,13.78-14.273,16.513-12.559c1.012,0.635-2.217,10.348-2.598,18.181
					C241.819,316.029,246.514,320.382,240.203,326.212z"/>
				<path style="fill:#F4AE8C;" d="M264.947,291.195c-0.507-1.511-3.658-3.495-6.442-3.868c-4.791-0.643-9.816-0.326-15.108-3.241
					c-3.018-1.662-9.309-2.386-12.299,0.338c-1.878,1.711-5.316,3.309-7.716,3.437c1.023,2.824-1.134,9.602,2.707,11.134
					c3.833-0.338,9.126-0.761,22.367-1.726c2.586-0.189,12.693,3.651,15.985,2.333C266.774,298.667,266.673,295.414,264.947,291.195
					z"/>
				<path style="fill:#F4AE8C;" d="M211.466,300.046c-2.924,0-5.398-2.258-5.619-5.222c-0.233-3.105,2.097-5.814,5.205-6.044
					l16.557-1.235c3.131-0.247,5.814,2.1,6.044,5.205c0.233,3.105-2.097,5.814-5.205,6.044l-16.557,1.235
					C211.747,300.04,211.606,300.046,211.466,300.046z"/>
				<path style="fill:#7096C3;" d="M206.757,284.681c-15.436,3.535-29.03,4.268-37.566,11.582
					c-12.315,10.567-16.658,4.588-17.881-1.109c-0.056-0.301-0.113-0.583-0.132-0.884c-0.714-5.133,2.369-9.382,4.08-12.071
					c7.972-13.199,55.898-48.866,77.37-38.788c4.042,1.88,7.145,5.377,8.875,10.924C246.711,276.295,221.31,279.66,206.757,284.681z
					"/>
				<path style="fill:#7096C3;" d="M206.757,284.681c-15.436,3.535-43.312-0.487-43.312-0.487s4.103-1.558,22.026-0.512
					c33.999,1.985,41.491-27.853,45.458-29.188c4.042,1.88,8.844-5.706,10.574-0.159C246.711,276.295,221.31,279.66,206.757,284.681
					z"/>
				<path style="fill:#7096C3;" d="M190.766,285.609c4.821,0.157,29.665,0.7,29.665,0.7c4.007,0.255,4.745,13.005,2.217,14.013
					c-2.789,1.106-26.297,5.895-31.63,6.132c-5.331,0.256-10.689,0.287-16.032-0.134c-5.344-0.339-10.68-1.107-15.927-2.288
					c-5.439-1.224-8.856-6.626-7.632-12.066c1.084-4.817,5.445-8.048,10.206-7.874C161.633,284.093,185.946,285.452,190.766,285.609
					z"/>
				<g>
					<path style="fill:#F4AE8C;" d="M196.634,249.028c0,0-8.916,10.348-4.375,13.207c4.541,2.859,8.802-1.177,10.56,0.841
						c1.213-1.85,1.381-10.809,1.381-10.809L196.634,249.028z"/>
					<path style="fill:#F4AE8C;" d="M194.123,258.583c-0.433,0.61-0.858,1.159-1.306,1.721l-0.68,0.826
						c-0.239,0.295-0.487,0.539-0.557,0.681c-0.498,0.957-0.846,2.433-1.014,3.624l-0.009,0.065
						c-0.051,0.363-0.386,0.615-0.749,0.564c-0.322-0.045-0.557-0.315-0.57-0.628c-0.033-0.785,0.011-1.462,0.079-2.189
						c0.081-0.724,0.16-1.423,0.44-2.24l0.912-2.002c0.261-0.613,0.521-1.253,0.736-1.853c0.289-0.807,1.177-1.226,1.984-0.937
						c0.806,0.289,1.226,1.177,0.937,1.983C194.278,258.332,194.201,258.472,194.123,258.583z"/>
					<path style="fill:#F4AE8C;" d="M194.606,260.605l-1.292,2.393l-0.322,0.596c-0.057,0.118-0.106,0.232-0.166,0.428
						c-0.11,0.36-0.207,0.771-0.29,1.188c-0.331,1.674-0.556,3.441-0.746,5.174c-0.049,0.517-0.508,0.897-1.025,0.848
						c-0.502-0.048-0.874-0.498-0.85-0.997c0.117-1.803,0.258-3.574,0.532-5.399c0.071-0.458,0.154-0.918,0.28-1.413
						c0.056-0.234,0.159-0.536,0.285-0.823l0.241-0.61l0.962-2.433l0.022-0.054c0.266-0.672,1.026-1.002,1.698-0.736
						c0.672,0.266,1.001,1.026,0.736,1.698C194.654,260.51,194.629,260.562,194.606,260.605z"/>
					<path style="fill:#F4AE8C;" d="M197.134,261.599l-2.251,5.204c-0.245,0.511-0.457,1.589-0.647,2.438l-0.539,2.73L193.692,272
						c-0.1,0.51-0.595,0.842-1.105,0.741c-0.473-0.093-0.792-0.526-0.756-0.995l0.217-2.832c0.122-0.991,0.104-1.793,0.471-3.053
						l1.594-5.343c0.254-0.851,1.154-1.351,2.005-1.098c0.851,0.254,1.335,1.15,1.081,2
						C197.182,261.479,197.158,261.544,197.134,261.599z"/>
					<path style="fill:#F4AE8C;" d="M200.138,261.633l-2.244,5.21l-2.052,5.292c-0.181,0.487-0.723,0.736-1.211,0.554
						c-0.448-0.166-0.691-0.651-0.587-1.105l1.355-5.575l1.559-5.525c0.254-0.901,1.191-1.425,2.092-1.171
						c0.901,0.254,1.425,1.191,1.171,2.092c-0.019,0.069-0.043,0.137-0.071,0.202L200.138,261.633z"/>
					<path style="fill:#F4AE8C;" d="M203.509,258.671c0.169,1.697,0.116,3.231-0.277,4.966c-0.103,0.428-0.239,0.868-0.444,1.319
						c-0.084,0.218-0.239,0.459-0.362,0.677l-0.305,0.413c-0.407,0.578-0.652,0.959-0.868,1.567
						c-0.176,0.507-0.729,0.775-1.235,0.599c-0.344-0.12-0.579-0.42-0.639-0.755c-0.145-0.857,0.152-1.864,0.4-2.581l0.199-0.556
						c0.016-0.117,0.054-0.192,0.064-0.327c0.037-0.236,0.055-0.512,0.05-0.805c-0.01-1.157-0.32-2.563-0.633-3.732l-0.012-0.045
						c-0.296-1.104,0.36-2.24,1.464-2.536c1.105-0.296,2.24,0.36,2.536,1.464C203.477,258.447,203.497,258.565,203.509,258.671z"/>
					<path style="fill:#F4AE8C;" d="M192.26,262.236c4.541,2.859,8.802-1.846,10.56,0.841c1.213-1.85,1.381-10.809,1.381-10.809
						L192.26,262.236z"/>
				</g>
				<path style="fill:#E8EEF2;" d="M226.255,196.18v0.075c-1.41,15.248-3.76,23.409-3.873,23.409
					c-1.974,4.118-7.991,22.148-16,33.561c-0.038,0.075-0.094,0.151-0.151,0.226c0,0.019-0.019,0.019-0.019,0.019
					c-0.658,0.94-1.335,1.824-2.012,2.651c-0.019-2.388-7.502-7.182-10.548-3.854c0.244-14.741,3.855-14.666,7.07-29.331
					c1.26-5.81,5.359-13.011,7.446-18.595c4.851-12.954,10.567-31.437,13.876-37.51C228.53,154.966,229.414,169.82,226.255,196.18z"
					/>
				<path style="fill:#E8EEF2;" d="M226.255,196.255c-1.41,15.248-3.76,23.409-3.873,23.409c-1.974,4.118-7.991,22.148-16,33.561
					c2.2-2.895,0.564-17.147,0.357-25.834c-0.207-8.705,13.161-23.051,13.161-23.051S223.622,197.853,226.255,196.255z"/>
				<path style="fill:#E8EEF2;" d="M284.992,181.984c-0.414,4.889-0.902,9.495-1.467,13.838c-3.365,26.21-9.42,43.019-16.395,55.804
					c-0.414,0.771-55.215,3.395-49.61-12.42c7.634-19.065-0.402-50.199,4.26-69.669c0.729-7.887,12.542-14.462,26.91-12.906
					C283.525,160.402,284.992,166.398,284.992,181.984z"/>
				<path style="fill:#E8EEF2;" d="M283.525,195.823c-3.365,26.21-9.42,43.019-16.395,55.804c-0.414,0.771-0.846,1.523-1.279,2.238
					c-1.617-2.651-20.87-34.182-24.931-36.984c-4.268-2.914-2.557-11.62-2.557-11.62l4.644-7.69c0,0,16.658,4.888,21.961,5.039
					c5.302,0.169,1.147-21.885,1.147-21.885S274.971,188.359,283.525,195.823z"/>
				<path style="fill:#4A3129;" d="M268.554,136.04c-6.442,13.522-4.226,5.252-17.499,3.748
					c-13.274-1.504-20.382,10.604-21.589-4.326c-1.41-17.445,1.319-31.607,14.16-29.722
					C263.019,108.587,277.501,117.258,268.554,136.04z"/>
				<path style="fill:#F4AE8C;" d="M262.968,140.494l1.086,18.813c0.3,5.192-3.666,9.644-8.858,9.944
					c-5.192,0.3-9.644-3.666-9.943-8.858c-0.021-0.363-0.02-0.731,0-1.085l1.086-18.813c0.265-4.592,4.203-8.1,8.795-7.835
					C259.401,132.905,262.732,136.326,262.968,140.494z"/>
				<path style="fill:#F4AE8C;" d="M268.554,136.04c-1.125,11.637-10.177,25.607-22.718,25.609
					c-16.415,0.002-16.529-13.349-16.412-30.042c0.137-19.638,11.42-22.493,22.226-21.268
					C262.456,111.562,270.042,120.646,268.554,136.04z"/>
				<path style="fill:#4A3129;" d="M229.426,133.322c0,0,1.844-18.523,4.041-16.452c3.575,3.371,10.248,3.058,22.823,3.843
					c7.682,0.48-2.349,15.903,3.099,19.596c2.844,3.083,3.992,10.184,3.992,10.184s6.739-8.113,8.03-21.763
					c2.105-22.263-27.784-22.989-27.784-22.989S226.469,103.89,229.426,133.322z"/>
				<path style="fill:#F4AE8C;" d="M266.252,142.735c-1.196,3.381-3.701,5.58-5.597,4.91c-1.895-0.67-2.463-3.954-1.267-7.336
					c1.195-3.382,3.701-5.58,5.596-4.91C266.88,136.069,267.447,139.354,266.252,142.735z"/>
				<g>
					<polygon style="fill:#04273A;" points="217.889,163.584 216.443,160.879 225.519,194.282 228.185,198.384 					"/>
					<polygon style="fill:#04273A;" points="217.889,142.754 216.443,160.879 223.477,179.632 226.452,170.866 					"/>
					<polygon style="fill:#ABC3E4;" points="217.889,163.046 218.082,163.524 250.762,153.353 249.98,153.217 					"/>
					<path style="fill:#013658;" d="M262.336,192.081c-5.453,4.024-34.144,6.298-34.144,6.298l-0.996-3.384l-9.307-31.418
						l31.399-9.777l1.467-0.451C250.754,153.349,258.932,181.251,262.336,192.081z"/>
					<polygon style="fill:#ABC3E4;" points="218.082,143.387 223.313,160.175 219.057,161.193 					"/>
					<path style="fill:#E8EEF2;" d="M218.082,143.387l-0.964,17.492l0.772,2.167l32.09-9.83c0,0-21.487,2.686-30.923,7.976
						C220.185,156.402,218.749,145.112,218.082,143.387z"/>
					<path style="fill:#013658;" d="M217.983,163.649c-0.037,0-0.075-0.026-0.089-0.063l-0.974-2.712l1.031-17.611
						c0.003-0.049,0.046-0.089,0.095-0.089c0.049,0.009,0.098,0.046,0.095,0.101l-1.031,17.591l0.962,2.657
						c0.017,0.049-0.008,0.104-0.057,0.121C218.003,163.646,217.995,163.649,217.983,163.649z"/>
					<path style="fill:#013658;" d="M262.336,192.081c-5.453,4.024-34.144,6.298-34.144,6.298l-0.996-3.384
						c2.877-1.504,6.468-3.685,10.83-6.882c11.037-8.066,11.545-26.718,11.262-34.314l1.467-0.451
						C250.754,153.349,258.932,181.251,262.336,192.081z"/>
				</g>
				<g>
					<path style="fill:#F4AE8C;" d="M243.229,199.275c0,0-1.17-5.712-5.205-6.72c-4.035-1.008-11.262,2.688-8.153,6.72
						c3.109,4.032,6.614,5.084,10.238,5.062C243.734,204.316,243.229,199.275,243.229,199.275z"/>
					<path style="fill:#F4AE8C;" d="M237.312,196.597c-0.13-1.964-0.216-3.863-0.198-5.862c0.043-1.026-0.01-1.955,0.348-3.351
						c0.395-0.995,0.734-1.838,1.438-2.949c0.407-0.642,1.257-0.832,1.899-0.426c0.512,0.325,0.737,0.93,0.601,1.488l-0.079,0.321
						c-0.142,0.579-0.315,1.569-0.373,2.402c-0.024,0.458,0.05,1.438,0.17,2.29c0.242,1.769,0.598,3.621,0.982,5.395l0.004,0.018
						c0.283,1.309-0.549,2.599-1.858,2.882c-1.309,0.283-2.6-0.549-2.882-1.858C237.337,196.835,237.32,196.709,237.312,196.597z"/>
					<path style="fill:#F4AE8C;" d="M233.952,195.903c-0.083-0.122-0.177-0.304-0.219-0.399l-0.062-0.132l-0.101-0.221l-0.171-0.381
						l-0.263-0.737l-0.422-1.465c-0.199-0.984-0.486-1.846-0.765-2.968c-0.484-2.059-0.881-4.083-1.042-6.208
						c-0.047-0.625,0.421-1.169,1.046-1.217c0.533-0.04,1.009,0.295,1.165,0.783l0.007,0.024c0.604,1.878,1.25,3.8,1.959,5.635
						l1.201,2.818l0.494,1.45l0.201,0.719l0.072,0.343l0.027,0.139l0.006,0.046c-0.017-0.037-0.081-0.162-0.137-0.227
						c0.552,0.827,0.328,1.946-0.499,2.497C235.622,196.955,234.504,196.731,233.952,195.903z"/>
					<path style="fill:#F4AE8C;" d="M231.291,196.574l-1.357-3.25l-0.667-1.612c-0.138-0.31-0.182-0.469-0.264-0.726l-0.27-0.789
						c-0.369-1.072-0.729-2.165-1.046-3.286c-0.304-1.138-0.615-2.245-0.685-3.62c-0.034-0.654,0.47-1.212,1.124-1.245
						c0.588-0.03,1.099,0.375,1.219,0.933l0.022,0.104c0.184,0.847,0.612,1.868,1.055,2.826c0.454,0.973,0.955,1.938,1.476,2.911
						l0.398,0.745c0.132,0.259,0.302,0.614,0.436,0.792l0.857,1.366l1.692,2.707l0.039,0.062c0.666,1.065,0.342,2.469-0.724,3.135
						c-1.065,0.666-2.469,0.342-3.135-0.724C231.397,196.8,231.338,196.682,231.291,196.574z"/>
					<path style="fill:#F4AE8C;" d="M230.129,197.388l-3.017-5.117c-0.494-0.81-1.058-1.823-1.452-2.737
						c-0.419-0.938-0.789-1.862-1.141-2.823c-0.179-0.489,0.072-1.03,0.562-1.21c0.437-0.16,0.916,0.024,1.141,0.415
						c0.475,0.825,0.999,1.676,1.528,2.463c0.543,0.818,1.06,1.455,1.732,2.23l3.827,4.506c0.705,0.823,0.609,2.061-0.213,2.766
						c-0.823,0.705-2.061,0.609-2.766-0.213C230.258,197.584,230.185,197.479,230.129,197.388z"/>
					<path style="fill:#F4AE8C;" d="M230.353,199.659c-1.159-0.903-2.225-1.787-3.279-2.906c-0.262-0.289-0.52-0.579-0.781-0.983
						c-0.242-0.386-0.362-0.662-0.535-1.001c-0.319-0.655-0.599-1.294-0.866-1.991c-0.186-0.486,0.057-1.03,0.542-1.216
						c0.439-0.168,0.925,0.014,1.152,0.408l0.017,0.029c0.317,0.548,0.684,1.124,1.058,1.657c0.43,0.613,0.661,0.913,1.152,1.298
						c0.946,0.772,2.113,1.512,3.225,2.156l0.024,0.013c0.732,0.424,0.982,1.362,0.559,2.094c-0.424,0.732-1.362,0.983-2.094,0.559
						C230.469,199.742,230.406,199.699,230.353,199.659z"/>
				</g>
				<path style="fill:#E8EEF2;" d="M290.178,213.818c-0.526-8.335-1.528-35.648-7.712-45.466
					c-3.86-6.127-22.656,6.974-15.343,26.702c2.414,6.511,2.928,9.305,3.373,17.031c-4.882-1.799-19.95-14.38-27.492-14.51
					c-2.318,0.992-6.247,6.567-3.956,9.72c7.936,10.919,33.468,31.64,44.84,25.09C287.782,230.143,290.23,224.515,290.178,213.818z"
					/>
				<path style="fill:#ABC3E4;" d="M273.786,265.427c-2.181,26.511-38.394,22.525-37.491-1.523
					c0.583-9.908,1.354-19.516,0.809-29.857c-0.188-3.854-0.564-7.803-1.203-11.921c7.239-31.324,29.895,4.682,36.419,28.842
					C273.955,256.891,274.594,262.099,273.786,265.427z"/>
				<path style="fill:#ABC3E4;" d="M273.786,265.427c-2.181,26.511-38.394,22.525-37.491-1.523
					c0.583-9.908,1.354-19.516,0.809-29.857c9.363-5.866,17.975-11.262,17.975-11.262s0.763,40.565,5.697,42.887
					c10.509,4.945,12.973-8.168,11.545-14.703C273.955,256.891,274.594,262.099,273.786,265.427z"/>
				<path style="fill:#ABC3E4;" d="M255.066,219.818c0.232,23.805-8.436,85.439-12.868,89.897c-1.443,2.8-14.995,1.447-15.418-1.791
					c-1.136-8.702-1.459-94.325,14.982-98.693C248.342,207.611,254.56,212.713,255.066,219.818z"/>
			</g>
		</g>
		<g>
			<path style="fill:#FF786A;" d="M178.616,198.512c0,0.875-3.107,1.585-6.939,1.585c-3.833,0-6.939-0.71-6.939-1.585
				c0-0.416-0.737-1.796,6.939-1.585C179.016,197.116,178.616,197.636,178.616,198.512z"/>
			<path style="fill:#FFB494;" d="M178.616,198.069c0,0.875-3.107,1.585-6.939,1.585c-1.343,0-2.595-0.087-3.657-0.236
				c-1.578-0.225-2.733-0.589-3.132-1.017c-0.099-0.108-0.151-0.218-0.151-0.331c0-0.876,3.107-1.585,6.939-1.585
				C175.508,196.484,178.616,197.194,178.616,198.069z"/>
			<path style="fill:#FFB494;" d="M173.868,197.544h-4.517c1.707-2.283,0.95-5.964,0-9.754h4.517
				C173.299,191.517,173.037,194.988,173.868,197.544z"/>
			<path style="fill:#FFB494;" d="M170.126,198.045l-2.106,1.373c-1.578-0.225-2.733-0.589-3.132-1.017l4.464-0.857
				C169.314,197.732,169.474,197.906,170.126,198.045z"/>
			<path style="fill:#FFB494;" d="M173.868,187.789h-1.467c-0.276,2.146-0.303,4.164-0.233,5.941
				c0.189,4.771-2.228,4.271-2.817,3.813c-0.255,0.816,4.713,0.878,4.517,0C173.037,194.988,173.299,191.517,173.868,187.789z"/>
			<path style="fill:#FFB494;" d="M164.031,173.282c0.166,0.607,3.023,3.464,1.999,11.407c-1.023,7.943,11.171,8.82,10.849,0.998
				c-0.322-7.822,1.996-11.213,2.36-12.405C163.865,173.21,165.429,173.384,164.031,173.282z"/>
			<path style="fill:#FFB494;" d="M176.2,184.698c-0.715,0-1.405-0.149-1.64-0.626l1.166-0.58c-0.052-0.109-0.129-0.164-0.152-0.175
				c0.29,0.146,1.927,0.204,3.41-0.721c1.459-0.908,2.201-2.41,2.201-4.464c0-0.822-0.207-1.359-0.615-1.6
				c-0.988-0.592-3.097,0.325-3.76,0.686l-0.626-1.143c0.324-0.184,3.26-1.726,5.05-0.667c0.833,0.491,1.255,1.407,1.255,2.723
				c0,4.886-3.685,6.127-4.817,6.394C177.289,184.615,176.737,184.698,176.2,184.698z"/>
			<path style="fill:#FF786A;" d="M179.24,173.282c0,0.763-3.405,1.382-7.604,1.382c-4.2,0-7.605-0.619-7.605-1.382
				c0-0.763,3.404-1.381,7.605-1.381C175.835,171.901,179.24,172.52,179.24,173.282z"/>
			<path style="fill:#04273A;" d="M166.551,177.882c0.451,1.501,0.751,3.682,0.352,6.777c-0.864,6.706,9.431,7.447,9.16,0.842
				c-0.132-3.217,0.264-5.546,0.741-7.205C177.306,176.549,166.024,176.131,166.551,177.882z"/>
			<path style="fill:#013658;" d="M176.809,178.064c-0.025,0.857-2.342,1.485-5.177,1.405c-2.834-0.081-5.112-0.841-5.088-1.698
				c0.024-0.856,2.342-1.485,5.176-1.404C174.555,176.447,176.833,177.207,176.809,178.064z"/>
			<g>
				<path style="fill:#ABC3E4;" d="M169.079,176.872c0,0.144-0.117,0.262-0.262,0.262c-0.145,0-0.261-0.117-0.261-0.262
					c0-0.144,0.117-0.262,0.261-0.262C168.962,176.611,169.079,176.728,169.079,176.872z"/>
				<path style="fill:#04273A;" d="M169.135,175.822c0,0.518-0.332,0.938-0.332,0.938s-0.332-0.42-0.332-0.938
					s0.332-0.938,0.332-0.938S169.135,175.304,169.135,175.822z"/>
				<path style="fill:#04273A;" d="M168.94,177.175c-0.011,0.006-0.022,0.011-0.034,0.017c-0.031,0.017-0.063,0.039-0.101,0.069
					c-0.065,0.054-0.132,0.106-0.194,0.151c-0.03,0.071-0.067,0.145-0.114,0.218c0.011-0.058,0.028-0.115,0.045-0.168
					c0.047-0.143,0.108-0.266,0.16-0.354c0.007-0.011,0.013-0.021,0.019-0.032c0.047-0.074,0.08-0.117,0.08-0.117
					s0.028,0.036,0.069,0.099c0.011,0.017,0.024,0.037,0.035,0.06C168.918,177.134,168.929,177.155,168.94,177.175z"/>
				<path style="fill:#04273A;" d="M167.806,176.561c0.518,0,0.938,0.332,0.938,0.332s-0.42,0.332-0.938,0.332
					c-0.518,0-0.938-0.332-0.938-0.332S167.289,176.561,167.806,176.561z"/>
				<path style="fill:#04273A;" d="M170.205,176.704c-0.006,0.091-0.052,0.222-0.21,0.369c-0.054,0.048-0.121,0.101-0.203,0.153
					c-0.102,0-0.201-0.013-0.292-0.035c-0.186-0.041-0.347-0.114-0.462-0.177c-0.017-0.011-0.033-0.021-0.048-0.028
					c-0.086-0.052-0.134-0.091-0.134-0.091s0.065-0.052,0.175-0.116c0.008-0.004,0.017-0.007,0.024-0.013
					c0.106-0.058,0.249-0.123,0.415-0.162c0.101-0.026,0.208-0.043,0.322-0.043c0.147,0,0.289,0.028,0.412,0.067
					C170.205,176.648,170.207,176.674,170.205,176.704z"/>
				<path style="fill:#04273A;" d="M168.744,176.959c0,0-0.006,0.045-0.022,0.117c-0.002,0.011-0.004,0.025-0.009,0.037
					c-0.019,0.08-0.05,0.184-0.101,0.298c-0.03,0.071-0.067,0.145-0.114,0.218c0.011-0.058,0.028-0.115,0.045-0.168
					c-0.048,0.036-0.095,0.065-0.14,0.093c-0.009,0.021-0.022,0.039-0.035,0.06c0-0.013,0-0.026-0.004-0.037
					c-0.231,0.134-0.423,0.171-0.57,0.046c-0.03-0.024-0.063-0.043-0.098-0.058c0.045-0.062,0.093-0.123,0.151-0.179
					c0.08-0.08,0.168-0.145,0.255-0.197c0.177-0.11,0.358-0.168,0.483-0.199c0.009-0.002,0.019-0.004,0.026-0.006
					C168.692,176.965,168.744,176.959,168.744,176.959z"/>
				<path style="fill:#04273A;" d="M169.282,175.918c0.366-0.366,0.898-0.428,0.898-0.428s-0.062,0.532-0.428,0.898
					c-0.366,0.366-0.898,0.428-0.898,0.428S168.916,176.284,169.282,175.918z"/>
				<path style="fill:#04273A;" d="M169.652,177.298c-0.035,0.015-0.067,0.024-0.097,0.03c-0.041,0.008-0.488-0.19-0.488-0.19
					s0,0.006,0.002,0.017c-0.039-0.004-0.08,0-0.129,0.021c-0.011,0.006-0.022,0.011-0.034,0.017
					c-0.007-0.024-0.015-0.048-0.018-0.069c-0.007-0.024-0.013-0.047-0.017-0.065c-0.013-0.061-0.017-0.099-0.017-0.099
					s0.052,0.006,0.134,0.026c0.017,0.004,0.037,0.007,0.056,0.013c0.123,0.034,0.289,0.092,0.455,0.192
					C169.551,177.222,169.602,177.257,169.652,177.298z"/>
				<path style="fill:#04273A;" d="M167.846,176.388c-0.366-0.366-0.428-0.898-0.428-0.898s0.532,0.062,0.898,0.428
					c0.366,0.366,0.428,0.898,0.428,0.898S168.212,176.754,167.846,176.388z"/>
				<path style="fill:#7096C3;" d="M169.028,175.822c0,0.073-0.009,0.142-0.025,0.207c-0.058,0.25-0.2,0.43-0.2,0.43
					s-0.142-0.18-0.201-0.43c-0.016-0.065-0.025-0.134-0.025-0.207c0-0.073,0.009-0.141,0.025-0.206
					c0.059-0.25,0.201-0.43,0.201-0.43s0.142,0.18,0.2,0.43C169.019,175.68,169.028,175.749,169.028,175.822z"/>
				<path style="fill:#7096C3;" d="M168.501,176.86c0,0-0.164,0.13-0.396,0.193c-0.074,0.02-0.154,0.033-0.24,0.033
					c-0.085,0-0.165-0.013-0.239-0.033c-0.233-0.063-0.398-0.193-0.398-0.193s0.207-0.164,0.486-0.211
					c0.048-0.009,0.099-0.014,0.151-0.014c0.051,0,0.102,0.005,0.151,0.014C168.294,176.696,168.501,176.86,168.501,176.86z"/>
				<path style="fill:#7096C3;" d="M170.205,176.704c-0.006,0.091-0.052,0.222-0.21,0.369l-0.033,0.006
					c-0.034,0.006-0.069,0.007-0.104,0.007c-0.144,0-0.276-0.037-0.382-0.084c-0.155-0.063-0.255-0.144-0.255-0.144
					s0.127-0.098,0.313-0.164c0.095-0.035,0.207-0.06,0.324-0.06C169.981,176.637,170.108,176.667,170.205,176.704z"/>
				<path style="fill:#7096C3;" d="M168.532,177.171c0,0-0.02,0.186-0.129,0.384c-0.009,0.021-0.022,0.039-0.035,0.06
					c0-0.013,0-0.026-0.004-0.037c-0.231,0.134-0.423,0.171-0.57,0.046c0.036-0.056,0.076-0.112,0.127-0.162
					c0.054-0.054,0.113-0.099,0.173-0.134C168.308,177.197,168.532,177.171,168.532,177.171z"/>
				<path style="fill:#7096C3;" d="M169.968,175.682c0,0-0.027,0.231-0.166,0.45c-0.034,0.056-0.076,0.109-0.125,0.159
					c-0.061,0.06-0.126,0.107-0.193,0.146c-0.209,0.121-0.417,0.145-0.417,0.145s0.026-0.231,0.164-0.451
					c0.034-0.055,0.076-0.109,0.126-0.159c0.038-0.039,0.081-0.073,0.123-0.103C169.711,175.711,169.968,175.682,169.968,175.682z"
					/>
				<path style="fill:#7096C3;" d="M168.531,176.582c0,0-0.207-0.024-0.415-0.143c-0.066-0.039-0.134-0.087-0.195-0.147
					c-0.014-0.014-0.029-0.029-0.042-0.044c0-0.001,0-0.001,0-0.001c-0.212-0.245-0.249-0.564-0.249-0.564s0.255,0.029,0.484,0.186
					c0.044,0.03,0.086,0.065,0.125,0.104c0.083,0.083,0.142,0.179,0.186,0.269C168.512,176.421,168.531,176.582,168.531,176.582z"/>
				<path style="fill:#976E62;" d="M169.802,176.132c-0.034,0.056-0.076,0.109-0.125,0.159c-0.061,0.06-0.126,0.107-0.193,0.146
					c-0.142-0.016-0.253-0.137-0.253-0.284c0-0.007,0-0.015,0.001-0.022c0.034-0.055,0.076-0.109,0.126-0.159
					c0.038-0.039,0.081-0.073,0.123-0.103c0.012-0.001,0.024-0.002,0.036-0.002C169.668,175.867,169.791,175.984,169.802,176.132z"
					/>
				<path style="fill:#976E62;" d="M169.028,175.822c0,0.073-0.009,0.142-0.025,0.207c-0.052,0.051-0.122,0.082-0.2,0.082
					c-0.079,0-0.148-0.031-0.201-0.082c-0.016-0.065-0.025-0.134-0.025-0.207c0-0.073,0.009-0.141,0.025-0.206
					c0.052-0.05,0.122-0.082,0.201-0.082c0.078,0,0.148,0.031,0.2,0.082C169.019,175.68,169.028,175.749,169.028,175.822z"/>
				<path style="fill:#976E62;" d="M168.153,176.893c0,0.058-0.018,0.113-0.048,0.159c-0.074,0.02-0.154,0.033-0.24,0.033
					c-0.085,0-0.165-0.013-0.239-0.033c-0.03-0.046-0.049-0.101-0.049-0.159c0-0.103,0.055-0.194,0.137-0.244
					c0.048-0.009,0.099-0.014,0.151-0.014c0.051,0,0.102,0.005,0.151,0.014C168.098,176.699,168.153,176.79,168.153,176.893z"/>
				<path style="fill:#976E62;" d="M168.364,177.578c-0.231,0.134-0.423,0.171-0.57,0.046c0.036-0.056,0.076-0.112,0.127-0.162
					c0.054-0.054,0.113-0.099,0.173-0.134C168.234,177.335,168.348,177.44,168.364,177.578z"/>
				<path style="fill:#976E62;" d="M170.029,176.893c0,0.071-0.025,0.135-0.068,0.186c-0.033,0.005-0.068,0.007-0.104,0.007
					c-0.143,0-0.276-0.037-0.382-0.083c-0.014-0.033-0.022-0.071-0.022-0.11c0-0.077,0.03-0.147,0.081-0.199
					c0.095-0.035,0.206-0.06,0.324-0.06C169.953,176.681,170.029,176.779,170.029,176.893z"/>
				<path style="fill:#976E62;" d="M168.426,176.241c-0.041,0.133-0.174,0.216-0.31,0.198c-0.066-0.039-0.134-0.087-0.195-0.147
					c-0.014-0.014-0.029-0.029-0.042-0.044c0-0.001,0-0.001,0-0.001c-0.018-0.053-0.021-0.111-0.005-0.169
					c0.031-0.116,0.128-0.195,0.24-0.209c0.044,0.03,0.086,0.065,0.125,0.104C168.324,176.055,168.383,176.151,168.426,176.241z"/>
			</g>
			<path style="fill:#013658;" d="M168.364,177.578c0.013-0.007,0.026-0.015,0.039-0.022c-0.009,0.021-0.022,0.039-0.035,0.06
				C168.368,177.602,168.368,177.589,168.364,177.578z"/>
			<path style="fill:#013658;" d="M168.612,177.412c-0.03,0.071-0.067,0.145-0.114,0.218c0.011-0.058,0.028-0.115,0.045-0.168
				C168.566,177.447,168.59,177.43,168.612,177.412z"/>
			<path style="fill:#FFB494;" d="M179.24,173.283c-0.167,0.727-2.362,1.013-3.326,1.142c-0.791,1.827-1.558,4.044-1.317,9.892
				c0.188,4.566-3.888,6.166-7.111,5.13c3.052,3.048,9.632,2.015,9.395-3.759C176.557,177.865,178.875,174.474,179.24,173.283z"/>
			<path style="fill:#FFB494;" d="M174.201,196.593c1.595,0.29,2.618,0.738,2.618,1.24c0,0.876-3.107,1.585-6.939,1.585
				c-0.896,0-1.749-0.04-2.534-0.11c0.215,0.039,0.439,0.076,0.673,0.11c1.062,0.149,2.313,0.236,3.657,0.236
				c3.832,0,6.939-0.71,6.939-1.585C178.616,197.397,176.785,196.823,174.201,196.593z"/>
			<path style="opacity:0.39;fill:#E8EEF2;" d="M166.869,174.359c0,0,1.237,3.21,0.926,5.511c-0.312,2.301-0.434,5.16-0.196,6.192
				c0.239,1.031,1.686,1.963,2.204,0.366c0.518-1.597,0.244-4.08,0.226-5.898c-0.018-1.818,0.07-5.345,0.469-5.865
				C166.869,174.359,166.869,174.359,166.869,174.359z"/>
		</g>
	</g>
	<g>
		<g>
			<path style="fill:#976E62;" d="M385.074,289.544c1.21,1.478,2.255,3.08,3.09,4.834c0.791,1.762,1.156,3.761,1.528,5.47
				c0.029,0.091,0.062,0.147,0.062,0.147c0.017-0.035,0.382,0.34,0.331,0.466c0.061,0.3,0.033,0.539,0.052,0.768
				c0.03,0.437,0.133,0.879,0.284,1.306c0.309,0.85,0.775,1.676,1.373,2.346c1.28,1.574,1.574,3.57,1.606,5.454l-0.098-0.005
				c-0.133-1.82-0.632-3.83-1.851-5.122c-0.685-0.722-1.181-1.569-1.545-2.484c-0.175-0.46-0.304-0.944-0.352-1.451
				c-0.027-0.241-0.053-0.481-0.107-0.641c-0.087-0.118,0.105,0.073-0.097-0.062c-0.199-0.133-0.279-0.302-0.342-0.424
				c-0.679-1.917-1-3.676-1.746-5.388c-0.639-1.738-1.544-3.396-2.273-5.164L385.074,289.544z"/>
			<path style="fill:#976E62;" d="M385.065,289.185c2.379,2.715,3.982,6.026,4.931,9.515c0.475,1.71,1.042,3.382,1.794,4.979
				c0.797,1.549,1.725,3.2,1.815,5.015l-0.097,0.013c-0.206-1.806-1.174-3.289-2.088-4.839c-0.874-1.575-1.502-3.275-2.068-4.968
				c-1.172-3.331-3.097-6.282-4.372-9.665L385.065,289.185z"/>
			<path style="fill:#976E62;" d="M384.816,289.583c1.496,0.716,2.342,2.142,3.216,3.394c0.828,1.328,1.477,2.693,2.159,4.132
				c0.572,1.493,0.8,3.039,1.4,4.375c0.705,1.254,1.942,2.466,2.137,4.053l-0.095,0.023c-0.338-1.56-1.556-2.512-2.461-3.84
				c-0.742-1.438-1.042-2.97-1.651-4.316c-0.721-1.294-1.571-2.615-2.325-3.922c-0.788-1.292-1.408-2.717-2.423-3.812
				L384.816,289.583z"/>
			<path style="fill:#976E62;" d="M392.605,308.93c-0.348-1.682-0.912-3.336-2.066-4.564c-1.325-1.099-2.134-2.93-2.544-4.574
				l-0.676-2.486c-0.171-0.778-0.598-1.59-0.718-2.507l-0.365-2.543c-0.174-0.802-0.229-1.726-0.833-2.288l0.043-0.088
				c0.857,0.449,1.134,1.421,1.433,2.217c0.285,0.833,0.447,1.694,0.659,2.516c0.135,0.796,0.501,1.543,0.719,2.445
				c0.219,0.851,0.35,1.703,0.535,2.533c0.347,1.697,0.887,3.19,2.156,4.438c1.138,1.402,1.549,3.195,1.753,4.884L392.605,308.93z"
				/>
			<path style="fill:#976E62;" d="M385.669,292.212c-0.547,0.134-0.469-0.927-0.766-2.139c-0.296-1.213-0.59-2.183-0.307-2.252
				c0.283-0.069,1.231,0.741,1.528,1.953C386.421,290.987,386.195,292.084,385.669,292.212z"/>
			<path style="fill:#976E62;" d="M386.25,291.006c-0.074,0.164-0.177,0.282-0.311,0.332c-0.528,0.199-0.577-0.864-1.017-2.032
				c-0.159-0.425-0.314-0.816-0.434-1.149c0.021,0.395,0.215,1.096,0.415,1.915c0.296,1.212,0.218,2.273,0.766,2.139
				C386.004,292.13,386.215,291.654,386.25,291.006z"/>
		</g>
		<g>
			<path style="fill:#976E62;" d="M387.061,303.687c1.086,1.557,2,3.223,2.698,5.021c0.612,1.834,0.787,3.738,1.114,5.599
				c0.326,1.837,0.529,3.732,0.989,5.518c0.267,1.817,2.091,3.188,1.907,5.231l-0.097-0.012c0.068-1.921-1.824-3.16-2.279-5.077
				c-0.573-1.834-0.864-3.681-1.292-5.527c-0.482-1.808-0.721-3.673-1.27-5.419c-0.5-1.771-1.272-3.482-1.859-5.29L387.061,303.687z
				"/>
			<path style="fill:#976E62;" d="M387.079,303.328c1.802,2.458,2.968,5.296,3.722,8.217c0.903,2.871,1.22,5.929,2.984,8.385
				l-0.076,0.061c-2.027-2.325-2.608-5.461-3.652-8.204c-1.102-2.777-2.192-5.51-3.065-8.416L387.079,303.328z"/>
			<path style="fill:#976E62;" d="M386.8,303.706c1.177,0.491,1.964,1.497,2.733,2.408c0.704,0.984,1.317,2.016,1.813,3.135
				c0.471,1.148,0.759,2.32,1.138,3.463c0.231,1.13,0.151,2.499,1.222,3.115l-0.04,0.089c-1.234-0.541-1.317-2.059-1.661-3.102
				c-0.463-1.076-0.843-2.196-1.356-3.208c-0.609-0.984-1.266-1.965-1.918-2.93c-0.616-0.998-1.21-1.997-1.981-2.886L386.8,303.706z
				"/>
			<path style="fill:#976E62;" d="M392.778,324.782c-1.143-1.421-1.77-3.187-2.234-4.93l-1.211-5.268
				c-0.408-1.772-0.858-3.455-1.096-5.327c-0.042-0.906-0.1-1.79-0.179-2.67c-0.12-0.85-0.125-1.812-0.702-2.451l0.05-0.084
				c0.851,0.536,1.073,1.565,1.325,2.418c0.228,0.893,0.338,1.802,0.48,2.684c0.244,1.692,0.649,3.513,0.891,5.278l0.92,5.311
				c0.333,1.746,0.812,3.498,1.835,4.981L392.778,324.782z"/>
			<path style="fill:#976E62;" d="M387.449,306.393c-0.556,0.091-0.397-0.96-0.6-2.192c-0.202-1.232-0.421-2.221-0.133-2.268
				c0.287-0.047,1.171,0.833,1.373,2.065C388.292,305.229,387.983,306.305,387.449,306.393z"/>
			<path style="fill:#976E62;" d="M388.12,305.235c-0.086,0.157-0.198,0.267-0.335,0.307c-0.541,0.157-0.509-0.906-0.857-2.104
				c-0.127-0.436-0.251-0.837-0.345-1.179c-0.01,0.395,0.131,1.109,0.267,1.941c0.202,1.232,0.043,2.283,0.6,2.192
				C387.789,306.337,388.037,305.878,388.12,305.235z"/>
		</g>
		<path style="fill:#976E62;" d="M372.61,268.917c-0.557-0.523-1.177-0.989-1.833-1.352c-0.233-0.129-0.474-0.247-0.706-0.367
			c-0.983-0.461-2.012-0.807-3.057-1.043c-0.741-0.175-1.505-0.298-2.274-0.371c-2.365-0.231-4.809-0.068-7.231,0.2
			c-0.828,0.082-1.663,0.185-2.487,0.296l-0.165,0.02c-2.958,0.394-5.931,0.759-8.923,1.118c-1.902,0.244-3.816,0.47-5.731,0.696
			c-3.4,0.409-6.821,0.81-10.239,1.24c-2.37,0.292-4.747,0.604-7.113,0.925c-3.289,0.435-6.592,0.91-9.86,1.431
			c-0.967,0.149-1.934,0.307-2.9,0.465c-2.849,0.479-5.694,0.997-8.523,1.562c-1.01,0.203-2.01,0.405-3.02,0.618
			c-2.42,0.525-4.836,1.078-7.226,1.688c-0.775,0.194-1.549,0.388-2.322,0.601c-1.557,0.409-3.1,0.845-4.632,1.299
			c-2.265,0.663-4.66,1.471-6.139,3.309c-1.864,2.32-1.774,5.611-1.401,8.563c0.527,4.204,1.892,8.965,5.778,10.656
			c1.761,0.769,3.759,0.74,5.684,0.681c1.709-0.053,3.426-0.116,5.131-0.208c20.216-0.94,38.429-1.39,57.625-5.959
			c4.158-0.99,8.54,0.127,11.662,3.046c4.432,4.144,9.311,8.611,11.269,10.625c5.642,5.801,8.82-2.832,13.272,1.911
			c0-6.261-1.016-30.837-9.548-29.993c-1.403,0.133-2.728,0.267-3.945,0.387c0.116-0.103,0.221-0.205,0.327-0.306l0.191-0.211
			c0.972-1.076,1.457-2.417,1.539-3.837c0.024-0.368,0.026-0.752-0.011-1.132c-0.165-2.139-1.145-4.335-2.652-6.003L372.61,268.917z
			"/>
		<path style="fill:#4A3129;" d="M303.947,299.179l1.56-1.36c6.296-0.662,8.362-1.479,14.745-3.091
			c4.06-1.026,8.262-2.086,12.248-2.85l17.684-3.386c2.951-0.566,6.086-0.87,8.916-1.967c6.397-2.478,10.329-2.71,15.419-6.381
			l-0.762,0.815c-5.191,3.743-8.065,4.738-14.395,6.506c-2.962,0.831-6.023,1.418-8.987,1.989l-17.691,3.387
			c-3.96,0.757-8.146,1.815-12.196,2.837C314.441,297.202,306.516,298.856,303.947,299.179z"/>
		<path style="fill:#976E62;" d="M280.794,297.741c2.135,1.823,4.999,2.613,7.804,2.725c2.805,0.113,10.181,0.706,12.723,0.238
			c0.327-0.06,3.927-2.676,4.185-2.886c0.369-0.301,3.352-4.296,3.42-4.766c0.845-5.822-3.419-9.017-8.236-12.394
			c-4.805-3.368-15.075-3.735-20.285-0.776C274.464,283.256,276.339,293.939,280.794,297.741z"/>
		<path style="fill:#4A3129;" d="M282.695,295.565c1.675,1.43,3.921,2.05,6.121,2.138c2.2,0.088,7.986,0.554,9.979,0.186
			c0.257-0.047,3.081-2.098,3.283-2.263c0.289-0.236,2.629-3.369,2.683-3.739c0.663-4.567-2.682-7.073-6.46-9.722
			c-3.769-2.642-11.825-2.929-15.911-0.609C277.73,284.203,279.2,292.582,282.695,295.565z"/>
		<g>
			<g>
				<path style="fill:#E8EEF2;" d="M366.769,273.766c0.68,4.964-0.047,8.504-2.798,11.082l-1.574,0.608
					c2.905-2.507,4.033-6.916,3.401-11.561c-0.17-1.3-0.324-1.429-1.037-2.1c-0.2-0.182-0.423-0.392-0.693-0.664
					c-1.778-1.792-4.313-3.324-7.137-4.317c-0.68-0.241-1.371-0.403-2.074-0.514l0.165-0.02c0.824-0.111,1.659-0.214,2.487-0.296
					c2.87,1.047,5.429,2.615,7.252,4.451c0.259,0.264,0.482,0.473,0.671,0.647C366.28,271.875,366.556,272.195,366.769,273.766z"/>
			</g>
			<g>
				<path style="fill:#E8EEF2;" d="M355.246,281.149c-1.072,2.981-3.154,5.147-5.063,7.344l-1.138,0.218
					c1.943-2.231,4.277-5.087,5.282-7.892c1.086-3.032,0.619-6.189-1.187-8.047c-1.601-1.637-4.194-3.713-6.252-4.179
					c-2.189-0.48-4.249-0.483-6.438-0.48c-0.079,0-0.168,0.001-0.246,0.001c1.915-0.226,3.829-0.452,5.731-0.696
					c0.382,0.061,0.775,0.131,1.161,0.222c2.271,0.509,4.968,2.632,6.739,4.445C355.909,274.206,356.456,277.767,355.246,281.149z"
					/>
			</g>
			<g>
				<path style="fill:#E8EEF2;" d="M342.752,282.49c-0.134,1.239-0.664,2.379-1.155,3.356c-0.989,1.975-1.535,3.016-2.81,4.829
					l-1.406,0.324c1.241-1.77,2.37-3.654,3.343-5.597c0.452-0.894,0.944-1.94,1.049-3.008c0.24-2.297-1.033-6.951-3.032-9.495
					c-1.263-1.609-5.368-2.12-8.082-2.466c-0.731-0.087-1.381-0.165-1.855-0.255c-0.847-0.152-1.85-0.048-2.822,0.062
					c-1.06,0.121-2.15,0.235-3.13,0.04c2.366-0.321,4.743-0.633,7.113-0.925c0.251,0.038,0.522,0.074,0.812,0.107
					c3.054,0.383,7.229,0.904,8.738,2.828C341.689,275.059,343.013,279.964,342.752,282.49z"/>
			</g>
			<g>
				<path style="fill:#E8EEF2;" d="M326.858,287.522c-0.778,2.57-1.727,4.197-3.036,6.458l-1.25,0.211
					c1.276-2.207,2.602-4.491,3.344-6.948c0.803-2.692,0.767-5.3-0.126-7.349c-1.805-4.175-6.831-6.001-10.726-6.804
					c-0.951-0.198-1.918-0.365-2.885-0.532c-0.695-0.121-1.391-0.243-2.088-0.384c0.966-0.158,1.933-0.317,2.9-0.465
					c0.766,0.132,1.522,0.266,2.27,0.42c5.917,1.214,9.868,3.764,11.426,7.368C327.667,281.764,327.732,284.615,326.858,287.522z"/>
			</g>
			<g>
				<path style="fill:#E8EEF2;" d="M316.752,284.714c0.072,2.742-0.346,8.617-4.065,11.656l-1.682,0.034
					c4.514-2.813,4.835-9.094,4.765-11.668c-0.032-1.061-0.121-2.184-0.574-3.143c-0.65-1.36-1.989-2.299-3.213-3.036
					c-4.025-2.423-8.707-3.858-13.432-4.203c1.009-0.213,2.009-0.415,3.019-0.618c3.855,0.639,7.599,1.983,10.921,3.979
					c1.342,0.811,2.822,1.861,3.589,3.452C316.612,282.297,316.715,283.536,316.752,284.714z"/>
			</g>
			<g>
				<path style="fill:#E8EEF2;" d="M310.768,291.208c-0.089,0.548-0.91,4.606-1.734,5.196c0,0-1.65,0.852-0.937,0
					c0.937-1.118,1.403-2.888,1.705-5.353c0.319-2.612-0.724-5.56-3.003-7.734c-2.279-2.174-5.339-3.405-7.748-4.232
					c-3.254-1.128-6.628-1.945-10.051-2.44c0.772-0.213,1.547-0.407,2.322-0.601c2.735,0.511,5.424,1.215,8.049,2.115
					c2.501,0.855,5.686,2.139,8.1,4.455C309.985,285.005,311.248,288.3,310.768,291.208z"/>
			</g>
			<path style="fill:#E8EEF2;" d="M370.061,267.189c-2.172-0.265-4.451,0.045-6.507,0.318l-2.212,0.292l-1.629,0.22l-9.245,1.227
				l-1.513,0.206l-11.311,1.501l-2.181,0.298l-15.947,2.121l-2.173,0.287l-9.884,1.315c-0.224,0.027-0.447,0.055-0.679,0.093
				c-0.748,0.092-1.514,0.196-2.269,0.309c-1.23,0.181-2.457,0.382-3.66,0.618c-1.568,0.321-3.136,0.711-4.676,1.177
				c-0.582,0.16-1.15,0.349-1.717,0.547c-0.304,0.096-0.606,0.203-0.908,0.309l-1.566-0.149c0.387-0.137,2.011-1.04,2.41-1.168
				c2.045-0.685,4.145-1.25,6.262-1.668c0.432-0.093,0.867-0.166,1.3-0.249c0.868-0.156,1.74-0.283,2.602-0.409
				c0.93-0.134,1.861-0.259,2.773-0.381l7.383-0.978l2.715-0.364l14.967-1.99l3.122-0.424l11.727-1.562l1.893-0.243l8.932-1.198
				l1.815-0.233l3.54-0.475c1.145-0.151,2.356-0.32,3.591-0.383C368.059,266.391,369.077,266.729,370.061,267.189z"/>
			<path style="fill:#E8EEF2;" d="M372.61,268.917c-2.259,0.948-4.578,1.737-6.931,2.401c-0.371,0.105-0.733,0.209-1.106,0.304
				c-3.16,0.842-6.384,1.476-9.635,1.975c-0.338,0.061-0.686,0.114-1.036,0.157c-4.222,0.618-8.491,1.025-12.725,1.379
				c-0.35,0.043-0.692,0.066-1.044,0.089c-0.643,0.059-1.287,0.119-1.931,0.169c-4.41,0.375-8.949,0.746-13.403,1.324
				c-0.417,0.052-0.825,0.102-1.232,0.161c-0.116,0.014-0.223,0.028-0.34,0.042c-3.15,0.437-6.306,0.993-9.427,1.663
				c-0.443,0.084-0.884,0.188-1.325,0.291c-2.496,0.544-4.972,1.174-7.43,1.871c-0.428,0.122-0.857,0.243-1.285,0.375
				c-0.192,0.043-1.463,0.491-1.654,0.544l0.953,0.702c0.466-0.136,1.354-0.429,1.831-0.557c0.4-0.118,0.799-0.236,1.21-0.346
				c2.46-0.677,4.938-1.288,7.444-1.833c0.394-0.088,0.798-0.167,1.202-0.247c2.864-0.599,5.741-1.091,8.62-1.495
				c0.359-0.044,0.708-0.097,1.067-0.141c0.378-0.056,0.756-0.103,1.135-0.15c4.224-0.52,8.539-0.874,12.714-1.23
				c0.752-0.063,1.503-0.126,2.264-0.19c0.341-0.032,0.683-0.055,1.023-0.096c4.255-0.356,8.541-0.775,12.791-1.407
				c0.33-0.04,0.659-0.091,0.987-0.151c3.386-0.525,6.734-1.194,10.024-2.102c0.324-0.089,0.648-0.178,0.973-0.268
				c2.341-0.682,4.649-1.479,6.907-2.437l-0.099-0.244L372.61,268.917z"/>
			<path style="fill:#E8EEF2;" d="M375.803,275.474c-2.844,1.721-6.045,2.874-9.201,3.824c-0.362,0.104-0.714,0.206-1.076,0.31
				c-1.027,0.304-2.039,0.577-3.031,0.847c-2.577,0.692-5.19,1.408-7.831,2.058c-0.421,0.101-0.832,0.211-1.253,0.312
				c-1.628,0.388-3.259,0.756-4.886,1.074c-2.156,0.423-4.331,0.78-6.519,1.098c-0.387,0.057-0.774,0.115-1.162,0.173
				c-1.609,0.227-3.21,0.434-4.79,0.649l-9.06,1.204l-1.057,0.14l-9.4,1.246l-1.009,0.134l-4.705,0.619l-0.97,0.129l-1.019,0.135
				l0.129,0.97l0.912-0.122l0.99-0.131l4.472-0.59l1.028-0.137l9.235-1.225l1.086-0.143l9.516-1.26
				c1.349-0.176,2.716-0.364,4.083-0.552c0.397-0.059,0.794-0.118,1.201-0.177c2.412-0.346,4.839-0.734,7.226-1.205
				c1.328-0.262,2.654-0.544,3.976-0.854c0.451-0.105,0.901-0.209,1.35-0.324c2.94-0.707,5.859-1.5,8.711-2.275
				c0.802-0.217,1.621-0.446,2.451-0.676c0.372-0.105,0.743-0.21,1.123-0.326c3.217-0.938,6.507-2.083,9.491-3.791L375.803,275.474z
				"/>
			<path style="fill:#E8EEF2;" d="M305.507,297.819l1.052-1.288c5.044-0.844,6.85-1.26,11.853-2.345
				c2.747-0.595,5.486-1.225,8.225-1.857l22.378-5.154c8.347-1.923,18.332-4.636,26.246-8.243c-0.278,0.591-0.654,1.164-1.169,1.71
				c-8.004,3.648-16.464,5.552-24.858,7.486l-22.378,5.154c-2.742,0.632-5.485,1.264-8.237,1.86
				C313.601,296.231,310.565,296.971,305.507,297.819z"/>
		</g>
		<path style="fill:#976E62;" d="M377.703,280.578c-1.155,2.232,4.667,3.803,1.855,5.628c-3.819,1.091-14.847,5.567-18.665,6.658
			c-21.685,6.208-39.137,6.709-61.664,7.757c2.685-2.214,2.619-3.944,5.365-5.346c6.392-3.252,36.892-6.975,53.975-12.44
			c10.869-3.487,12.151-13.625,6.173-17.047c2.116,0.213,4.163,0.74,6.036,1.781c4.687,2.598,7.021,9.862,2.98,13.396
			C374.975,280.845,376.3,280.712,377.703,280.578z"/>
	</g>
</g>
</svg>
