<svg width="500" height="500" viewBox="0 0 500 500" fill="none" xmlns="http://www.w3.org/2000/svg">
<path d="M425.54 381.51C415.77 413.19 405.51 436.28 405.51 436.28H111.61C111.61 436.28 81.0101 390.68 65.1501 342.9C49.2901 295.12 55.6401 231.86 95.8801 199.63C112.42 186.38 120.49 180.03 126.72 172.71C135.63 162.21 140.77 149.7 161.62 111.96C174.18 89.24 188.91 75.67 202.71 67.61C227.82 52.93 249.8 56.53 249.8 56.53C300.43 57.32 316.53 97.42 346.56 130.44C369.05 155.17 402.39 174.61 423.74 211.93C430.9 224.44 436.71 238.96 440.31 256.37C448.1 294.02 437.17 343.84 425.54 381.51Z" fill="#00235E"/>
<path d="M425.54 381.51C415.77 413.19 405.51 436.28 405.51 436.28H111.61C111.61 436.28 81.0101 390.68 65.1501 342.9C49.2901 295.12 55.6401 231.86 95.8801 199.63C112.42 186.38 120.49 180.03 126.72 172.71C150.99 217.23 186.42 266.93 236.68 307.25C304.07 361.3 375.28 377.68 425.54 381.51Z" fill="#0A3575"/>
<path d="M423.74 211.93C282.53 163.44 224.27 99.57 202.71 67.61C227.82 52.93 249.8 56.53 249.8 56.53C300.43 57.32 316.53 97.42 346.56 130.44C369.05 155.17 402.39 174.61 423.74 211.93Z" fill="#0A3575"/>
<path d="M363.041 136.93H290.908C290.908 136.93 294.785 122.516 305.03 118.97C315.275 115.424 323.582 120.113 325.936 125.591C325.936 125.591 331.889 107.43 348.365 107.43C362.628 107.43 369.271 117.379 371.348 125.686C371.348 125.686 388.211 121.306 389.471 137.264L363.041 136.93Z" fill="url(#paint0_linear_273_756)"/>
<path d="M175.394 153.633H117.259C117.259 153.633 120.383 142.016 128.64 139.158C136.897 136.3 143.592 140.079 145.489 144.494C145.489 144.494 150.287 129.857 163.566 129.857C175.061 129.857 180.415 137.875 182.089 144.57C182.089 144.57 195.68 141.04 196.695 153.901L175.394 153.633Z" fill="url(#paint1_linear_273_756)"/>
<path d="M441.278 238.636H383.143C383.143 238.636 386.267 227.019 394.524 224.161C402.781 221.303 409.476 225.082 411.373 229.497C411.373 229.497 416.171 214.86 429.45 214.86C440.945 214.86 446.299 222.878 447.973 229.573C447.973 229.573 461.564 226.043 462.579 238.904L441.278 238.636Z" fill="url(#paint2_linear_273_756)"/>
<path d="M159.76 81.325L165.286 79.287L159.825 77.339C158.769 76.962 157.937 76.131 157.56 75.074L155.612 69.613L153.747 75.013C153.377 76.086 152.539 76.932 151.47 77.313L145.939 79.286L151.262 81.124C152.321 81.49 153.161 82.312 153.549 83.364L155.613 88.959L157.534 83.575C157.905 82.533 158.721 81.708 159.76 81.325Z" fill="#5D90FF"/>
<path d="M361.073 93.4679L365.136 91.9699L361.121 90.5379C360.344 90.2609 359.733 89.6499 359.456 88.8729L358.024 84.8579L356.653 88.8279C356.381 89.6169 355.765 90.2389 354.979 90.5189L350.912 91.9699L354.826 93.3219C355.605 93.5909 356.222 94.1949 356.507 94.9689L358.024 99.0829L359.436 95.1239C359.709 94.3559 360.309 93.7499 361.073 93.4679Z" fill="#5D90FF"/>
<path d="M413.159 287.62L417.222 286.122L413.207 284.69C412.43 284.413 411.819 283.802 411.542 283.025L410.11 279.01L408.739 282.98C408.467 283.769 407.851 284.391 407.065 284.671L402.998 286.122L406.912 287.474C407.691 287.743 408.308 288.347 408.593 289.121L410.11 293.235L411.522 289.276C411.795 288.508 412.395 287.902 413.159 287.62Z" fill="#5D90FF"/>
<path d="M353.088 168.889L358.023 167.069L353.146 165.329C352.202 164.992 351.46 164.25 351.123 163.306L349.383 158.429L347.717 163.252C347.386 164.21 346.638 164.966 345.683 165.307L340.742 167.069L345.496 168.711C346.442 169.038 347.192 169.772 347.539 170.711L349.382 175.709L351.097 170.9C351.431 169.968 352.16 169.231 353.088 168.889Z" fill="white"/>
<path d="M261.669 40.7139L266.604 38.8939L261.726 37.1539C260.782 36.8169 260.04 36.0749 259.703 35.1309L257.963 30.2529L256.297 35.0759C255.966 36.0339 255.218 36.7899 254.263 37.1309L249.323 38.8929L254.077 40.5349C255.023 40.8619 255.773 41.5959 256.12 42.5349L257.963 47.5329L259.678 42.7239C260.012 41.7929 260.741 41.0569 261.669 40.7139Z" fill="#5D90FF"/>
<path d="M92.14 186.965L97.198 185.099L92.199 183.316C91.232 182.971 90.471 182.21 90.126 181.243L88.343 176.244L86.636 181.187C86.297 182.169 85.53 182.944 84.551 183.293L79.488 185.099L84.361 186.782C85.331 187.117 86.099 187.869 86.454 188.832L88.343 193.954L90.101 189.025C90.442 188.071 91.189 187.316 92.14 186.965Z" fill="#5D90FF"/>
<path d="M327.317 76.51C341.674 76.51 353.312 64.8717 353.312 50.515C353.312 36.1584 341.674 24.52 327.317 24.52C312.96 24.52 301.322 36.1584 301.322 50.515C301.322 64.8717 312.96 76.51 327.317 76.51Z" fill="url(#paint3_linear_273_756)"/>
<path d="M339.078 215.572C323.234 160.357 270.698 162.552 250.222 112.047C229.746 162.552 176.865 156.802 161.021 212.017C137.722 293.218 184.8 404.22 184.8 404.22H250.222H315.644C315.644 404.22 362.379 296.773 339.078 215.572Z" fill="url(#paint4_radial_273_756)"/>
<path d="M316.038 243.986C304.266 202.962 265.233 204.593 250.02 167.069C234.807 204.593 195.517 200.321 183.746 241.345C166.434 301.676 201.413 384.148 201.413 384.148H250.02H298.627C298.627 384.148 333.35 304.317 316.038 243.986Z" fill="url(#paint5_radial_273_756)"/>
<path d="M297.724 266.857C289.212 237.194 260.989 238.374 249.989 211.241C238.989 238.373 210.58 235.284 202.069 264.947C189.552 308.57 214.843 368.202 214.843 368.202H249.989H285.135C285.135 368.202 310.241 310.48 297.724 266.857Z" fill="url(#paint6_radial_273_756)"/>
<path d="M257.121 114.273C250.84 114.273 245.747 109.181 245.747 102.899C245.747 96.6181 250.839 91.5261 257.121 91.5261C260.584 91.5261 263.68 93.0791 265.766 95.5201C263.204 91.0551 258.394 88.0461 252.877 88.0461C244.674 88.0461 238.024 94.6961 238.024 102.899C238.024 111.102 244.674 117.753 252.877 117.753C258.393 117.753 263.204 114.743 265.766 110.279C263.68 112.72 260.584 114.273 257.121 114.273Z" fill="#5D90FF"/>
<path d="M255.296 96.0723L257.141 99.8113L261.267 100.411L258.282 103.321L258.986 107.43L255.296 105.49L251.605 107.43L252.31 103.321L249.325 100.411L253.451 99.8113L255.296 96.0723Z" fill="#5D90FF"/>
<path d="M198.59 415.848C198.59 415.848 134.162 185.414 96.1781 138.334C101.65 137.595 107.196 136.688 108.052 135.95C109.813 134.433 109.269 129.447 109.269 129.447C109.269 129.447 110.596 133.759 112.847 134.788C115.097 135.817 120.683 133.594 122.276 131.881C123.869 130.168 122.727 124.674 122.727 124.674C122.727 124.674 124.739 130.782 126.028 130.695C127.317 130.608 136.696 127.643 137.31 126.773C137.924 125.903 136.287 120.835 136.287 120.835C136.287 120.835 139.523 126.571 141.077 126.395C142.631 126.22 153.079 124.1 151.98 121.637C150.881 119.174 136.008 109.824 117.277 115.39C111.701 117.047 106.564 119.875 102.089 123.025C102.307 122.618 102.44 122.297 102.46 122.092C102.686 119.778 98.8481 116.549 98.8481 116.549C98.8481 116.549 102.786 118.75 105.124 117.939C107.462 117.129 109.965 111.663 109.934 109.324C109.902 106.985 105.281 103.801 105.281 103.801C105.281 103.801 110.956 106.828 111.827 105.875C112.699 104.922 117.432 96.299 117.275 95.246C117.118 94.192 112.434 91.659 112.434 91.659C112.434 91.659 118.736 93.571 119.738 92.371C120.74 91.171 126.83 82.421 124.335 81.399C121.839 80.377 104.626 83.89 94.9271 100.853C89.3671 110.578 87.9611 122.32 87.7731 130.578C80.2181 127.283 67.6231 123.025 55.2911 124.431C35.8761 126.645 25.8531 141.072 25.8061 143.769C25.7601 146.466 36.2031 144.325 37.7011 143.878C39.1991 143.431 39.9311 136.886 39.9311 136.886C39.9311 136.886 40.4091 142.19 41.3141 142.75C42.2201 143.31 52.0111 142.365 53.2311 141.941C54.4511 141.517 53.9101 135.108 53.9101 135.108C53.9101 135.108 55.0111 140.611 57.1471 141.563C59.2841 142.515 65.2941 142.374 66.9611 140.545C68.6291 138.717 68.1621 134.23 68.1621 134.23C68.1621 134.23 69.6131 139.031 71.8281 139.738C72.6591 140.003 76.0961 139.269 80.0691 138.247C73.8341 141.894 67.0181 146.992 62.1511 153.714C50.6921 169.542 54.5841 186.673 56.5431 188.526C58.5031 190.379 63.9661 181.224 64.6461 179.816C65.3261 178.408 60.9871 173.454 60.9871 173.454C60.9871 173.454 65.2251 176.678 66.2501 176.387C67.2751 176.096 73.1811 168.23 73.6901 167.043C74.1991 165.856 69.1031 161.933 69.1031 161.933C69.1031 161.933 73.9081 164.831 76.0521 163.896C78.1961 162.961 82.1451 158.428 81.9201 155.964C81.6951 153.5 78.0671 150.818 78.0671 150.818C78.0671 150.818 82.5911 152.984 84.6061 151.825C85.5951 151.256 88.3291 146.241 90.8591 141.279C102.356 175.175 162.793 356.347 161.624 415.848H198.59Z" fill="#00235E"/>
<path d="M205.702 334.934L166.802 398.516C166.802 398.516 166.102 397.217 164.783 395.103C161.587 390.007 154.751 380.138 145.331 372.3C142.535 369.977 139.514 367.834 136.299 366.038C125.746 360.163 116.39 355.819 109.911 348.562C107.631 345.999 105.7 343.082 104.202 339.594C98.45 326.241 73.817 320.846 73.817 320.846L113.417 263.938C113.417 263.938 123.411 266.471 132.296 271.527C136.497 273.922 140.457 276.877 142.989 280.405C150.888 291.385 154.174 301.731 165.556 304.324C167.282 304.713 169.009 305.103 170.731 305.519C175.626 306.694 180.463 308.098 185.018 310.505C189.394 312.814 193.528 316.039 197.197 320.871C206.021 332.45 205.704 334.916 205.702 334.934Z" fill="#9595EF"/>
<path d="M112.848 262.367C112.132 262.006 111.301 262.08 110.57 262.472C109.293 261.587 107.515 260.54 105.678 260.064L104.629 261.763C104.629 261.763 106.968 262.73 109.052 264.152C108.601 265.193 108.685 266.31 109.205 267.097C108.605 266.928 107.957 267.017 107.37 267.315C106.083 266.381 104.111 265.147 102.069 264.618L101.02 266.317C101.02 266.317 103.659 267.409 105.829 268.979C105.355 270.034 105.433 271.173 105.962 271.973C105.33 271.795 104.646 271.908 104.036 272.245C102.748 271.323 100.833 270.148 98.8551 269.635L97.8061 271.334C97.8061 271.334 100.39 272.404 102.547 273.947C102.118 274.976 102.206 276.072 102.719 276.849C102.091 276.672 101.411 276.782 100.804 277.115C99.5161 276.19 97.5891 275.003 95.5981 274.487L94.5491 276.186C94.5491 276.186 97.1491 277.262 99.3091 278.812C98.8741 279.844 98.9621 280.946 99.4771 281.725C98.8041 281.535 98.0721 281.679 97.4331 282.071C96.1471 281.133 94.1521 279.875 92.0841 279.339L91.0351 281.038C91.0351 281.038 93.8111 282.186 96.0091 283.82C95.6361 284.813 95.7401 285.855 96.2331 286.601C95.6031 286.424 94.9201 286.535 94.3111 286.871C93.0241 285.938 91.0571 284.709 89.0201 284.181L87.9711 285.88C87.9711 285.88 90.6431 286.986 92.8191 288.571C92.3871 289.601 92.4751 290.7 92.9891 291.478C92.3221 291.29 91.5981 291.429 90.9631 291.813C89.7441 290.872 87.4661 289.308 85.0971 288.694L84.0481 290.393C84.0481 290.393 87.2741 291.727 89.5251 293.566C89.1491 294.561 89.2521 295.606 89.7461 296.354C89.2541 296.215 88.7301 296.258 88.2331 296.439C86.9981 295.493 84.7651 293.98 82.4431 293.378L81.3941 295.077C81.3941 295.077 84.2901 296.273 86.5091 297.964C86.4861 298.006 86.4571 298.043 86.4351 298.086C85.8821 299.181 85.9501 300.392 86.5031 301.23C85.9131 301.064 85.2771 301.15 84.6981 301.436C83.4521 300.488 81.2531 299.011 78.9641 298.418L77.9151 300.117C77.9151 300.117 80.9061 301.354 83.1371 303.088C82.6501 304.149 82.7271 305.3 83.2591 306.106C82.8051 305.978 82.3211 305.998 81.8591 306.145C80.6281 305.201 78.3831 303.672 76.0471 303.067L74.9981 304.766C74.9981 304.766 77.8641 305.949 80.0771 307.624C80.0341 307.696 79.9861 307.762 79.9481 307.838C79.3951 308.933 79.4631 310.144 80.0161 310.982C79.4581 310.825 78.8591 310.899 78.3051 311.149C77.0391 310.2 74.9081 308.799 72.6961 308.226L71.6471 309.925C71.6471 309.925 74.4791 311.094 76.6871 312.755C76.1561 313.84 76.2261 315.031 76.7731 315.859C76.2141 315.702 75.6151 315.776 75.0611 316.027C73.7981 315.078 71.6581 313.668 69.4371 313.092L68.3881 314.791C68.3881 314.791 71.2351 315.966 73.4451 317.633C72.7041 319.146 73.1191 320.879 74.3891 321.52C75.6701 322.167 77.3321 321.456 78.1011 319.933C78.6541 318.838 78.5861 317.627 78.0331 316.789C79.2421 317.129 80.6541 316.427 81.3451 315.057C81.8981 313.962 81.8301 312.751 81.2771 311.913C82.4861 312.254 83.8981 311.551 84.5891 310.181C85.1421 309.086 85.0741 307.875 84.5211 307.037C85.7301 307.377 87.1411 306.675 87.8331 305.305C88.3861 304.21 88.3181 302.999 87.7651 302.161C88.9741 302.501 90.3861 301.799 91.0771 300.429C91.6301 299.334 91.5621 298.123 91.0091 297.285C92.2181 297.626 93.6301 296.923 94.3211 295.553C94.8741 294.458 94.8061 293.247 94.2531 292.409C95.4621 292.75 96.8731 292.047 97.5651 290.677C98.1181 289.582 98.0501 288.371 97.4971 287.533C98.7061 287.874 100.117 287.171 100.809 285.801C101.362 284.706 101.294 283.495 100.741 282.657C101.95 282.998 103.361 282.295 104.053 280.925C104.606 279.83 104.538 278.619 103.985 277.781C105.194 278.122 106.605 277.419 107.297 276.049C107.85 274.954 107.782 273.743 107.229 272.905C108.438 273.245 109.849 272.543 110.541 271.173C111.094 270.078 111.026 268.867 110.473 268.029C111.682 268.37 113.094 267.667 113.785 266.297C114.544 264.773 114.129 263.014 112.848 262.367Z" fill="#C7C7FF"/>
<path d="M122.703 275.398C125.832 276.616 128.467 278.105 130.731 279.781C128.013 293.089 123.016 313.579 114.467 336.78C113.969 335.745 113.49 334.631 113.006 333.425C108.725 322.68 95.3831 319.136 95.3831 319.136L122.703 275.398Z" fill="#C7C7FF"/>
<path d="M182.931 321.735C180.2 335.945 176.178 355.171 171.289 373.385L166.778 380.611C161.893 372.229 156.384 366.099 150.91 361.588C157.261 348.335 164.128 330.671 168.432 314.887C170.868 315.628 173.488 316.494 176.388 317.782C178.736 318.821 180.93 320.205 182.931 321.735Z" fill="#C7C7FF"/>
<path d="M168.431 314.887C164.127 330.672 157.26 348.335 150.909 361.588C144.008 355.898 137.159 352.779 131.74 350.958C123.11 348.054 118.402 344.96 114.466 336.78C123.015 313.579 128.012 293.089 130.73 279.781C140.645 287.066 143.563 297.836 150.215 305.098C156.239 311.672 161.589 312.791 168.431 314.887Z" fill="#B0B0EA"/>
<path d="M131.74 350.958C137.159 352.779 144.008 355.898 150.909 361.588C148.975 365.623 147.086 369.254 145.332 372.3C142.536 369.977 139.515 367.834 136.3 366.038C125.747 360.163 116.391 355.819 109.912 348.562C111.538 344.576 113.058 340.64 114.467 336.78C118.402 344.96 123.11 348.054 131.74 350.958Z" fill="#6767D6"/>
<path d="M170.733 305.518C170.087 308.533 169.315 311.667 168.431 314.886C161.589 312.79 156.239 311.672 150.215 305.097C143.563 297.835 140.645 287.065 130.73 279.78C131.373 276.592 131.894 273.825 132.297 271.525C136.498 273.92 140.458 276.875 142.99 280.403C150.889 291.383 154.175 301.729 165.557 304.322C167.284 304.713 169.01 305.102 170.733 305.518Z" fill="#6767D6"/>
<path d="M195.138 335.189L171.288 373.386C176.177 355.172 180.2 335.946 182.93 321.736C190.371 327.416 195.138 335.189 195.138 335.189Z" fill="#B0B0EA"/>
<path d="M205.702 334.934L166.802 398.516C166.802 398.516 166.102 397.217 164.783 395.103C167.08 388.325 169.259 380.938 171.288 373.385L195.138 335.188C195.138 335.188 190.371 327.415 182.93 321.734C183.743 317.492 184.45 313.692 185.02 310.503C189.396 312.812 193.53 316.037 197.199 320.869C206.021 332.45 205.704 334.916 205.702 334.934Z" fill="#6767D6"/>
<path d="M206.81 339.599C208.937 341.021 210.743 342.895 210.743 342.895L211.9 341.108C210.743 339.51 209.083 338.223 207.767 337.358C207.842 336.464 207.586 335.612 206.973 335.068C205.876 334.093 204.091 334.465 202.987 335.898C201.994 337.187 201.898 338.888 202.685 339.928C201.696 339.755 200.552 340.225 199.759 341.256C198.766 342.545 198.67 344.246 199.457 345.286C198.468 345.113 197.324 345.583 196.531 346.614C195.538 347.903 195.442 349.605 196.229 350.645C195.24 350.472 194.097 350.942 193.303 351.973C192.31 353.262 192.214 354.964 193.001 356.003C192.012 355.83 190.869 356.3 190.075 357.331C189.082 358.62 188.986 360.322 189.773 361.361C188.784 361.188 187.64 361.658 186.847 362.689C185.854 363.978 185.758 365.68 186.545 366.72C185.556 366.547 184.412 367.017 183.619 368.048C182.626 369.337 182.53 371.039 183.317 372.079C182.328 371.906 181.184 372.376 180.39 373.407C179.397 374.696 179.301 376.398 180.088 377.438C179.099 377.265 177.956 377.735 177.162 378.766C176.169 380.055 176.073 381.756 176.86 382.796C175.871 382.623 174.728 383.093 173.934 384.124C172.941 385.413 172.845 387.115 173.632 388.154C172.643 387.981 171.499 388.451 170.706 389.482C169.713 390.771 169.617 392.473 170.404 393.513C169.415 393.34 168.272 393.81 167.478 394.841C166.374 396.274 166.369 398.226 167.466 399.201C168.554 400.167 170.314 399.807 171.42 398.406C173.822 399.844 176.018 402.126 176.018 402.126L177.175 400.339C175.776 398.407 173.639 396.925 172.269 396.101C172.284 395.444 172.117 394.821 171.754 394.34C172.731 394.511 173.857 394.052 174.65 393.047C177.045 394.485 179.231 396.756 179.231 396.756L180.388 394.969C178.994 393.045 176.869 391.566 175.498 390.741C175.512 390.085 175.346 389.461 174.983 388.981C175.972 389.154 177.115 388.684 177.909 387.653C177.964 387.581 178.006 387.505 178.056 387.431C180.467 388.868 182.678 391.165 182.678 391.165L183.835 389.378C182.363 387.345 180.076 385.812 178.724 385.019C178.678 384.498 178.508 384.014 178.212 383.623C179.163 383.79 180.254 383.355 181.043 382.405C183.515 383.833 185.825 386.23 185.825 386.23L186.982 384.443C185.541 382.452 183.318 380.942 181.957 380.135C181.995 379.438 181.825 378.773 181.441 378.266C182.43 378.439 183.573 377.969 184.367 376.938C184.398 376.897 184.421 376.853 184.451 376.811C186.877 378.246 189.113 380.568 189.113 380.568L190.27 378.781C188.807 376.76 186.538 375.233 185.183 374.436C185.156 373.866 184.99 373.331 184.67 372.908C185.553 373.063 186.557 372.701 187.328 371.889C189.905 373.289 192.396 375.875 192.396 375.875L193.553 374.088C192.06 372.027 189.727 370.477 188.383 369.694C188.488 368.898 188.333 368.123 187.899 367.55C188.817 367.711 189.865 367.31 190.646 366.428C192.959 367.869 195.024 370.01 195.024 370.01L196.181 368.223C194.898 366.451 192.995 365.059 191.631 364.205C191.702 363.456 191.538 362.734 191.128 362.192C192.009 362.346 193.011 361.987 193.781 361.179C196.148 362.619 198.292 364.844 198.292 364.844L199.449 363.057C198.146 361.258 196.206 359.851 194.838 359.001C194.95 358.198 194.796 357.413 194.358 356.834C195.278 356.995 196.328 356.593 197.11 355.707C199.385 357.147 201.393 359.23 201.393 359.23L202.55 357.443C201.295 355.71 199.447 354.34 198.091 353.481C198.16 352.735 197.995 352.016 197.587 351.477C198.504 351.638 199.55 351.238 200.331 350.359C202.598 351.798 204.595 353.869 204.595 353.869L205.752 352.082C204.506 350.361 202.673 348.996 201.319 348.137C201.392 347.386 201.228 346.662 200.817 346.119C201.761 346.284 202.843 345.857 203.63 344.921C205.926 346.362 207.966 348.477 207.966 348.477L209.123 346.69C207.836 344.913 205.927 343.519 204.562 342.665C204.608 341.955 204.436 341.277 204.046 340.761C204.964 340.917 206.026 340.504 206.81 339.599Z" fill="#C7C7FF"/>
<path d="M395.666 398.048C395.482 391.154 392.57 384.603 387.541 379.855L384.486 376.971L353.086 378.049L321.811 376.971L318.763 379.86C313.749 384.612 310.85 391.16 310.674 398.048H310.669V398.263C310.666 398.412 310.657 398.561 310.657 398.71V398.741H310.669V435.107H395.685V398.741V398.048H395.666Z" fill="#D69A32"/>
<path d="M367.523 254.651C369.232 252.951 371.501 250.004 371.51 246.333C371.546 236.713 358.364 230.52 354.983 227.853V225.882H355.996V223.676C357.651 222.98 358.817 221.352 358.817 219.445C358.817 216.913 356.765 214.861 354.233 214.861C351.692 214.861 349.64 216.913 349.64 219.445C349.64 221.353 350.806 222.98 352.461 223.676V225.882H353.338V227.925C349.812 230.628 336.865 236.794 336.901 246.333C336.91 249.769 338.89 252.562 340.545 254.307L321.811 278.321V374.14H384.874V278.321L367.523 254.651ZM351.483 219.445C351.483 217.926 352.713 216.696 354.232 216.696C355.742 216.696 356.971 217.926 356.971 219.445C356.971 220.955 355.741 222.185 354.232 222.185C352.713 222.184 351.483 220.954 351.483 219.445Z" fill="url(#paint7_linear_273_756)"/>
<path d="M361.713 299.266C362.009 293.151 357.202 294.039 357.202 294.039C357.202 294.039 357.275 290.045 357.202 286.346C357.136 283.016 354.02 280.414 353.397 279.926V279.837C353.397 279.837 353.374 279.854 353.339 279.881C353.304 279.854 353.281 279.837 353.281 279.837V279.926C352.658 280.413 349.542 283.016 349.476 286.346C349.403 290.044 349.476 294.039 349.476 294.039C349.476 294.039 344.669 293.151 344.965 299.266C342.024 299.266 339.639 301.65 339.639 304.592V313.648V327.374V336.43C339.639 339.371 342.023 341.756 344.965 341.756C344.669 347.871 349.476 346.983 349.476 346.983C349.476 346.983 349.403 350.977 349.476 354.676C349.542 358.006 352.658 360.608 353.281 361.096V361.185C353.281 361.185 353.304 361.168 353.339 361.141C353.374 361.168 353.397 361.185 353.397 361.185V361.096C354.019 360.609 357.136 358.006 357.202 354.676C357.275 350.978 357.202 346.983 357.202 346.983C357.202 346.983 362.009 347.871 361.713 341.756C364.654 341.756 367.039 339.372 367.039 336.43V327.374V313.648V304.592C367.038 301.651 364.654 299.266 361.713 299.266Z" fill="white"/>
<path d="M334.043 304.595V336.429C334.043 339.368 331.656 341.754 328.718 341.754C329.007 347.866 324.206 346.98 324.206 346.98C324.206 346.98 324.278 350.976 324.206 354.674C324.161 356.781 322.895 358.598 321.81 359.773V281.25C322.895 282.416 324.161 284.234 324.206 286.349C324.278 290.047 324.206 294.043 324.206 294.043C324.206 294.043 329.007 293.148 328.718 299.269C331.656 299.27 334.043 301.647 334.043 304.595Z" fill="white"/>
<path d="M384.873 279.885V361.139C384.837 361.166 384.81 361.184 384.81 361.184V361.094C384.195 360.606 381.076 358.002 381.013 354.675C380.932 350.977 381.013 346.981 381.013 346.981C381.013 346.981 376.203 347.867 376.501 341.755C373.554 341.755 371.176 339.368 371.176 336.43V304.596C371.176 301.648 373.554 299.271 376.501 299.271C376.203 293.15 381.013 294.045 381.013 294.045C381.013 294.045 380.932 290.049 381.013 286.351C381.076 283.015 384.195 280.42 384.81 279.932V279.842C384.809 279.84 384.837 279.858 384.873 279.885Z" fill="white"/>
<path d="M384.873 278.321C384.873 278.321 375.823 280.491 370.597 275.934C370.597 275.934 360.552 278.601 352.479 277.95V277.959C344.568 278.709 336.539 276.087 336.105 275.943C336.096 275.943 336.096 275.934 336.087 275.934C330.861 280.491 321.811 278.321 321.811 278.321L340.545 254.307L346.069 254.407L352.561 254.524V254.515L362.226 254.605L367.524 254.65L384.873 278.321Z" fill="#E7B142"/>
<path d="M370.597 275.934C370.597 275.934 360.552 278.601 352.479 277.95V277.959C344.568 278.709 336.539 276.087 336.105 275.943C336.096 275.943 336.096 275.934 336.087 275.934L346.068 254.407H362.143L362.224 254.606L370.597 275.934Z" fill="#D69A32"/>
<path d="M388.734 372.948H317.437V380.995H388.734V372.948Z" fill="#E7B142"/>
<path d="M252.598 462.167C350.037 462.167 429.026 454.793 429.026 445.697C429.026 436.601 350.037 429.227 252.598 429.227C155.16 429.227 76.17 436.601 76.17 445.697C76.17 454.793 155.16 462.167 252.598 462.167Z" fill="url(#paint8_linear_273_756)"/>
<path d="M38.3001 329.264C38.3001 329.264 37.1101 337.01 41.2751 342.045C45.4401 347.08 37.1511 353.084 39.7091 361.024C42.2671 368.964 48.0191 367.027 48.0191 373.418C48.0191 379.809 42.8621 385.038 49.6061 393.365C56.3501 401.692 63.2921 398.206 64.4821 405.178C65.6721 412.15 61.9041 420.671 70.4321 426.674C78.9611 432.678 90.6631 435.776 114.662 436.163C114.662 436.163 124.777 410.794 122.992 398.399C121.207 386.005 110.497 386.005 110.298 381.938C110.1 377.871 110.496 367.026 105.339 361.797C100.182 356.568 91.2571 358.892 89.8691 354.632C88.4811 350.372 87.3451 342.431 80.6731 338.752C74.0021 335.072 66.0681 337.396 63.4901 333.911C60.9121 330.425 53.7901 322.141 44.4491 322.098C37.7791 322.068 38.3001 329.264 38.3001 329.264Z" fill="url(#paint9_linear_273_756)"/>
<path d="M48.118 331.104C48.118 331.104 103.157 402.371 112.975 434.421" stroke="white" stroke-width="0.5" stroke-miterlimit="10" stroke-linecap="round" stroke-linejoin="round"/>
<path d="M46.333 358.991L69.117 359.645" stroke="white" stroke-width="0.5" stroke-miterlimit="10" stroke-linecap="round" stroke-linejoin="round"/>
<path d="M90.365 361.315L83.043 379.876" stroke="white" stroke-width="0.5" stroke-miterlimit="10" stroke-linecap="round" stroke-linejoin="round"/>
<path d="M70.134 404.162L98.021 403.603" stroke="white" stroke-width="0.5" stroke-miterlimit="10" stroke-linecap="round" stroke-linejoin="round"/>
<path d="M113.868 394.576L103.973 414.154" stroke="white" stroke-width="0.5" stroke-miterlimit="10" stroke-linecap="round" stroke-linejoin="round"/>
<path d="M95.0451 436.086C92.8821 415.829 73.4101 395.325 73.2141 395.121L74.7791 393.617C75.6021 394.476 94.9581 414.854 97.2001 435.855L95.0451 436.086Z" fill="#00707F"/>
<path d="M80.2761 390.8C83.9341 387.757 85.4231 384.362 82.2371 382.671C79.6681 381.307 76.4741 384.342 74.1371 387.314C73.2701 381.241 70.4841 376.911 67.0871 379.466C64.5481 381.375 66.4421 386.179 68.3291 389.674C62.8341 386.955 57.6901 386.804 57.8741 391.049C57.9891 393.692 61.5011 394.937 64.9541 395.524C61.2701 398.535 59.7521 401.918 62.9231 403.636C65.4711 405.016 68.6741 402.038 71.034 399.098C71.758 404.722 74.2321 408.634 77.5741 406.374C80.0481 404.701 78.7371 400.273 77.1511 396.769C82.5931 399.347 87.6131 399.406 87.3951 395.214C87.2561 392.573 83.7331 391.358 80.2761 390.8Z" fill="url(#paint10_linear_273_756)"/>
<path d="M76.2351 393.043C76.1471 395.025 74.4691 396.561 72.4871 396.473C70.5051 396.385 68.9691 394.707 69.0571 392.725C69.1451 390.743 70.8231 389.207 72.8051 389.295C74.7871 389.383 76.3231 391.061 76.2351 393.043Z" fill="white"/>
<path d="M132.741 427.691C132.741 427.691 127.011 421.566 126.297 412.759C125.583 403.951 134.142 397.77 132.722 390.819C131.302 383.868 126.009 384.15 127.094 374.412C128.18 364.674 134.599 365.143 134.926 358.517C135.253 351.891 131.423 352.444 132.621 344.353C133.819 336.262 140.752 331.043 142.007 331.096C143.262 331.148 137.549 341.112 140.349 344.704C143.149 348.296 147.342 349.075 146.077 355.889C144.811 362.702 140.014 366.149 144.631 372.428C149.248 378.707 152.515 380.579 148.756 391.086C144.997 401.593 144.998 407.428 149.485 411.489C153.972 415.55 155.332 425.743 152.661 434.283C149.991 442.823 135.581 431.664 132.741 427.691Z" fill="url(#paint11_linear_273_756)"/>
<path d="M137.091 341.025C137.091 341.025 135.331 346.12 140.348 349.763C144.176 352.543 141.813 357.445 139.215 363.649C136.617 369.853 136.634 373.652 141.608 378.01C146.582 382.368 144.997 389.664 141.616 396.808C138.235 403.951 136.932 408.047 141.187 413.356C145.442 418.665 149.987 427.28 149.058 433.252" stroke="white" stroke-width="0.5" stroke-miterlimit="10" stroke-linecap="round" stroke-linejoin="round"/>
<path d="M139.127 401.477C134.14 399.352 130.121 403.428 128.078 406.219C127.767 403.04 127.375 399.98 126.91 397.052C128.378 396.957 134.594 396.409 136.816 393.867C139.342 390.976 138.155 388.545 138.155 388.545C131.603 386.66 127.772 394.317 126.827 396.5C126.097 392.007 125.206 387.829 124.227 383.961C126.22 383.555 131.475 382.269 133.218 379.721C135.386 376.552 133.919 374.278 133.919 374.278C127.887 373.293 124.932 379.666 123.894 382.639C123.105 379.641 122.265 376.846 121.408 374.259C123.377 373.86 128.68 372.573 130.432 370.012C132.6 366.843 131.133 364.569 131.133 364.569C124.945 363.559 121.995 370.292 121.031 373.154C119.841 369.666 118.631 366.581 117.482 363.918C119.44 363.221 124.379 361.235 125.74 358.496C127.449 355.058 125.682 353.008 125.682 353.008C119.605 352.868 117.549 359.515 116.92 362.625C116.273 361.174 115.658 359.879 115.081 358.714C115.438 355.708 115.812 349.448 113.319 346.217C109.962 341.868 106.076 341.81 106.076 341.81C102.044 349.644 109.558 356.525 113.115 359.209C113.805 360.586 114.563 362.183 115.362 364.001C113.311 362.766 109.297 360.653 106.595 361.21C102.835 361.986 102.311 364.641 102.311 364.641C106.252 369.917 113.554 366.565 115.914 365.278C116.976 367.776 118.087 370.646 119.181 373.857C117.262 372.329 113.745 369.88 111.095 370.051C107.264 370.299 106.378 372.856 106.378 372.856C109.524 378.576 117.113 376.356 119.696 375.394C120.534 377.958 121.353 380.723 122.121 383.69C120.243 382.175 116.607 379.584 113.882 379.76C110.051 380.008 109.165 382.565 109.165 382.565C112.307 388.279 119.884 386.07 122.475 385.106C123.307 388.464 124.069 392.057 124.715 395.887C122.919 394.145 120.035 391.754 117.611 391.624C113.777 391.418 112.596 393.853 112.596 393.853C114.915 399.586 122.039 398.713 125.061 398.052C125.481 400.782 125.839 403.622 126.124 406.571C124.549 404.744 122.333 402.63 120.252 402.259C116.472 401.586 115.002 403.858 115.002 403.858C116.526 409.543 123.098 409.821 126.384 409.587C126.961 417.11 127.051 425.277 126.392 434.064L128.371 434.212C129.062 424.995 128.943 416.44 128.297 408.591C130.722 408.62 135.131 408.403 137.15 406.596C140.008 404.035 139.127 401.477 139.127 401.477Z" fill="url(#paint12_linear_273_756)"/>
<path d="M95.9471 440.631H175.032C175.032 440.631 169.181 430.287 161.625 428.484C154.069 426.681 151.744 434.237 144.576 433.268C137.408 432.299 135.47 424.356 125.396 424.743C115.321 425.13 116.097 434.43 108.347 433.655C100.597 432.88 91.4921 428.618 85.6791 440.63H95.9471V440.631Z" fill="#00707F"/>
<path d="M419.435 374.813C416.142 350.562 432.969 321.052 433.14 320.758L430.882 319.453C430.169 320.691 413.441 350.021 416.854 375.162L419.435 374.813Z" fill="#0098B8"/>
<path d="M423.662 317.745C418.521 315.246 415.809 311.713 419.04 308.826C421.646 306.497 426.243 309.121 429.822 311.916C429.089 304.583 431.097 298.732 435.793 300.737C439.303 302.235 438.472 308.383 437.275 313.001C442.905 308.251 448.862 306.598 449.866 311.603C450.491 314.719 446.751 317.18 442.892 318.856C448.055 321.311 450.796 324.821 447.591 327.735C445.015 330.077 440.423 327.522 436.827 324.77C437.597 331.539 435.834 336.812 431.288 335.136C427.922 333.895 428.18 328.353 429.023 323.81C423.415 328.379 417.577 329.89 416.627 324.938C416.029 321.817 419.789 319.388 423.662 317.745Z" fill="url(#paint13_linear_273_756)"/>
<path d="M429.019 319.201C429.691 321.488 432.089 322.798 434.376 322.126C436.663 321.454 437.972 319.056 437.301 316.769C436.629 314.482 434.231 313.173 431.944 313.844C429.657 314.516 428.348 316.914 429.019 319.201Z" fill="white"/>
<path d="M369.609 427.691C369.609 427.691 375.339 421.566 376.053 412.759C376.767 403.951 368.208 397.77 369.628 390.819C371.048 383.868 376.341 384.15 375.255 374.412C374.169 364.674 367.75 365.143 367.423 358.517C367.096 351.891 370.926 352.444 369.728 344.353C368.53 336.262 361.597 331.043 360.342 331.096C359.087 331.148 364.8 341.112 362 344.704C359.2 348.296 355.007 349.075 356.272 355.889C357.538 362.702 362.335 366.149 357.718 372.428C353.101 378.707 349.834 380.579 353.593 391.086C357.352 401.593 357.351 407.428 352.865 411.489C348.378 415.55 347.018 425.743 349.689 434.283C352.359 442.823 366.769 431.664 369.609 427.691Z" fill="url(#paint14_linear_273_756)"/>
<path d="M365.259 341.025C365.259 341.025 367.019 346.12 362.002 349.763C358.174 352.543 360.537 357.445 363.135 363.649C365.733 369.853 365.716 373.652 360.742 378.01C355.768 382.368 357.353 389.664 360.734 396.808C364.115 403.951 365.418 408.047 361.162 413.356C356.907 418.665 352.362 427.28 353.291 433.252" stroke="white" stroke-width="0.5" stroke-miterlimit="10" stroke-linecap="round" stroke-linejoin="round"/>
<path d="M370.157 394.451C376.366 391.804 381.381 396.813 383.932 400.245C384.313 396.321 384.796 392.545 385.37 388.929C383.541 388.819 375.796 388.174 373.023 385.049C369.87 381.496 371.345 378.489 371.345 378.489C379.504 376.13 384.292 385.558 385.474 388.246C386.375 382.699 387.477 377.541 388.689 372.764C386.206 372.273 379.656 370.713 377.479 367.578C374.772 363.68 376.595 360.866 376.595 360.866C384.108 359.62 387.802 367.468 389.102 371.131C390.079 367.428 391.12 363.976 392.184 360.78C389.73 360.297 383.12 358.737 380.933 355.585C378.226 351.687 380.049 348.873 380.049 348.873C387.756 347.595 391.445 355.888 392.652 359.413C394.128 355.103 395.63 351.291 397.055 348C394.615 347.15 388.457 344.725 386.756 341.353C384.621 337.12 386.818 334.582 386.818 334.582C394.389 334.378 396.963 342.569 397.753 346.403C398.556 344.609 399.32 343.009 400.036 341.569C399.585 337.862 399.107 330.141 402.208 326.142C406.381 320.76 411.223 320.668 411.223 320.668C416.262 330.313 406.913 338.84 402.486 342.169C401.628 343.872 400.687 345.845 399.696 348.093C402.248 346.558 407.245 343.932 410.613 344.606C415.299 345.544 415.957 348.817 415.957 348.817C411.057 355.346 401.954 351.247 399.01 349.672C397.692 352.759 396.313 356.306 394.957 360.273C397.345 358.378 401.723 355.339 405.024 355.537C409.798 355.824 410.906 358.974 410.906 358.974C406.998 366.047 397.538 363.346 394.319 362.172C393.28 365.339 392.265 368.754 391.314 372.419C393.651 370.541 398.176 367.325 401.572 367.529C406.345 367.816 407.454 370.966 407.454 370.966C403.55 378.032 394.106 375.344 390.877 374.168C389.847 378.315 388.905 382.751 388.107 387.48C390.341 385.321 393.93 382.358 396.95 382.185C401.726 381.912 403.203 384.909 403.203 384.909C400.324 391.993 391.447 390.952 387.682 390.152C387.164 393.522 386.723 397.028 386.375 400.668C388.334 398.406 391.091 395.786 393.683 395.318C398.391 394.469 400.227 397.264 400.227 397.264C398.339 404.285 390.152 404.662 386.057 404.39C385.352 413.674 385.257 423.751 386.094 434.587L383.628 434.78C382.75 423.412 382.881 412.857 383.671 403.17C380.65 403.217 375.156 402.973 372.637 400.754C369.064 397.612 370.157 394.451 370.157 394.451Z" fill="url(#paint15_linear_273_756)"/>
<path d="M468.448 335.195C468.448 335.195 469.566 342.65 465.652 347.495C461.738 352.341 469.527 358.118 467.124 365.759C464.72 373.4 459.316 371.536 459.316 377.687C459.316 383.837 464.162 388.869 457.825 396.883C451.489 404.897 444.966 401.542 443.847 408.252C442.729 414.961 446.27 423.162 438.256 428.939C430.242 434.716 419.246 437.698 396.696 438.071C396.696 438.071 387.191 413.657 388.869 401.729C390.546 389.801 400.61 389.801 400.797 385.888C400.983 381.974 400.611 371.538 405.456 366.506C410.302 361.474 418.688 363.71 419.993 359.61C421.298 355.51 422.365 347.869 428.634 344.328C434.903 340.787 442.357 343.023 444.78 339.669C447.203 336.314 453.894 328.342 462.671 328.301C468.937 328.27 468.448 335.195 468.448 335.195Z" fill="url(#paint16_linear_273_756)"/>
<path d="M459.222 336.966C459.222 336.966 407.505 405.55 398.279 436.394" stroke="white" stroke-width="0.5" stroke-miterlimit="10" stroke-linecap="round" stroke-linejoin="round"/>
<path d="M460.9 363.803L439.491 364.432" stroke="white" stroke-width="0.5" stroke-miterlimit="10" stroke-linecap="round" stroke-linejoin="round"/>
<path d="M419.526 366.04L426.405 383.902" stroke="white" stroke-width="0.5" stroke-miterlimit="10" stroke-linecap="round" stroke-linejoin="round"/>
<path d="M438.535 407.274L412.331 406.736" stroke="white" stroke-width="0.5" stroke-miterlimit="10" stroke-linecap="round" stroke-linejoin="round"/>
<path d="M397.441 398.048L406.739 416.89" stroke="white" stroke-width="0.5" stroke-miterlimit="10" stroke-linecap="round" stroke-linejoin="round"/>
<path d="M406.402 440.631H327.317C327.317 440.631 333.168 430.287 340.724 428.484C348.28 426.681 350.605 434.237 357.773 433.268C364.941 432.299 366.879 424.356 376.953 424.743C387.027 425.13 386.253 434.43 394.002 433.655C401.752 432.88 410.857 428.618 416.67 440.63H406.402V440.631Z" fill="#00707F"/>
<path d="M414.096 438.954C417.77 414.757 442.229 391.184 442.476 390.95L440.677 389.062C439.644 390.049 415.329 413.477 411.521 438.562L414.096 438.954Z" fill="#00707F"/>
<path d="M434.231 385.389C430.002 381.543 428.396 377.389 432.309 375.529C435.465 374.029 439.137 377.841 441.783 381.532C443.146 374.29 446.721 369.242 450.662 372.488C453.608 374.915 451.079 380.579 448.629 384.673C455.369 381.702 461.551 381.794 461.104 386.879C460.826 390.045 456.544 391.352 452.369 391.873C456.631 395.683 458.272 399.823 454.376 401.716C451.245 403.237 447.559 399.492 444.883 395.838C443.715 402.55 440.537 407.112 436.647 404.223C433.767 402.084 435.576 396.839 437.665 392.718C430.997 395.522 424.969 395.327 425.454 390.307C425.759 387.145 430.052 385.874 434.231 385.389Z" fill="url(#paint17_linear_273_756)"/>
<path d="M438.96 388.295C438.96 390.678 440.892 392.611 443.276 392.611C445.66 392.611 447.592 390.679 447.592 388.295C447.592 385.911 445.66 383.979 443.276 383.979C440.893 383.979 438.96 385.912 438.96 388.295Z" fill="white"/>
<path d="M407.585 385.671C407.643 387.573 406.889 389.329 405.567 390.725C403.915 392.49 401.374 393.654 398.494 393.742C393.345 393.899 389.067 390.537 388.936 386.241C388.839 383.074 391.025 380.278 394.235 378.959C395.388 378.493 396.663 378.211 398.018 378.17C403.167 378.013 407.454 381.375 407.585 385.671Z" fill="#85603C"/>
<path d="M407.585 385.671C407.643 387.573 406.889 389.329 405.567 390.725C404.414 391.2 403.13 391.482 401.766 391.523C396.617 391.68 392.34 388.327 392.208 384.022C392.15 382.111 392.913 380.346 394.235 378.959C395.388 378.493 396.663 378.211 398.018 378.17C403.167 378.013 407.454 381.375 407.585 385.671Z" fill="#A37E4E"/>
<path d="M406.582 385.463C406.616 386.569 405.797 387.491 404.753 387.523C403.709 387.555 402.835 386.684 402.802 385.579C402.768 384.473 403.587 383.551 404.631 383.519C405.675 383.486 406.548 384.357 406.582 385.463Z" fill="#724F2B"/>
<path d="M405.908 385.305C405.924 385.812 405.548 386.235 405.069 386.25C404.59 386.265 404.189 385.865 404.174 385.358C404.158 384.851 404.534 384.428 405.013 384.413C405.492 384.398 405.893 384.797 405.908 385.305Z" fill="#5F3E1B"/>
<path d="M397.531 378.893C397.531 378.893 400.372 378.485 402.756 379.888C405.14 381.29 402.015 380.841 399.722 380.301C397.429 379.762 396.356 379.282 397.531 378.893Z" fill="#BF986A"/>
<path d="M399.442 377.095C399.289 378.991 398.344 380.653 396.876 381.894C395.039 383.465 392.384 384.34 389.512 384.109C384.377 383.695 380.499 379.879 380.845 375.594C381.1 372.436 383.583 369.9 386.919 368.945C388.117 368.609 389.415 368.471 390.766 368.58C395.9 368.994 399.787 372.811 399.442 377.095Z" fill="#85603C"/>
<path d="M399.442 377.095C399.289 378.991 398.344 380.653 396.876 381.894C395.678 382.238 394.37 382.376 393.01 382.266C387.876 381.852 383.996 378.045 384.343 373.751C384.497 371.846 385.451 370.176 386.919 368.944C388.117 368.608 389.415 368.47 390.766 368.579C395.9 368.994 399.787 372.811 399.442 377.095Z" fill="#A37E4E"/>
<path d="M398.468 376.777C398.379 377.88 397.463 378.706 396.422 378.622C395.381 378.538 394.609 377.576 394.698 376.473C394.787 375.37 395.703 374.544 396.744 374.628C397.785 374.712 398.557 375.674 398.468 376.777Z" fill="#724F2B"/>
<path d="M397.816 376.545C397.775 377.051 397.355 377.43 396.877 377.391C396.399 377.352 396.045 376.911 396.086 376.405C396.127 375.899 396.547 375.52 397.025 375.559C397.503 375.598 397.857 376.039 397.816 376.545Z" fill="#5F3E1B"/>
<path d="M390.201 369.244C390.201 369.244 393.07 369.154 395.284 370.812C397.498 372.47 394.442 371.677 392.223 370.886C390.004 370.097 388.991 369.5 390.201 369.244Z" fill="#BF986A"/>
<path d="M414.376 400.059C414.165 401.95 413.17 403.582 411.664 404.777C409.779 406.291 407.099 407.085 404.236 406.766C399.116 406.195 395.356 402.263 395.833 397.991C396.184 394.843 398.743 392.383 402.107 391.53C403.314 391.231 404.617 391.133 405.963 391.283C411.083 391.854 414.852 395.787 414.376 400.059Z" fill="#85603C"/>
<path d="M414.376 400.059C414.165 401.95 413.17 403.582 411.664 404.777C410.456 405.085 409.145 405.182 407.789 405.031C402.669 404.46 398.908 400.537 399.386 396.255C399.598 394.355 400.603 392.716 402.107 391.529C403.314 391.23 404.617 391.132 405.963 391.282C411.083 391.854 414.852 395.787 414.376 400.059Z" fill="#A37E4E"/>
<path d="M413.412 399.711C413.289 400.81 412.348 401.608 411.31 401.492C410.272 401.376 409.53 400.391 409.653 399.291C409.776 398.192 410.717 397.394 411.754 397.51C412.793 397.626 413.535 398.612 413.412 399.711Z" fill="#724F2B"/>
<path d="M412.768 399.459C412.712 399.963 412.28 400.329 411.804 400.276C411.328 400.223 410.988 399.771 411.044 399.267C411.1 398.763 411.532 398.397 412.008 398.45C412.484 398.503 412.824 398.955 412.768 399.459Z" fill="#5F3E1B"/>
<path d="M405.379 391.93C405.379 391.93 408.25 391.928 410.411 393.652C412.573 395.377 409.544 394.491 407.349 393.633C405.156 392.775 404.162 392.148 405.379 391.93Z" fill="#BF986A"/>
<path d="M399.467 398.201C399.525 400.103 398.771 401.859 397.449 403.255C395.797 405.02 393.256 406.184 390.376 406.272C385.227 406.429 380.949 403.067 380.818 398.771C380.721 395.604 382.907 392.808 386.117 391.489C387.27 391.023 388.545 390.742 389.9 390.7C395.049 390.542 399.336 393.904 399.467 398.201Z" fill="#85603C"/>
<path d="M399.467 398.201C399.525 400.103 398.771 401.859 397.449 403.255C396.296 403.73 395.012 404.012 393.648 404.054C388.499 404.211 384.222 400.858 384.09 396.553C384.032 394.642 384.795 392.877 386.117 391.49C387.27 391.024 388.545 390.743 389.9 390.701C395.049 390.542 399.336 393.904 399.467 398.201Z" fill="#A37E4E"/>
<path d="M398.464 397.992C398.498 399.098 397.679 400.02 396.635 400.052C395.591 400.084 394.717 399.213 394.684 398.108C394.65 397.002 395.469 396.08 396.513 396.048C397.557 396.016 398.431 396.886 398.464 397.992Z" fill="#724F2B"/>
<path d="M397.791 397.834C397.807 398.341 397.431 398.764 396.952 398.779C396.473 398.794 396.072 398.394 396.057 397.887C396.041 397.38 396.417 396.957 396.896 396.942C397.375 396.927 397.775 397.327 397.791 397.834Z" fill="#5F3E1B"/>
<path d="M389.413 391.423C389.413 391.423 392.255 391.015 394.638 392.418C397.022 393.82 393.897 393.371 391.604 392.831C389.312 392.292 388.239 391.811 389.413 391.423Z" fill="#BF986A"/>
<path d="M391.134 387.56C391.192 389.462 390.438 391.218 389.116 392.614C387.464 394.379 384.923 395.543 382.043 395.631C376.894 395.788 372.616 392.426 372.485 388.13C372.388 384.964 374.574 382.167 377.784 380.848C378.937 380.382 380.212 380.101 381.567 380.059C386.716 379.901 391.003 383.263 391.134 387.56Z" fill="#85603C"/>
<path d="M391.134 387.56C391.192 389.462 390.438 391.218 389.116 392.614C387.963 393.089 386.679 393.371 385.315 393.412C380.166 393.569 375.889 390.216 375.757 385.911C375.699 384 376.462 382.235 377.784 380.848C378.937 380.382 380.212 380.101 381.567 380.059C386.716 379.901 391.003 383.263 391.134 387.56Z" fill="#A37E4E"/>
<path d="M390.131 387.351C390.165 388.457 389.346 389.379 388.302 389.411C387.258 389.443 386.385 388.572 386.351 387.467C386.317 386.361 387.136 385.439 388.18 385.407C389.224 385.375 390.097 386.245 390.131 387.351Z" fill="#724F2B"/>
<path d="M389.458 387.193C389.474 387.7 389.098 388.123 388.619 388.138C388.14 388.153 387.739 387.753 387.724 387.246C387.709 386.739 388.084 386.316 388.563 386.301C389.041 386.286 389.442 386.686 389.458 387.193Z" fill="#5F3E1B"/>
<path d="M381.08 380.782C381.08 380.782 383.921 380.375 386.305 381.777C388.689 383.179 385.564 382.73 383.271 382.19C380.978 381.651 379.906 381.17 381.08 380.782Z" fill="#BF986A"/>
<path d="M383.929 400.083C383.929 401.986 383.121 403.718 381.757 405.073C380.052 406.787 377.476 407.873 374.596 407.873C369.445 407.873 365.272 404.382 365.272 400.083C365.272 396.915 367.543 394.187 370.791 392.966C371.958 392.535 373.241 392.293 374.596 392.293C379.747 392.294 383.929 395.785 383.929 400.083Z" fill="#85603C"/>
<path d="M383.929 400.083C383.929 401.986 383.121 403.718 381.757 405.073C380.59 405.513 379.298 405.755 377.934 405.755C372.783 405.755 368.61 402.273 368.61 397.965C368.61 396.053 369.427 394.312 370.791 392.966C371.958 392.535 373.241 392.293 374.596 392.293C379.747 392.294 383.929 395.785 383.929 400.083Z" fill="#A37E4E"/>
<path d="M382.933 399.844C382.933 400.95 382.086 401.847 381.042 401.847C379.998 401.847 379.151 400.95 379.151 399.844C379.151 398.738 379.998 397.841 381.042 397.841C382.086 397.841 382.933 398.738 382.933 399.844Z" fill="#724F2B"/>
<path d="M382.264 399.666C382.264 400.174 381.876 400.585 381.397 400.585C380.918 400.585 380.53 400.174 380.53 399.666C380.53 399.159 380.918 398.747 381.397 398.747C381.876 398.747 382.264 399.158 382.264 399.666Z" fill="#5F3E1B"/>
<path d="M374.087 393.001C374.087 393.001 376.94 392.681 379.279 394.155C381.619 395.629 378.51 395.085 376.234 394.475C373.959 393.867 372.901 393.354 374.087 393.001Z" fill="#BF986A"/>
<path d="M418.213 401.848H393.819H386.467H362.073C362.073 401.848 364.412 422.724 373.435 431.773C375.612 433.957 377.925 435.463 380.182 436.494V440.631H400.374V436.361C402.545 435.335 404.76 433.87 406.851 431.772C415.874 422.723 418.213 401.848 418.213 401.848Z" fill="url(#paint18_linear_273_756)"/>
<path d="M215.277 291.241C215.277 291.241 174.026 327.436 175.052 385.178L205.275 390.215C205.275 390.215 228.839 275.832 215.277 291.241Z" fill="#D4ECFF"/>
<path d="M288.735 289.722C288.735 289.722 328.324 327.436 327.299 385.178L297.075 390.215C297.075 390.215 275.173 274.313 288.735 289.722Z" fill="#D4ECFF"/>
<path d="M301.577 380.915C300.415 341.004 288.209 290.244 288.209 290.244C285.967 287.176 270.716 285.899 259.135 285.37V284.998C259.135 284.998 256.463 285.013 252.457 285.125C248.452 285.013 245.78 284.998 245.78 284.998V285.37C234.199 285.899 218.948 287.176 216.706 290.244C216.706 290.244 204.5 341.004 203.338 380.915C202.542 408.257 229.022 414.866 245.78 416.318V416.564C245.78 416.564 248.383 416.757 252.457 416.674C256.532 416.757 259.135 416.564 259.135 416.564V416.318C275.894 414.866 302.374 408.257 301.577 380.915Z" fill="white"/>
<path d="M224.649 291.149C224.649 291.149 218.417 316.335 223.583 332.093C223.583 332.093 235.789 334.224 244.023 334.805L242.215 304.323L224.649 291.149Z" fill="#FFCFFC"/>
<path d="M289.71 290.71C289.71 290.71 289.17 292.01 288.08 294C287.71 294.66 287.29 295.4 286.81 296.19C286.31 297 285.75 297.87 285.13 298.77C284.68 299.41 284.21 300.06 283.71 300.72C283.05 301.58 282.34 302.45 281.57 303.32C280.68 304.33 279.72 305.32 278.68 306.28C278.42 306.52 278.15 306.77 277.88 307C277.31 307.5 276.72 307.98 276.11 308.46C276.02 308.52 275.93 308.59 275.84 308.66C275.11 309.21 274.35 309.74 273.56 310.23C273.52 310.25 273.49 310.28 273.45 310.3C272.81 310.7 272.14 311.08 271.46 311.43C271.09 311.62 270.71 311.81 270.33 311.98C269.14 312.53 267.9 313.01 266.59 313.38C266.14 313.51 265.68 313.63 265.21 313.73C263.87 314.05 262.47 314.25 261.02 314.33C260.58 314.36 260.14 314.38 259.69 314.38C258.32 314.39 256.91 314.29 255.45 314.07C254.38 313.91 253.32 313.71 252.28 313.47C251.68 313.34 251.09 313.2 250.5 313.04C249.31 312.73 248.14 312.38 247 311.99C246.09 311.68 245.2 311.35 244.33 311C241.71 309.94 239.23 308.71 236.92 307.39C235.94 306.83 234.99 306.25 234.08 305.66C231.16 303.79 228.55 301.81 226.31 299.91C220.2 294.77 216.71 290.24 216.71 290.24C217.12 289.4 217.57 288.62 218.05 287.87C218.49 287.17 218.96 286.51 219.46 285.88C220.07 285.09 220.72 284.36 221.4 283.68C221.94 283.12 222.51 282.6 223.08 282.11C223.82 281.47 224.58 280.89 225.33 280.37C226.58 279.49 227.82 278.77 228.96 278.19C229.24 278.04 229.51 277.91 229.77 277.79C231.68 276.87 233.25 276.35 234.08 276.11C234.44 276 234.66 275.94 234.71 275.93C234.72 275.93 234.72 275.93 234.72 275.93C236.28 276.82 237.78 277.58 239.21 278.21C240.18 278.64 241.13 279.02 242.04 279.34C243.77 279.96 245.4 280.39 246.93 280.67C247.01 280.68 247.09 280.7 247.16 280.71C247.95 280.85 248.71 280.95 249.45 281.01C249.86 281.05 250.26 281.07 250.65 281.08C252.06 281.14 253.37 281.06 254.57 280.87C255.39 280.76 256.15 280.59 256.87 280.4C257.91 280.11 258.85 279.76 259.69 279.37C260.42 279.04 261.08 278.67 261.66 278.32C263.82 276.95 264.87 275.61 264.87 275.61C264.98 275.63 265.1 275.66 265.21 275.69C265.75 275.8 266.28 275.93 266.81 276.08C268.03 276.41 269.24 276.82 270.41 277.29C271.48 277.72 272.54 278.19 273.56 278.71C276.27 280.05 278.78 281.64 280.97 283.22C286.27 287.01 289.71 290.71 289.71 290.71Z" fill="#EAB5E9"/>
<path opacity="0.46" d="M286.81 296.19C287.29 295.4 287.71 294.66 288.08 294L280.97 283.63V283.22C278.78 281.64 276.27 280.05 273.56 278.71V281.88L270.41 277.29C269.24 276.82 268.03 276.41 266.81 276.08L268.04 277.88V283.59L265.21 279.46V275.69C265.1 275.66 264.98 275.63 264.87 275.61C264.87 275.61 263.82 276.95 261.66 278.32L262.92 280.16V285.18L259.69 280.47V279.37C258.85 279.76 257.91 280.11 256.87 280.4L257.41 281.18V286.89L254.57 282.75V280.87C253.37 281.06 252.06 281.14 250.65 281.08L252.28 283.46V288.48L249.45 284.34V281.01C248.71 280.95 247.95 280.85 247.16 280.71V281L246.93 280.67C245.4 280.39 243.77 279.96 242.04 279.34V282.59L239.21 278.45V278.21C237.78 277.58 236.28 276.82 234.72 275.93C234.72 275.93 234.72 275.93 234.71 275.93L236.92 279.16V284.18L234.08 280.04V276.11C233.25 276.35 231.68 276.87 229.77 277.79L231.8 280.75V285.76L228.96 281.63V278.19C227.82 278.77 226.58 279.49 225.33 280.37L226.68 282.33V287.35L223.08 282.11C222.51 282.6 221.94 283.12 221.4 283.68L226.68 291.39V296.41L219.46 285.88C218.96 286.51 218.49 287.17 218.05 287.87L226.31 299.91C228.55 301.81 231.16 303.79 234.08 305.66V302.2L236.92 306.34V307.39C239.23 308.71 241.71 309.94 244.33 311V308.08L247 311.99C248.14 312.38 249.31 312.73 250.5 313.04L249.45 311.51V306.5L252.28 310.63V313.47C253.32 313.71 254.38 313.91 255.45 314.07C256.91 314.29 258.32 314.39 259.69 314.38V312.38L261.02 314.33C262.47 314.25 263.87 314.05 265.21 313.73V311.37L266.59 313.38C267.9 313.01 269.14 312.53 270.33 311.98V309.78L271.46 311.43L271.64 311.7L273.53 310.41L273.45 310.3L270.33 305.74V300.03L273.56 304.74V310.23C274.35 309.74 275.11 309.21 275.84 308.66V308.08L276.11 308.46L276.19 308.58L278.08 307.29L277.88 307L275.84 304.03V299.02L278.68 303.15V306.28C279.72 305.32 280.68 304.33 281.57 303.32L280.97 302.45V296.73L283.71 300.72C284.21 300.06 284.68 299.41 285.13 298.77L280.97 292.69V287.67L286.81 296.19ZM231.8 303.88L228.96 299.74V294.73L231.8 298.86V303.88ZM231.8 294.82L228.96 290.69V285.67L231.8 289.81V294.82ZM236.92 302.29L234.08 298.16V293.14L236.92 297.28V302.29ZM236.92 293.24L234.08 289.1V284.08L236.92 288.22V293.24ZM242.04 309.77L239.21 305.63V300.61L242.04 304.75V309.77ZM242.04 300.71L239.21 296.57V291.55L242.04 295.69V300.71ZM242.04 291.65L239.21 287.51V282.5L242.04 286.63V291.65ZM247.16 308.18L244.33 304.04V299.03L247.16 303.16V308.18ZM247.16 299.12L244.33 294.98V289.97L247.16 294.1V299.12ZM247.16 290.06L244.33 285.92V280.91L247.16 285.05V290.06ZM252.28 306.59L249.45 302.45V297.44L252.28 301.58V306.59ZM252.28 297.53L249.45 293.4V288.38L252.28 292.52V297.53ZM257.41 314.06L254.57 309.93V304.91L257.41 309.05V314.06ZM257.41 305.01L254.57 300.87V295.85L257.41 299.99V305.01ZM257.41 295.95L254.57 291.81V286.79L257.41 290.93V295.95ZM262.92 313.05L259.69 308.34V303.32L262.92 308.04V313.05ZM262.92 303.99L259.69 299.28V294.27L262.92 298.98V303.99ZM262.92 294.94L259.69 290.22V284.51L262.92 289.22V294.94ZM268.04 311.47L265.21 307.33V302.31L268.04 306.45V311.47ZM268.04 302.41L265.21 298.27V292.56L268.04 296.69V302.41ZM268.04 292.65L265.21 288.51V283.5L268.04 287.64V292.65ZM273.56 300.7L270.33 295.99V290.97L273.56 295.68V300.7ZM273.56 291.64L270.33 286.93V281.21L273.56 285.93V291.64ZM278.68 299.11L275.84 294.97V289.26L278.68 293.4V299.11ZM278.68 289.36L275.84 285.22V280.2L278.68 284.34V289.36Z" fill="#E891BB"/>
<path d="M269.3 276.98C269.3 276.98 269.18 277.17 268.93 277.51C268.61 277.95 268.05 278.63 267.25 279.41C266.4 280.26 265.26 281.22 263.81 282.15C263.5 282.35 263.18 282.55 262.85 282.74C262.22 283.1 261.53 283.46 260.8 283.79C260.73 283.82 260.65 283.85 260.58 283.88C259.87 284.2 259.1 284.49 258.29 284.76C258.21 284.78 258.14 284.81 258.06 284.83C257.32 285.06 256.54 285.27 255.72 285.45C255.63 285.47 255.55 285.49 255.46 285.5C254.73 285.66 253.97 285.79 253.17 285.88C252.99 285.91 252.81 285.93 252.63 285.95C251.9 286.03 251.14 286.08 250.36 286.11C250.23 286.12 250.1 286.12 249.97 286.12H249.94C249.18 286.13 248.42 286.08 247.66 285.98C247.21 285.94 246.76 285.87 246.31 285.78C245.02 285.55 243.75 285.19 242.53 284.76C241.55 284.42 240.6 284.03 239.7 283.62C236.46 282.14 233.79 280.34 232.29 279.24C231.45 278.63 230.98 278.23 230.98 278.23C231.03 277.77 231.11 277.32 231.22 276.88C231.44 275.97 231.78 275.08 232.18 274.24C232.22 274.17 232.26 274.1 232.29 274.03C233.13 272.38 234.24 270.9 235.29 269.71C236.02 268.86 236.73 268.16 237.3 267.64C238.03 266.96 238.52 266.58 238.52 266.58C238.91 266.76 239.3 266.93 239.7 267.09C240.64 267.47 241.59 267.77 242.53 268.02C244.06 268.41 245.58 268.64 247.05 268.75C247.26 268.76 247.46 268.77 247.66 268.78C248.44 268.82 249.2 268.83 249.94 268.8C250.13 268.8 250.32 268.8 250.5 268.78C251.41 268.75 252.29 268.67 253.12 268.56H253.17C253.98 268.45 254.75 268.32 255.46 268.18C255.86 268.1 256.25 268.02 256.61 267.93C258.53 267.48 259.94 266.99 260.58 266.74C260.84 266.64 260.98 266.58 260.98 266.58C261.45 266.74 261.89 266.95 262.31 267.19C267.26 269.93 269.3 276.98 269.3 276.98Z" fill="#FFCFFC"/>
<path d="M268.42 251.856C267.143 250.667 265.711 251.567 264.937 252.249C263.904 243.371 257.507 236.535 249.766 236.535C242.086 236.535 235.727 243.262 234.617 252.037C233.809 251.405 232.539 250.788 231.391 251.856C229.04 254.045 229.851 259.638 232.526 261.259C233.991 262.147 235.015 262.304 235.644 262.266C237.968 269.548 243.415 275.607 249.765 275.607C256.124 275.607 261.577 269.53 263.895 262.236C264.48 262.337 265.588 262.288 267.285 261.259C269.96 259.638 270.771 254.045 268.42 251.856Z" fill="url(#paint19_radial_273_756)"/>
<path d="M238.12 256.072C238.12 256.072 241.093 246.022 238.998 241.806L234.958 244.156C234.958 244.156 233.504 248.786 233.623 251.457C233.623 251.457 235.266 252.476 238.12 256.072Z" fill="#5F3E1B"/>
<path d="M262.606 256.072C262.606 256.072 259.633 246.022 261.728 241.806L265.768 244.156C265.768 244.156 267.222 248.786 267.103 251.457C267.103 251.457 265.459 252.476 262.606 256.072Z" fill="#5F3E1B"/>
<path d="M266.905 248.939C266.259 234.075 254.248 232.484 250.82 232.332V232.32C250.82 232.32 250.654 232.313 250.363 232.317C250.073 232.313 249.906 232.32 249.906 232.32V232.332C246.478 232.483 234.467 234.075 233.821 248.939C233.821 248.939 238.939 243.111 250.363 242.798C261.787 243.11 266.905 248.939 266.905 248.939Z" fill="white"/>
<path d="M223.583 332.093C223.583 332.093 223.744 335.968 225.876 336.678C228.007 337.388 228.33 334.805 228.33 334.805C228.33 334.805 228.653 337.259 230.784 337.647C232.915 338.034 233.173 335.193 233.173 335.193C233.173 335.193 233.819 337.97 235.821 338.164C237.823 338.358 238.081 335.904 238.081 335.904C238.081 335.904 239.502 338.745 241.633 338.81C243.764 338.875 244.111 336.305 244.022 334.806L223.583 332.093Z" fill="#EAB5E9"/>
<path d="M327.047 382.078C294.91 381.833 256.019 402.831 252.457 404.793C248.895 402.832 210.004 381.833 177.867 382.078C149.797 382.292 142.606 402.227 146.868 420.439C151.13 438.651 175.154 444.075 190.266 444.85C203.217 445.514 241.712 445.04 252.456 444.891C263.201 445.04 301.696 445.514 314.647 444.85C329.759 444.075 353.783 438.65 358.045 420.439C362.308 402.227 355.117 382.292 327.047 382.078Z" fill="#0A3575"/>
<path d="M214.962 291.149C214.962 291.149 225.056 310.859 250.865 316.072C280.929 322.144 292.074 293.241 292.074 293.241L289.709 290.711C289.709 290.711 276.619 313.177 261.304 313.608C233.809 314.382 217.168 289.361 217.168 289.361L214.962 291.149Z" fill="#D882BB"/>
<path d="M153.847 344.099C153.847 344.099 162.594 335.203 167.05 332.104C167.05 332.104 180.666 333.775 197.015 340.047C219.489 348.668 249.263 370.27 249.263 370.27V381.378C249.263 381.378 154.234 350.105 153.847 344.099Z" fill="#FFF0BE"/>
<path d="M348.198 344.729C348.198 344.729 339.16 335.203 334.703 332.103C334.703 332.103 321.087 333.774 304.738 340.046C282.264 348.667 252.49 370.269 252.49 370.269V381.377C252.49 381.377 347.81 350.735 348.198 344.729Z" fill="#FFF0BE"/>
<path d="M244.059 377.612C244.059 377.612 245.806 369.915 250.94 370.012C256.074 370.109 257.527 378.827 257.527 378.827C257.527 378.827 254.233 380.377 250.068 380.377C245.903 380.377 244.059 377.612 244.059 377.612Z" fill="#D1BD9B"/>
<path d="M146.384 346.343L149.032 342.791C149.032 342.791 168.212 342.791 202.311 357.128C236.409 371.465 247.646 379.989 247.646 379.989L246.354 383.283C246.354 383.283 179.966 348.733 146.384 346.343Z" fill="#F2B15C"/>
<path d="M353.752 346.343L351.104 342.791C351.104 342.791 331.924 342.791 297.825 357.128C263.726 371.465 252.49 379.99 252.49 379.99L253.782 383.284C253.782 383.284 320.17 348.733 353.752 346.343Z" fill="#F2B15C"/>
<path d="M146.384 346.343L166.081 402.463L246.354 428.483V383.282C246.354 383.282 176.866 345.31 146.384 346.343Z" fill="url(#paint20_linear_273_756)"/>
<path d="M353.752 346.343L335.024 406.79L253.782 430.297V383.283C253.782 383.283 323.27 345.31 353.752 346.343Z" fill="url(#paint21_linear_273_756)"/>
<path d="M253.782 383.283H246.355V430.297H253.782V383.283Z" fill="#F2B15C"/>
<path d="M246.355 383.283L246.921 379.473H253.216L253.781 383.283H246.355Z" fill="#DD9E52"/>
<path d="M174.025 403.626L161.626 366.04C161.626 366.04 167.341 364.877 168.116 359.162C168.116 359.162 211.03 373.789 230.791 384.251C230.791 384.251 232.147 391.226 237.378 393.551L238.295 421.837L174.025 403.626Z" fill="#BFFFD2"/>
<path d="M326.279 405.176L338.678 367.59C338.678 367.59 332.963 366.428 332.188 360.712C332.188 360.712 289.274 375.34 269.513 385.802C269.513 385.802 268.157 392.777 262.926 395.101L262.008 423.387L326.279 405.176Z" fill="#BFFFD2"/>
<path d="M218.054 407.601C215.113 413.531 205.897 414.951 197.47 410.771C189.043 406.592 184.596 398.396 187.537 392.466C190.478 386.536 199.694 385.117 208.121 389.296C216.548 393.475 220.995 401.671 218.054 407.601Z" fill="url(#paint22_radial_273_756)"/>
<path d="M283.632 409.015C286.573 414.945 295.789 416.365 304.216 412.185C312.643 408.006 317.09 399.81 314.149 393.88C311.208 387.95 301.992 386.531 293.565 390.71C285.138 394.889 280.691 403.085 283.632 409.015Z" fill="url(#paint23_radial_273_756)"/>
<path d="M348.198 405.241L347.165 395.941L252.458 423.183L157.751 395.941L156.718 405.241L235.897 426.33C224.288 428.686 192.186 436.596 170.926 455.355H181.776C181.776 455.355 225.368 430.427 250.07 430.298L249.201 429.874L250.795 430.298C275.497 430.427 319.089 455.355 319.089 455.355H329.938C309.934 437.704 280.33 429.658 267.231 426.807L348.198 405.241Z" fill="#A85B35"/>
<path d="M252.598 370.22C252.598 370.22 261.06 381.041 261.19 396.024L264.703 390.083L268.423 394.203C268.423 394.203 267.333 373.219 257.933 366.733L252.598 370.22Z" fill="#A37E4E"/>
<defs>
<linearGradient id="paint0_linear_273_756" x1="340.19" y1="98.1541" x2="340.19" y2="145.92" gradientUnits="userSpaceOnUse">
<stop stop-color="#4F80C1"/>
<stop offset="1" stop-color="#4F80C1" stop-opacity="0"/>
</linearGradient>
<linearGradient id="paint1_linear_273_756" x1="156.977" y1="122.382" x2="156.977" y2="160.878" gradientUnits="userSpaceOnUse">
<stop stop-color="#4F80C1"/>
<stop offset="1" stop-color="#4F80C1" stop-opacity="0"/>
</linearGradient>
<linearGradient id="paint2_linear_273_756" x1="422.861" y1="207.385" x2="422.861" y2="245.881" gradientUnits="userSpaceOnUse">
<stop stop-color="#4F80C1"/>
<stop offset="1" stop-color="#4F80C1" stop-opacity="0"/>
</linearGradient>
<linearGradient id="paint3_linear_273_756" x1="325.331" y1="3.41032" x2="329.649" y2="105.806" gradientUnits="userSpaceOnUse">
<stop stop-color="#E7B142"/>
<stop offset="1" stop-color="#FFD62A" stop-opacity="0"/>
</linearGradient>
<radialGradient id="paint4_radial_273_756" cx="0" cy="0" r="1" gradientUnits="userSpaceOnUse" gradientTransform="translate(250.068 258.133) scale(123.421 123.421)">
<stop stop-color="#313280"/>
<stop offset="0.1596" stop-color="#3B489D"/>
<stop offset="0.5667" stop-color="#537CE3"/>
<stop offset="0.7566" stop-color="#5D90FF"/>
</radialGradient>
<radialGradient id="paint5_radial_273_756" cx="0" cy="0" r="1" gradientUnits="userSpaceOnUse" gradientTransform="translate(249.906 275.608) scale(91.6993 91.6993)">
<stop stop-color="#313280"/>
<stop offset="0.1596" stop-color="#3B489D"/>
<stop offset="0.5667" stop-color="#537CE3"/>
<stop offset="0.7566" stop-color="#5D90FF"/>
</radialGradient>
<radialGradient id="paint6_radial_273_756" cx="0" cy="0" r="1" gradientUnits="userSpaceOnUse" gradientTransform="translate(249.906 289.722) scale(66.304 66.304)">
<stop stop-color="#313280"/>
<stop offset="0.1596" stop-color="#3B489D"/>
<stop offset="0.5667" stop-color="#537CE3"/>
<stop offset="0.7566" stop-color="#5D90FF"/>
</radialGradient>
<linearGradient id="paint7_linear_273_756" x1="338.718" y1="308.316" x2="396.432" y2="282.03" gradientUnits="userSpaceOnUse">
<stop stop-color="#FFBC00"/>
<stop offset="1" stop-color="#F7EA3A"/>
</linearGradient>
<linearGradient id="paint8_linear_273_756" x1="254.215" y1="339.819" x2="250.786" y2="564.391" gradientUnits="userSpaceOnUse">
<stop stop-color="#4F80C1"/>
<stop offset="1" stop-color="#4F80C1" stop-opacity="0"/>
</linearGradient>
<linearGradient id="paint9_linear_273_756" x1="38.1429" y1="379.132" x2="123.203" y2="379.132" gradientUnits="userSpaceOnUse">
<stop stop-color="#7FA0FF"/>
<stop offset="0.5413" stop-color="#388AC9"/>
<stop offset="1" stop-color="#00799E"/>
</linearGradient>
<linearGradient id="paint10_linear_273_756" x1="57.8689" y1="392.872" x2="87.3999" y2="392.872" gradientUnits="userSpaceOnUse">
<stop stop-color="#FFBC00"/>
<stop offset="1" stop-color="#F7EA3A"/>
</linearGradient>
<linearGradient id="paint11_linear_273_756" x1="126.255" y1="384.258" x2="154.024" y2="384.258" gradientUnits="userSpaceOnUse">
<stop stop-color="#7FA0FF"/>
<stop offset="0.5413" stop-color="#388AC9"/>
<stop offset="1" stop-color="#00799E"/>
</linearGradient>
<linearGradient id="paint12_linear_273_756" x1="102.311" y1="388.01" x2="139.255" y2="388.01" gradientUnits="userSpaceOnUse">
<stop stop-color="#FF6A83"/>
<stop offset="1" stop-color="#FFB4A9"/>
</linearGradient>
<linearGradient id="paint13_linear_273_756" x1="416.564" y1="317.894" x2="449.935" y2="317.894" gradientUnits="userSpaceOnUse">
<stop stop-color="#FF6A83"/>
<stop offset="1" stop-color="#FFB4A9"/>
</linearGradient>
<linearGradient id="paint14_linear_273_756" x1="348.326" y1="384.258" x2="376.095" y2="384.258" gradientUnits="userSpaceOnUse">
<stop stop-color="#7FA0FF"/>
<stop offset="0.5413" stop-color="#388AC9"/>
<stop offset="1" stop-color="#00799E"/>
</linearGradient>
<linearGradient id="paint15_linear_273_756" x1="369.999" y1="377.726" x2="415.955" y2="377.726" gradientUnits="userSpaceOnUse">
<stop stop-color="#FF6A83"/>
<stop offset="1" stop-color="#FFB4A9"/>
</linearGradient>
<linearGradient id="paint16_linear_273_756" x1="451.854" y1="342.28" x2="420.997" y2="402.28" gradientUnits="userSpaceOnUse">
<stop stop-color="#7FA0FF"/>
<stop offset="0.5413" stop-color="#388AC9"/>
<stop offset="1" stop-color="#00799E"/>
</linearGradient>
<linearGradient id="paint17_linear_273_756" x1="425.426" y1="388.295" x2="461.126" y2="388.295" gradientUnits="userSpaceOnUse">
<stop stop-color="#FFBC00"/>
<stop offset="1" stop-color="#F7EA3A"/>
</linearGradient>
<linearGradient id="paint18_linear_273_756" x1="389.882" y1="376.78" x2="390.453" y2="431.637" gradientUnits="userSpaceOnUse">
<stop stop-color="#85603C"/>
<stop offset="1" stop-color="#5F3E1B"/>
</linearGradient>
<radialGradient id="paint19_radial_273_756" cx="0" cy="0" r="1" gradientUnits="userSpaceOnUse" gradientTransform="translate(249.906 256.072) scale(35.8143 35.8143)">
<stop offset="0.1821" stop-color="#FFB4A9"/>
<stop offset="1" stop-color="#FF6A83"/>
</radialGradient>
<linearGradient id="paint20_linear_273_756" x1="146.384" y1="387.403" x2="246.355" y2="387.403" gradientUnits="userSpaceOnUse">
<stop stop-color="#B3FF93"/>
<stop offset="0.6686" stop-color="#38A39B"/>
<stop offset="1" stop-color="#00799E"/>
</linearGradient>
<linearGradient id="paint21_linear_273_756" x1="253.781" y1="388.31" x2="353.752" y2="388.31" gradientUnits="userSpaceOnUse">
<stop stop-color="#B3FF93"/>
<stop offset="0.6686" stop-color="#38A39B"/>
<stop offset="1" stop-color="#00799E"/>
</linearGradient>
<radialGradient id="paint22_radial_273_756" cx="0" cy="0" r="1" gradientUnits="userSpaceOnUse" gradientTransform="translate(167 407) scale(324.041 324.041)">
<stop stop-color="#B3FF93"/>
<stop offset="0.6686" stop-color="#38A39B"/>
<stop offset="1" stop-color="#00799E"/>
</radialGradient>
<radialGradient id="paint23_radial_273_756" cx="0" cy="0" r="1" gradientUnits="userSpaceOnUse" gradientTransform="translate(167 407) scale(324.04 324.041)">
<stop stop-color="#B3FF93"/>
<stop offset="0.6686" stop-color="#38A39B"/>
<stop offset="1" stop-color="#00799E"/>
</radialGradient>
</defs>
</svg>
