<svg id="Layer_1" height="512" viewBox="0 0 64 64" width="512" xmlns="http://www.w3.org/2000/svg" data-name="Layer 1"><path d="m29.039 41a2 2 0 0 0 -4 0v2a2 2 0 0 0 4 0z"/><path d="m39 41a2 2 0 0 0 -4 0v2a2 2 0 0 0 4 0z"/><path d="m48.961 41a2 2 0 0 0 -4 0v2a2 2 0 0 0 4 0z"/><path d="m27.039 48a2 2 0 0 0 -2 2v2a2 2 0 0 0 4 0v-2a2 2 0 0 0 -2-2z"/><path d="m37 48a2 2 0 0 0 -2 2v2a2 2 0 0 0 4 0v-2a2 2 0 0 0 -2-2z"/><path d="m46.961 48a2 2 0 0 0 -2 2v2a2 2 0 0 0 4 0v-2a2 2 0 0 0 -2-2z"/><path d="m54 29.6v-.6c0-8.742-9.041-13.57-16.065-13.97a8.008 8.008 0 0 0 -7.935-7.03h-12a8.009 8.009 0 0 0 -8 8v38a2 2 0 0 0 4 0v-38a4 4 0 0 1 4-4h12a4 4 0 0 1 3.927 3.279c-6.59 1.148-13.927 5.846-13.927 13.721v.6a5.406 5.406 0 0 0 5.4 5.4h23.2a5.406 5.406 0 0 0 5.4-5.4z"/></svg>